<svg width="82" height="57" viewBox="0 0 82 57" fill="none" xmlns="http://www.w3.org/2000/svg">
<rect x="0.75" y="1.25195" width="80.5" height="54.41" fill="white"/>
<rect x="0.75" y="1.25195" width="80.5" height="54.41" stroke="#E4E7EC" stroke-width="1.5"/>
<g clip-path="url(#clip0_2118_313)">
<path d="M41.0074 19.9217C36.1806 19.9217 32.2873 23.7291 32.2873 28.4494C32.2873 33.1697 36.1806 36.9771 41.0074 36.9771C45.8342 36.9771 49.7275 33.1697 49.7275 28.4494C49.7275 23.7291 45.8342 19.9217 41.0074 19.9217ZM41.0074 33.9936C37.8882 33.9936 35.3382 31.5072 35.3382 28.4494C35.3382 25.3916 37.8806 22.9053 41.0074 22.9053C44.1342 22.9053 46.6766 25.3916 46.6766 28.4494C46.6766 31.5072 44.1266 33.9936 41.0074 33.9936ZM52.1181 19.5729C52.1181 20.6787 51.2074 21.5619 50.0842 21.5619C48.9534 21.5619 48.0503 20.6713 48.0503 19.5729C48.0503 18.4744 48.961 17.5838 50.0842 17.5838C51.2074 17.5838 52.1181 18.4744 52.1181 19.5729ZM57.8936 21.5916C57.7646 18.9271 57.1422 16.567 55.1463 14.6225C53.1579 12.6779 50.7445 12.0693 48.0199 11.9357C45.2119 11.7799 36.7954 11.7799 33.9873 11.9357C31.2704 12.0619 28.857 12.6705 26.861 14.615C24.865 16.5596 24.2503 18.9197 24.1137 21.5842C23.9543 24.3303 23.9543 32.5611 24.1137 35.3072C24.2427 37.9717 24.865 40.3318 26.861 42.2764C28.857 44.2209 31.2628 44.8295 33.9873 44.9631C36.7954 45.1189 45.2119 45.1189 48.0199 44.9631C50.7445 44.8369 53.1579 44.2283 55.1463 42.2764C57.1347 40.3318 57.757 37.9717 57.8936 35.3072C58.053 32.5611 58.053 24.3377 57.8936 21.5916ZM54.2659 38.2537C53.6739 39.7084 52.528 40.8291 51.0329 41.4154C48.794 42.2838 43.4815 42.0834 41.0074 42.0834C38.5333 42.0834 33.2132 42.2764 30.982 41.4154C29.4945 40.8365 28.3485 39.7158 27.7489 38.2537C26.861 36.0643 27.0659 30.8689 27.0659 28.4494C27.0659 26.0299 26.8686 20.8271 27.7489 18.6451C28.3409 17.1904 29.4869 16.0697 30.982 15.4834C33.2208 14.615 38.5333 14.8154 41.0074 14.8154C43.4815 14.8154 48.8016 14.6225 51.0329 15.4834C52.5204 16.0623 53.6663 17.183 54.2659 18.6451C55.1538 20.8346 54.9489 26.0299 54.9489 28.4494C54.9489 30.8689 55.1538 36.0717 54.2659 38.2537Z" fill="#9F3D56"/>
</g>
<defs>
<clipPath id="clip0_2118_313">
<rect width="34" height="38" fill="white" transform="translate(24 9.45703)"/>
</clipPath>
</defs>
</svg>
