<svg width="82" height="57" viewBox="0 0 82 57" fill="none" xmlns="http://www.w3.org/2000/svg">
<rect x="0.75" y="1.25195" width="80.5" height="54.41" fill="white" stroke="#E4E7EC" stroke-width="1.5"/>
<path fill-rule="evenodd" clip-rule="evenodd" d="M41.5857 40.4705C38.794 42.866 35.1727 44.3121 31.2156 44.3121C22.3862 44.3121 15.2285 37.1123 15.2285 28.231C15.2285 19.3496 22.3862 12.1499 31.2156 12.1499C35.1727 12.1499 38.794 13.596 41.5857 15.9915C44.3773 13.596 47.9986 12.1499 51.9557 12.1499C60.7851 12.1499 67.9428 19.3496 67.9428 28.231C67.9428 37.1123 60.7851 44.3121 51.9557 44.3121C47.9986 44.3121 44.3773 42.866 41.5857 40.4705Z" fill="#ED0006"/>
<path fill-rule="evenodd" clip-rule="evenodd" d="M41.5857 40.4705C45.0231 37.5209 47.2028 33.132 47.2028 28.231C47.2028 23.33 45.0231 18.941 41.5857 15.9915C44.3774 13.596 47.9987 12.1499 51.9557 12.1499C60.7852 12.1499 67.9428 19.3496 67.9428 28.231C67.9428 37.1123 60.7852 44.3121 51.9557 44.3121C47.9987 44.3121 44.3774 42.866 41.5857 40.4705Z" fill="#F9A000"/>
<path fill-rule="evenodd" clip-rule="evenodd" d="M41.5858 40.4706C45.0232 37.5211 47.2028 33.1322 47.2028 28.2312C47.2028 23.3302 45.0232 18.9413 41.5858 15.9917C38.1484 18.9413 35.9688 23.3302 35.9688 28.2312C35.9688 33.1322 38.1484 37.5211 41.5858 40.4706Z" fill="#FF5E00"/>
</svg>
