<svg width="82" height="57" viewBox="0 0 82 57" fill="none" xmlns="http://www.w3.org/2000/svg">
<rect x="0.823529" y="1.32548" width="80.3529" height="54.2629" fill="white"/>
<rect x="0.823529" y="1.32548" width="80.3529" height="54.2629" stroke="#E4E7EC" stroke-width="1.64706"/>
<path d="M32.6097 28.7215C32.6097 24.7258 27.4697 21.4683 21.1287 21.4683C14.7883 21.4683 9.64826 24.7258 9.64826 28.7215C9.64826 28.8251 9.64697 29.1103 9.64697 29.1465C9.64697 33.3856 14.1396 36.819 21.1274 36.819C28.1584 36.819 32.6097 33.3868 32.6097 29.1471C32.6097 28.9992 32.6097 28.9137 32.6097 28.7215Z" fill="#0A0080"/>
<path d="M32.1708 28.7185C32.1708 32.4858 27.2285 35.5399 21.1317 35.5399C15.0349 35.5399 10.0925 32.4858 10.0925 28.7185C10.0925 24.9505 15.0349 21.8965 21.1317 21.8965C27.2285 21.8965 32.1708 24.9505 32.1708 28.7185Z" fill="#00BCFF"/>
<path d="M17.4652 26.566C17.4593 26.5766 17.3495 26.6871 17.4206 26.7751C17.595 26.9904 18.1332 27.1133 18.6772 26.9954C19.0008 26.9255 19.4162 26.6066 19.8187 26.2977C20.2542 25.9632 20.687 25.6287 21.1218 25.4952C21.5818 25.3535 21.8771 25.4147 22.0722 25.4715C22.286 25.5326 22.5373 25.6687 22.9385 25.9595C23.6938 26.508 26.7309 29.0691 27.2555 29.5115C27.6786 29.3268 29.5567 28.5461 32.1093 28.0026C31.8877 26.6883 31.0595 25.4852 29.8042 24.5005C28.0546 25.2106 25.9162 25.5813 23.8256 24.5947C23.8146 24.5903 22.6827 24.073 21.567 24.0986C19.9072 24.1354 19.1888 24.8293 18.4284 25.5632L17.4652 26.566Z" fill="white"/>
<path d="M27.1325 29.7905C27.0969 29.7599 23.5611 26.7714 22.7606 26.1904C22.2967 25.8547 22.039 25.7686 21.7683 25.7355C21.6274 25.7174 21.4323 25.743 21.2966 25.7792C20.9239 25.8772 20.4367 26.1917 20.0039 26.523C19.5562 26.8675 19.1336 27.192 18.7421 27.2769C18.2414 27.3855 17.6303 27.2569 17.3512 27.0753C17.2381 27.0017 17.1587 26.9168 17.1205 26.8307C17.0172 26.5998 17.2071 26.4151 17.2388 26.3845L18.2143 25.3648C18.328 25.2556 18.4417 25.1464 18.5587 25.0385C18.244 25.0784 17.9527 25.1558 17.6697 25.2319C17.3163 25.328 16.9765 25.4191 16.6321 25.4191C16.4887 25.4191 15.7192 25.2974 15.5732 25.2587C14.6901 25.0254 13.9148 24.7982 12.7577 24.2759C11.3707 25.2737 10.4429 26.5206 10.1748 27.8941C10.3744 27.9452 10.6955 28.0376 10.8306 28.0663C13.9691 28.7403 14.9466 29.4348 15.1242 29.5802C15.3161 29.3737 15.5933 29.2432 15.9027 29.2432C16.2497 29.2439 16.563 29.4117 16.7529 29.6726C16.9325 29.5353 17.1806 29.4186 17.5011 29.4186C17.6464 29.4186 17.7976 29.4448 17.9501 29.4947C18.3041 29.612 18.4869 29.8398 18.5819 30.0458C18.7008 29.994 18.8468 29.9559 19.0187 29.9565C19.1879 29.9565 19.3636 29.9933 19.5407 30.0676C20.1195 30.3072 20.2093 30.8564 20.157 31.2701C20.1983 31.2658 20.2397 31.2639 20.2817 31.2639C20.9678 31.2645 21.526 31.8031 21.526 32.4664C21.526 32.6717 21.4717 32.8645 21.3768 33.0337C21.5635 33.1354 22.0396 33.3644 22.4576 33.3132C22.7916 33.2727 22.9182 33.1622 22.9635 33.1004C22.9945 33.058 23.0274 33.0081 22.9971 32.9725L22.1113 32.0221C22.1113 32.0221 21.9653 31.8885 22.0138 31.8374C22.0635 31.7843 22.154 31.8605 22.2173 31.9116C22.6682 32.2755 23.2187 32.824 23.2187 32.824C23.2277 32.8302 23.2645 32.8995 23.468 32.9351C23.6431 32.965 23.9532 32.9475 24.1677 32.7772C24.222 32.7341 24.2762 32.6805 24.3215 32.6249C24.3182 32.6274 24.315 32.6318 24.3118 32.633C24.5379 32.3528 24.2866 32.0695 24.2866 32.0695L23.2523 30.9481C23.2523 30.9481 23.105 30.8158 23.1547 30.7628C23.1999 30.7166 23.2949 30.7865 23.3601 30.8383C23.687 31.1029 24.1496 31.5509 24.5935 31.9703C24.6794 32.0321 25.0696 32.2648 25.5852 31.9372C25.8985 31.7388 25.9612 31.4954 25.9521 31.3113C25.9308 31.0679 25.7337 30.8945 25.7337 30.8945L24.3215 29.5228C24.3215 29.5228 24.1722 29.3999 24.2252 29.3375C24.2685 29.2851 24.3654 29.3606 24.4287 29.4117C24.8784 29.7755 26.0968 30.8545 26.0968 30.8545C26.1143 30.8664 26.5349 31.1559 27.0549 30.8358C27.241 30.721 27.3599 30.5481 27.3702 30.3465C27.3876 29.9977 27.1325 29.7905 27.1325 29.7905Z" fill="white"/>
<path d="M20.2834 31.5299C20.0644 31.5274 19.8247 31.6529 19.7937 31.6348C19.7763 31.6235 19.8066 31.5387 19.8273 31.4894C19.8486 31.4407 20.1368 30.6026 19.4338 30.3112C18.8957 30.0884 18.5668 30.3393 18.4538 30.4528C18.4241 30.4828 18.4111 30.4803 18.4073 30.4422C18.3969 30.2912 18.3265 29.8831 17.8626 29.7458C17.1991 29.5498 16.7721 29.9973 16.6636 30.1589C16.6151 29.7932 16.296 29.5099 15.9038 29.5093C15.4781 29.5093 15.1331 29.8419 15.1331 30.2531C15.1324 30.6638 15.4774 30.997 15.9032 30.997C16.1099 30.9976 16.2972 30.9177 16.4355 30.7898C16.44 30.7936 16.442 30.8004 16.4394 30.8148C16.4071 30.9982 16.3476 31.6672 17.0725 31.9399C17.3632 32.0485 17.6107 31.9674 17.8155 31.8288C17.8762 31.787 17.8865 31.8045 17.8775 31.86C17.8517 32.0323 17.8846 32.4005 18.4195 32.6095C18.8259 32.7693 19.0669 32.6058 19.2245 32.4654C19.293 32.4048 19.3117 32.4142 19.315 32.5078C19.3344 33.0058 19.7627 33.4008 20.2821 33.4014C20.8177 33.4014 21.2518 32.9833 21.2518 32.4666C21.2525 31.9493 20.819 31.5355 20.2834 31.5299Z" fill="white"/>
<path d="M20.2812 33.3326C19.796 33.332 19.4013 32.9675 19.3832 32.5039C19.3825 32.4639 19.378 32.3578 19.2856 32.3578C19.2468 32.3578 19.2139 32.3803 19.1758 32.4134C19.0692 32.5088 18.9335 32.6062 18.7352 32.6062C18.6447 32.6062 18.5472 32.5856 18.4444 32.545C17.9315 32.3447 17.9244 32.0046 17.945 31.868C17.9509 31.8311 17.9528 31.7931 17.927 31.7637L17.8953 31.7369H17.8636C17.8378 31.7369 17.8107 31.7469 17.7745 31.7719C17.6259 31.8723 17.4838 31.921 17.339 31.921C17.2596 31.921 17.1782 31.9054 17.0961 31.8748C16.4216 31.6215 16.4753 31.0062 16.5082 30.8214C16.5127 30.7834 16.5031 30.7547 16.4785 30.7353L16.4307 30.6973L16.3861 30.7384C16.255 30.8608 16.0825 30.9282 15.9022 30.9282C15.5152 30.9275 15.2006 30.6242 15.2013 30.2511C15.2013 29.8773 15.5165 29.5746 15.9029 29.5746C16.2524 29.5746 16.5496 29.8286 16.5941 30.1656L16.618 30.3472L16.7214 30.1937C16.733 30.1756 17.016 29.7618 17.5367 29.7624C17.6356 29.7624 17.7377 29.7774 17.841 29.8086C18.2558 29.9309 18.3262 30.2941 18.3372 30.4458C18.3443 30.5338 18.4096 30.5381 18.4225 30.5381C18.458 30.5381 18.4845 30.5163 18.5032 30.4969C18.5814 30.4183 18.752 30.2873 19.0188 30.2873C19.1409 30.2873 19.2714 30.3153 19.4051 30.3709C20.0648 30.6442 19.7656 31.4536 19.7624 31.4623C19.7055 31.5965 19.703 31.6558 19.7566 31.6901L19.7824 31.702H19.8018C19.8315 31.702 19.8684 31.6895 19.9291 31.6695C20.0189 31.6396 20.1546 31.5946 20.2812 31.5946H20.2818C20.778 31.6002 21.1818 31.9903 21.1818 32.4645C21.1811 32.9432 20.7774 33.3326 20.2812 33.3326ZM27.2689 29.4311C26.1797 28.5131 23.6626 26.3995 22.981 25.9046C22.5915 25.6219 22.3259 25.4722 22.0927 25.4054C21.9881 25.3748 21.8427 25.3399 21.656 25.3399C21.4828 25.3399 21.2968 25.3698 21.1023 25.4297C20.6617 25.5645 20.223 25.9015 19.7979 26.2273L19.776 26.2441C19.3806 26.548 18.9723 26.8619 18.6628 26.9287C18.5278 26.958 18.3889 26.973 18.2506 26.973C17.9037 26.973 17.5929 26.8763 17.476 26.7327C17.4566 26.7084 17.4689 26.6703 17.5141 26.6148L17.5206 26.6073L18.4787 25.6101C19.2288 24.8849 19.9375 24.201 21.5694 24.1648C21.5959 24.1642 21.6237 24.1636 21.6508 24.1636C22.6664 24.1642 23.6814 24.6035 23.7951 24.654C24.7474 25.1027 25.7307 25.3305 26.7185 25.3311C27.7483 25.3318 28.811 25.0853 29.9281 24.5885C29.8034 24.4874 29.6735 24.3888 29.5398 24.2921C28.5584 24.7027 27.6236 24.9105 26.7217 24.9105C25.7998 24.9093 24.8798 24.6959 23.9857 24.2746C23.9385 24.2528 22.8176 23.7423 21.6508 23.7417C21.6205 23.7417 21.5894 23.7423 21.5591 23.7429C20.1888 23.7735 19.4168 24.2441 18.8973 24.6559C18.3928 24.6678 17.9567 24.7851 17.5697 24.8899C17.2234 24.9823 16.9249 25.0628 16.6336 25.0628C16.5134 25.0628 16.2976 25.0522 16.2782 25.0516C15.9436 25.0416 14.2554 24.6422 12.9129 24.1511C12.776 24.2447 12.6442 24.3414 12.5156 24.44C13.9182 24.9954 15.6251 25.4247 16.1639 25.4584C16.3138 25.4684 16.4733 25.4846 16.6329 25.4846C16.9895 25.4846 17.3449 25.3885 17.6892 25.2956C17.8921 25.24 18.1163 25.1801 18.3527 25.1364C18.2894 25.1963 18.2267 25.2569 18.1634 25.3174L17.1905 26.3346C17.1136 26.4095 16.9469 26.6092 17.0567 26.8544C17.1007 26.9536 17.1892 27.0485 17.3132 27.129C17.5445 27.28 17.9599 27.3817 18.3462 27.3824C18.4923 27.3824 18.6312 27.368 18.7584 27.3405C19.1661 27.2519 19.5944 26.9224 20.048 26.5742C20.4091 26.2971 20.9221 25.9452 21.3155 25.8416C21.4253 25.8129 21.5604 25.7948 21.6683 25.7948C21.7006 25.7954 21.7316 25.796 21.76 25.8004C22.0197 25.8316 22.2704 25.9171 22.7187 26.2422C23.5179 26.822 27.0538 29.8099 27.0887 29.8398C27.0906 29.8417 27.3161 30.0289 27.3006 30.3416C27.2922 30.5157 27.192 30.6704 27.0182 30.7778C26.8671 30.8701 26.7114 30.9169 26.5544 30.9169C26.3179 30.9169 26.1551 30.8096 26.1441 30.8027C26.1312 30.7921 24.9199 29.7194 24.4741 29.3587C24.403 29.3019 24.3339 29.2507 24.2641 29.2507C24.2273 29.2507 24.1943 29.2657 24.1717 29.2932C24.102 29.3768 24.1801 29.4922 24.2732 29.5684L25.688 30.9419C25.69 30.9438 25.8644 31.1016 25.8831 31.3126C25.8948 31.5403 25.7817 31.7307 25.5472 31.8792C25.3805 31.9853 25.2112 32.0396 25.0458 32.0396C24.8288 32.0396 24.6756 31.9435 24.6421 31.921L24.4392 31.7275C24.0684 31.375 23.6852 31.0105 23.4049 30.7846C23.3364 30.7297 23.2634 30.6792 23.1936 30.6792C23.1594 30.6792 23.1283 30.691 23.1044 30.7154C23.0728 30.7497 23.0502 30.8115 23.1303 30.9138C23.1626 30.9556 23.2014 30.9906 23.2014 30.9906L24.2344 32.1113C24.2428 32.1213 24.4469 32.356 24.2577 32.5893L24.2208 32.6337C24.1905 32.6667 24.1569 32.6973 24.1252 32.7235C23.9488 32.8633 23.7137 32.8783 23.6206 32.8783C23.5709 32.8783 23.5224 32.8739 23.4811 32.8664C23.379 32.8489 23.3105 32.8215 23.2769 32.7834L23.2647 32.7709C23.2085 32.7148 22.6877 32.2012 22.2568 31.8542C22.2006 31.808 22.1295 31.75 22.0565 31.75C22.0204 31.75 21.9881 31.7637 21.9629 31.7906C21.8776 31.8804 22.0055 32.0152 22.0598 32.0652L22.941 33.0031C22.9397 33.0112 22.9287 33.0305 22.9074 33.0605C22.8757 33.1023 22.7691 33.2059 22.4493 33.2446C22.4112 33.2496 22.3718 33.2515 22.3324 33.2515C22.0029 33.2515 21.6515 33.0967 21.4706 33.0043C21.5533 32.8358 21.5959 32.6505 21.5959 32.4652C21.5959 31.7644 21.0073 31.1946 20.2825 31.1946C20.267 31.1946 20.2508 31.1946 20.2353 31.1952C20.2586 30.8757 20.2121 30.2704 19.5686 30.0039C19.3832 29.9266 19.1984 29.8873 19.0194 29.8873C18.8786 29.8873 18.7436 29.9103 18.6169 29.9571C18.4832 29.7069 18.2623 29.5247 17.9735 29.4298C17.8139 29.3768 17.655 29.3493 17.5019 29.3493C17.2337 29.3493 16.9876 29.4255 16.7673 29.5765C16.5567 29.3237 16.2382 29.1733 15.9029 29.1733C15.6096 29.1733 15.3272 29.2869 15.1186 29.4872C14.844 29.2851 13.7567 28.6173 10.8455 27.9789C10.7047 27.9484 10.3817 27.8585 10.1833 27.803C10.1504 27.9546 10.1252 28.1087 10.1084 28.2641C10.1084 28.2641 10.6453 28.3883 10.7512 28.4114C13.725 29.0492 14.707 29.7125 14.8737 29.838C14.8168 29.9684 14.7878 30.1088 14.7878 30.2511C14.7871 30.8439 15.2872 31.3275 15.9016 31.3282C15.9707 31.3282 16.0392 31.3219 16.1057 31.3101C16.1988 31.7469 16.4947 32.0783 16.9462 32.248C17.0787 32.2967 17.2124 32.3223 17.3436 32.3223C17.4282 32.3223 17.5141 32.3123 17.5975 32.2917C17.6808 32.4964 17.8688 32.7516 18.2887 32.9163C18.436 32.9738 18.5833 33.0037 18.7261 33.0037C18.8431 33.0037 18.9574 32.9837 19.0666 32.9451C19.2675 33.4187 19.7469 33.732 20.2805 33.732C20.6346 33.7326 20.9744 33.5934 21.2225 33.3469C21.4344 33.4611 21.8821 33.6671 22.3343 33.6677C22.3931 33.6677 22.4481 33.6633 22.503 33.6571C22.9526 33.6028 23.1613 33.4324 23.2576 33.3008C23.275 33.2777 23.2905 33.2533 23.3041 33.2277C23.41 33.2577 23.5263 33.2814 23.6601 33.282C23.9056 33.282 24.1414 33.2009 24.3791 33.033C24.613 32.8708 24.779 32.6368 24.8029 32.4377C24.8036 32.4346 24.8042 32.4321 24.8049 32.429C24.883 32.4446 24.9644 32.4527 25.0452 32.4527C25.2978 32.4527 25.5459 32.3765 25.7836 32.2262C26.2417 31.9366 26.3212 31.5578 26.314 31.3094C26.3935 31.3257 26.4756 31.3338 26.557 31.3338C26.7941 31.3338 27.0273 31.2651 27.2489 31.1285C27.5332 30.9531 27.7037 30.6848 27.7296 30.3721C27.7476 30.16 27.6934 29.9459 27.5771 29.7618C28.3446 29.4423 30.0986 28.8245 32.1641 28.3746C32.1518 28.2198 32.1285 28.0669 32.1001 27.9147C29.6012 28.4507 27.736 29.2301 27.2689 29.4311Z" fill="#0A0080"/>
<path d="M70.7041 26.9776C70.5032 27.2353 70.2157 27.3638 69.8397 27.3638C69.4644 27.3638 69.1749 27.2353 68.9727 26.9776C68.7699 26.7198 68.6691 26.3529 68.6691 25.878C68.6691 25.4031 68.7699 25.0374 68.9727 24.7809C69.1749 24.5251 69.4644 24.3965 69.8397 24.3965C70.2157 24.3965 70.5032 24.5251 70.7041 24.7809C70.9051 25.0374 71.0065 25.4031 71.0065 25.878C71.0065 26.3529 70.9051 26.7198 70.7041 26.9776ZM71.7314 24.1001C71.3166 23.599 70.688 23.3481 69.8436 23.3481C69.0005 23.3481 68.3712 23.599 67.9571 24.1001C67.5423 24.6018 67.335 25.1941 67.335 25.878C67.335 26.5738 67.5423 27.1685 67.9571 27.6634C68.3712 28.1564 69.0005 28.4041 69.8436 28.4041C70.688 28.4041 71.3166 28.1564 71.7314 27.6634C72.1461 27.1685 72.3529 26.5738 72.3529 25.878C72.3529 25.1941 72.1461 24.6018 71.7314 24.1001Z" fill="#0A0080"/>
<path d="M60.4876 26.391C60.4792 26.8072 60.3558 27.0943 60.1187 27.2509C59.8816 27.4081 59.6225 27.4874 59.3415 27.4874C59.1638 27.4874 59.0133 27.4393 58.8893 27.3451C58.7652 27.2503 58.7038 27.0968 58.7038 26.884C58.7038 26.6462 58.8046 26.4702 59.0075 26.356C59.1283 26.2899 59.3247 26.2325 59.5999 26.1869L59.8932 26.1345C60.0392 26.1076 60.1542 26.0789 60.2382 26.0484C60.3235 26.0184 60.4056 25.9785 60.4876 25.9285V26.391ZM61.1408 23.6801C60.7202 23.4748 60.2395 23.3706 59.6981 23.3706C58.866 23.3706 58.2787 23.5803 57.937 23.999C57.7218 24.2674 57.6017 24.6087 57.5733 25.0249H58.8163C58.8473 24.8415 58.908 24.6961 58.9997 24.5887C59.1283 24.4433 59.346 24.3703 59.6542 24.3703C59.9294 24.3703 60.1381 24.4065 60.2802 24.482C60.4217 24.5557 60.4928 24.6905 60.4928 24.8852C60.4928 25.0455 60.401 25.1629 60.215 25.239C60.1116 25.2827 59.9404 25.3189 59.7001 25.3482L59.2595 25.4006C58.7594 25.4611 58.3789 25.5635 58.1218 25.7064C57.6508 25.9685 57.4163 26.391 57.4163 26.9763C57.4163 27.4269 57.5616 27.7757 57.8543 28.0216C58.1463 28.2675 58.5178 28.3704 58.9661 28.391C61.7771 28.5121 61.7455 26.9601 61.7713 26.6368V24.8502C61.7713 24.2773 61.5607 23.8873 61.1408 23.6801Z" fill="#0A0080"/>
<path d="M54.7288 24.4351C55.0505 24.4351 55.2863 24.5312 55.4388 24.7228C55.5435 24.8644 55.6087 25.0248 55.6339 25.2021H57.021C56.9448 24.5262 56.6999 24.0544 56.2864 23.7867C55.8717 23.5209 55.3412 23.3867 54.692 23.3867C53.9277 23.3867 53.3281 23.6132 52.8946 24.0657C52.4605 24.5187 52.2434 25.1515 52.2434 25.9653C52.2434 26.6854 52.4398 27.2726 52.8326 27.7257C53.2254 28.1775 53.8385 28.404 54.6719 28.404C55.506 28.404 56.1352 28.1332 56.5597 27.5903C56.8252 27.2539 56.9745 26.8969 57.0061 26.52H55.6242C55.5958 26.769 55.515 26.9725 55.3813 27.1291C55.2482 27.2851 55.0234 27.3637 54.7055 27.3637C54.2585 27.3637 53.9535 27.1672 53.7914 26.7715C53.7028 26.5612 53.6583 26.2823 53.6583 25.9347C53.6583 25.5702 53.7028 25.2782 53.7914 25.0579C53.96 24.6435 54.2727 24.4351 54.7288 24.4351Z" fill="#0A0080"/>
<path d="M51.8726 23.3867C49.0242 23.3867 49.1928 25.823 49.1928 25.823V28.2973H50.4849V25.9765C50.4849 25.5964 50.5347 25.3144 50.6335 25.1315C50.8105 24.807 51.1575 24.6442 51.6743 24.6442C51.7131 24.6442 51.7641 24.646 51.8274 24.6492C51.8901 24.6516 51.9618 24.6573 52.0438 24.6666V23.3961C51.9864 23.3923 51.9495 23.3911 51.9334 23.3892C51.9166 23.388 51.8965 23.3867 51.8726 23.3867Z" fill="#0A0080"/>
<path d="M45.3868 24.6797C45.569 24.4994 45.8242 24.4089 46.153 24.4089C46.4567 24.4089 46.7099 24.4938 46.9147 24.6648C47.1189 24.8345 47.2332 25.0847 47.2565 25.4136H45.045C45.0909 25.1047 45.2053 24.8607 45.3868 24.6797ZM47.124 27.0043C47.0698 27.0792 47.0116 27.1434 46.947 27.1934C46.7648 27.3388 46.5167 27.3825 46.2247 27.3825C45.9482 27.3825 45.7324 27.3419 45.5367 27.2227C45.2143 27.0317 45.0328 26.7079 45.0134 26.2317H48.5899C48.5951 25.8223 48.5809 25.5091 48.5467 25.2907C48.4872 24.9194 48.3567 24.5917 48.1558 24.3103C47.9329 23.9908 47.6493 23.7568 47.3069 23.6083C46.9651 23.4604 46.5807 23.3867 46.153 23.3867C45.4327 23.3867 44.848 23.6058 44.397 24.0438C43.9461 24.4825 43.72 25.1122 43.72 25.9334C43.72 26.8108 43.97 27.4436 44.47 27.8324C44.9694 28.2212 45.5464 28.4165 46.1995 28.4165C46.9909 28.4165 47.6066 28.1856 48.0466 27.7244C48.2837 27.4817 48.4323 27.2414 48.495 27.0043H47.124Z" fill="#0A0080"/>
<path d="M43.2027 28.2964H42.0218V25.4246C42.0218 25.1625 41.9326 24.5385 41.1535 24.5385C40.634 24.5385 40.2587 24.9004 40.2587 25.4246V28.2964H39.077V25.4246C39.077 25.1625 38.9963 24.5385 38.2178 24.5385C37.6893 24.5385 37.3223 24.9004 37.3223 25.4246V28.2964H36.1414V25.4521C36.1414 24.2664 36.9554 23.3696 38.2178 23.3696C38.8445 23.3696 39.3542 23.6242 39.6856 24.0317C40.0345 23.6242 40.5533 23.3696 41.1535 23.3696C42.4423 23.3696 43.2027 24.2302 43.2027 25.4521V28.2964Z" fill="#0A0080"/>
<path d="M65.3998 26.9861C65.2111 27.2475 64.934 27.378 64.5709 27.378C64.2071 27.378 63.9365 27.2463 63.7581 26.9842C63.5798 26.7209 63.4907 26.3389 63.4907 25.9009C63.4907 25.4946 63.5779 25.1545 63.7536 24.8806C63.9287 24.6066 64.2039 24.4693 64.5799 24.4693C64.8261 24.4693 65.0425 24.5442 65.2292 24.6952C65.5322 24.9448 65.684 25.3923 65.684 25.9726C65.684 26.387 65.5891 26.7252 65.3998 26.9861ZM66.9503 21.8858C66.9503 21.8858 65.6479 21.7516 65.6479 22.7619L65.6472 24.0993C65.5031 23.8759 65.3158 23.7005 65.0845 23.5751C64.8538 23.449 64.5896 23.3854 64.2911 23.3854C63.6457 23.3854 63.1308 23.6175 62.7445 24.0818C62.3581 24.5461 62.1663 25.215 62.1663 26.0244C62.1663 26.7265 62.362 27.3018 62.7535 27.7505C63.1457 28.198 63.9145 28.3945 64.5967 28.3945C66.9768 28.3945 66.949 26.4226 66.949 26.4226L66.9503 21.8858Z" fill="#0A0080"/>
<path d="M39.5997 32.8439C39.5997 32.3734 39.5047 32.0115 39.3141 31.7575C39.1242 31.5047 38.8522 31.3768 38.4969 31.3768C38.1558 31.3768 37.8889 31.5047 37.6983 31.7575C37.522 31.9871 37.4335 32.3503 37.4335 32.8439C37.4335 33.3045 37.5278 33.6471 37.7184 33.8767C37.9077 34.1307 38.181 34.2574 38.535 34.2574C38.8645 34.2574 39.1242 34.1307 39.3141 33.8767C39.5047 33.6234 39.5997 33.2801 39.5997 32.8439ZM37.4335 36.2225C37.4335 36.391 37.3702 36.5364 37.2422 36.6568C37.1163 36.7779 36.9644 36.8384 36.7868 36.8384H36.1414V32.4995C36.1414 31.6558 36.4353 31.1278 36.9199 30.7702C37.2403 30.5344 37.7171 30.3091 38.6112 30.3091C39.2146 30.3091 39.9214 30.5356 40.3032 30.9849C40.7316 31.4904 40.9099 32.0539 40.9099 32.7896C40.9099 33.551 40.7199 34.165 40.3407 34.6374C39.9608 35.0967 39.4724 35.3251 38.8768 35.3251C38.5602 35.3251 38.2817 35.2708 38.0414 35.1629C37.7869 35.0418 37.5853 34.8546 37.4335 34.6006V36.2225Z" fill="#0A0080"/>
<path d="M47.3473 32.8438C47.3473 33.6763 47.5967 34.1375 48.0941 34.2286C48.591 34.3178 48.9586 34.2061 49.195 33.8928C49.3074 33.7612 49.3875 33.5521 49.4379 33.2694C49.487 32.9861 49.4909 32.7053 49.447 32.4282C49.4043 32.1499 49.301 31.9028 49.1388 31.6856C48.978 31.4691 48.7408 31.3598 48.4301 31.3598C48.0069 31.3598 47.7214 31.5115 47.5715 31.8117C47.4216 32.1137 47.3473 32.4575 47.3473 32.8438ZM49.4754 34.9244V34.618C49.2519 34.9562 48.9489 35.1659 48.5696 35.2507C48.1904 35.335 47.8138 35.305 47.4416 35.1596C47.0676 35.0155 46.7471 34.7471 46.4797 34.3552C46.2122 33.9621 46.0791 33.4466 46.0791 32.807C46.0791 32.06 46.2561 31.4535 46.6102 30.9892C46.9648 30.5249 47.5347 30.3127 48.3183 30.2921C49.0904 30.2721 49.5394 30.4413 49.9793 30.7626C50.46 31.1152 50.7443 31.6556 50.7443 32.5V35.0523C50.7462 35.8642 50.1596 37.3694 48.3183 37.2421C47.1774 37.1622 46.5443 36.7097 46.1909 35.6857H47.5534C47.6529 35.8542 47.8047 35.9834 48.0108 36.0732C48.215 36.165 48.4217 36.1887 48.6252 36.1462C48.8307 36.1038 49.0174 35.9859 49.1866 35.7937C49.354 35.6008 49.4502 35.3106 49.4754 34.9244Z" fill="#0A0080"/>
<path d="M44.3179 33.3475C44.3095 33.7637 44.1861 34.0502 43.9497 34.2074C43.7126 34.3641 43.4535 34.4427 43.1725 34.4427C42.9942 34.4427 42.8436 34.3953 42.7202 34.301C42.5962 34.2068 42.5342 34.0527 42.5342 33.8399C42.5342 33.6021 42.6356 33.4261 42.8385 33.3126C42.9593 33.2458 43.1557 33.1884 43.4302 33.1428L43.7236 33.0904C43.8702 33.0636 43.9852 33.0349 44.0686 33.0043C44.1538 32.9743 44.2359 32.935 44.3179 32.8851V33.3475ZM44.9711 30.6367C44.5505 30.4314 44.0698 30.3271 43.5291 30.3271C42.6963 30.3271 42.1097 30.5368 41.7673 30.9556C41.5528 31.2233 41.432 31.5646 41.4042 31.9815H42.6479C42.6782 31.7974 42.739 31.652 42.8307 31.5447C42.9593 31.3993 43.177 31.3269 43.4845 31.3269C43.761 31.3269 43.9691 31.3631 44.1105 31.4379C44.252 31.5122 44.3237 31.647 44.3237 31.8417C44.3237 32.0015 44.2314 32.1194 44.0459 32.1955C43.9432 32.2392 43.7714 32.2754 43.531 32.3047L43.0904 32.3565C42.5904 32.4177 42.2099 32.52 41.9527 32.6623C41.4817 32.9244 41.2466 33.3475 41.2466 33.9322C41.2466 34.3828 41.3926 34.7316 41.6853 34.9775C41.9773 35.2227 42.3488 35.327 42.7971 35.3469C45.6068 35.468 45.5758 33.9154 45.6016 33.5928V31.8061C45.6016 31.2333 45.3917 30.8439 44.9711 30.6367Z" fill="#0A0080"/>
<path d="M54.6049 33.9065C54.404 34.1648 54.1159 34.2934 53.7405 34.2934C53.3645 34.2934 53.0751 34.1648 52.8735 33.9065C52.67 33.6494 52.5692 33.2831 52.5692 32.8082C52.5692 32.3333 52.67 31.9676 52.8735 31.7111C53.0751 31.4546 53.3645 31.3273 53.7405 31.3273C54.1159 31.3273 54.404 31.4546 54.6049 31.7111C54.8059 31.9676 54.9066 32.3333 54.9066 32.8082C54.9066 33.2831 54.8059 33.6494 54.6049 33.9065ZM55.6322 31.0303C55.2174 30.5286 54.5881 30.2783 53.7437 30.2783C52.9013 30.2783 52.2714 30.5286 51.8573 31.0303C51.4425 31.5314 51.2351 32.1236 51.2351 32.8082C51.2351 33.504 51.4425 34.0981 51.8573 34.5929C52.2714 35.0859 52.9013 35.3337 53.7437 35.3337C54.5881 35.3337 55.2174 35.0859 55.6322 34.5929C56.0463 34.0981 56.2524 33.504 56.2524 32.8082C56.2524 32.1236 56.0463 31.5314 55.6322 31.0303Z" fill="#0A0080"/>
</svg>
