<svg width="55" height="56" viewBox="0 0 55 56" fill="none" xmlns="http://www.w3.org/2000/svg">
<g clip-path="url(#clip0_28_139)">
<path d="M51.5709 25.563L48.0525 22.2304C47.7455 21.9395 47.3464 21.7063 46.9065 21.5485C46.7921 21.4451 46.6532 21.3653 46.4944 21.3215L43.3251 20.4455C43.4493 20.1762 43.5586 19.8832 43.6448 19.5607C44.3396 16.9553 42.9223 14.277 40.4181 13.4632C40.033 13.3381 39.6261 13.2746 39.2088 13.2746C38.0607 13.2746 37.0505 13.7429 36.3423 14.1269C35.8939 13.1582 35.0632 11.7231 33.396 11.1813C32.9153 11.0249 32.4156 10.9458 31.911 10.9458C29.8476 10.9458 27.9547 12.2604 27.2008 14.2171C26.8928 15.0171 26.8137 15.754 26.8407 16.3969C26.5554 16.4269 26.2845 16.4734 26.046 16.5379L8.37465 21.32C8.34477 21.328 8.31585 21.3379 8.28734 21.3484C7.77138 21.5033 7.29922 21.7608 6.94766 22.0938L3.42929 25.4268C2.91198 25.9168 2.68251 26.5532 2.79984 27.1726C2.91689 27.7921 3.36313 28.3007 4.02369 28.5679L7.61886 30.0222V43.4991C7.61886 44.6308 8.37588 45.8781 9.37982 46.4008L25.9476 55.0222C26.4127 55.2641 27.0102 55.3975 27.6301 55.3975C28.2499 55.3975 28.8475 55.2641 29.3125 55.0222L45.8802 46.4007C46.8842 45.8781 47.6413 44.6307 47.6413 43.4989V30.0533L50.9765 28.7041C51.637 28.4368 52.0831 27.9282 52.2003 27.3087C52.3176 26.6896 52.0882 26.0532 51.5709 25.563ZM29.1103 14.953C29.5622 13.7803 30.6877 12.9924 31.9108 12.9924C32.2003 12.9924 32.4872 13.0379 32.7632 13.1276C33.8404 13.4776 34.3564 14.6766 34.6647 15.3931C34.8733 15.8779 35.0535 16.2965 35.5615 16.4617C35.6715 16.4974 35.7868 16.5156 35.9045 16.5156H35.9051C36.2705 16.5154 36.5536 16.3553 36.9821 16.1131C37.5398 15.7976 38.3825 15.321 39.2087 15.321C39.4137 15.321 39.6024 15.35 39.7855 15.4094C41.231 15.8792 42.0751 17.5048 41.6676 19.0333C41.4601 19.8103 41.0518 20.3978 40.3025 20.9972C38.9751 22.0595 34.3554 23.9112 33.1172 24.0026C32.2229 23.256 29.4979 18.9349 29.0599 17.343C28.8057 16.4194 28.8209 15.7044 29.1103 14.953ZM26.5805 18.5134C26.7677 18.4627 27.0078 18.4308 27.2637 18.4153C27.7087 19.5885 28.6252 21.2087 29.4116 22.4478C30.3477 23.9232 31.0129 24.7677 31.486 25.259L27.6301 26.3869L13.1437 22.1493L26.5805 18.5134ZM8.35514 23.5794C8.56551 23.3801 9.00902 23.2298 9.38691 23.2298C9.52074 23.2298 9.61146 23.2482 9.66412 23.2635L25.9259 28.0206L22.1304 33.0835C22.0072 33.2481 21.732 33.3673 21.4761 33.3673C21.3905 33.3673 21.3124 33.3539 21.2499 33.3287L5.00171 26.7558L8.35514 23.5794ZM10.3243 44.5854C9.99768 44.4156 9.66508 43.8673 9.66508 43.4991V30.85L20.4824 35.2259C20.7907 35.3506 21.1249 35.4138 21.4757 35.4138H21.4759C22.3796 35.4138 23.2579 34.9911 23.7677 34.3111L26.6068 30.5239V53.0583L10.3243 44.5854ZM45.595 43.4991C45.595 43.8671 45.2622 44.4154 44.9356 44.5854L28.6531 53.0584V31.0069L31.2323 34.4474C31.7421 35.1276 32.6204 35.5502 33.5242 35.5502C33.8751 35.5502 34.2093 35.487 34.5176 35.3623L45.5948 30.8812V43.4991H45.595ZM33.7504 33.4652C33.6879 33.4906 33.6097 33.5038 33.5243 33.5038C33.2684 33.5038 32.9931 33.3845 32.8698 33.22L29.0743 28.1571L45.3363 23.4C45.3888 23.3848 45.4795 23.3663 45.6134 23.3663C45.9913 23.3663 46.4348 23.5167 46.6451 23.716L49.9986 26.8924L33.7504 33.4652Z" fill="white"/>
<path d="M13.5635 13.6807C15.1561 14.5863 19.9766 15.787 22.019 15.787C22.492 15.787 22.8237 15.7254 23.0947 15.5874C23.3662 15.449 24.0871 15.0818 25.574 11.6299C26.2437 10.0748 27.0075 7.97904 27.1426 6.76146C27.2393 5.89026 27.2734 4.56886 26.4563 3.15688C25.5444 1.58173 23.8569 0.603027 22.0526 0.603027C21.2823 0.603027 20.5458 0.779287 19.863 1.12717C18.355 1.8955 17.7521 3.46942 17.4508 4.47855C16.8658 4.26382 16.0797 4.03012 15.2111 4.03012C14.5171 4.03012 13.8687 4.18101 13.284 4.47896C10.9378 5.67444 9.9566 8.54152 11.0504 11.0064C11.7133 12.4997 12.8021 13.2479 13.5635 13.6807ZM14.213 6.30226C14.5114 6.15028 14.8378 6.07648 15.2111 6.07648C15.9459 6.07648 16.6761 6.36733 17.1593 6.55983C17.5228 6.70471 17.7629 6.8002 18.0464 6.8002C18.2254 6.8002 18.3945 6.76023 18.5496 6.68124C19.0275 6.43759 19.1509 5.99312 19.3071 5.43038C19.5154 4.67964 19.8641 3.42318 20.7919 2.95047C21.1843 2.75061 21.6083 2.64938 22.0525 2.64938C23.129 2.64938 24.1378 3.23682 24.6852 4.18224C25.0879 4.87813 25.2146 5.58208 25.1086 6.53595C24.9195 8.23934 22.94 12.8597 22.1619 13.7369C22.1258 13.7391 22.0789 13.7406 22.0189 13.7406C20.3664 13.7406 15.8442 12.6236 14.5748 11.9018C13.7421 11.4282 13.2474 10.9121 12.9205 10.1761C12.2791 8.73019 12.8587 6.99229 14.213 6.30226Z" fill="white"/>
</g>
<defs>
<clipPath id="clip0_28_139">
<rect width="54.7941" height="54.7941" fill="white" transform="translate(0.103027 0.603027)"/>
</clipPath>
</defs>
</svg>
