<svg width="82" height="57" viewBox="0 0 82 57" fill="none" xmlns="http://www.w3.org/2000/svg">
<rect x="0.75" y="1.25195" width="80.5" height="54.41" fill="white"/>
<rect x="0.75" y="1.25195" width="80.5" height="54.41" stroke="#E4E7EC" stroke-width="1.5"/>
<path d="M40.2229 30.6328C40.5393 30.3164 41.0842 30.3164 41.4006 30.6328L45.9124 35.1445C46.7444 35.9766 47.8518 36.4336 49.0237 36.4336H49.9084L44.219 42.123C42.4436 43.8516 39.5608 43.8516 37.7854 42.123L32.0725 36.416H32.6174C33.7893 36.416 34.8967 35.959 35.7288 35.127L40.2229 30.6328ZM41.4006 26.3203C41.0256 26.6426 40.5452 26.6484 40.2229 26.3203L35.7288 21.8262C34.8967 20.9414 33.7893 20.5371 32.6174 20.5371H32.0725L37.7795 14.8301C39.5608 13.0488 42.4436 13.0488 44.219 14.8301L49.9143 20.5195H49.0237C47.8518 20.5195 46.7444 20.9766 45.9124 21.8086L41.4006 26.3203ZM32.6174 21.8555C33.426 21.8555 34.1702 22.1836 34.7913 22.7578L39.2854 27.252C39.7073 27.6211 40.2581 27.8848 40.8147 27.8848C41.3655 27.8848 41.9163 27.6211 42.3381 27.252L46.8499 22.7402C47.4241 22.1719 48.2151 21.8438 49.0237 21.8438H51.2327L54.6487 25.2598C56.4241 27.0352 56.4241 29.918 54.6487 31.6934L51.2327 35.1094H49.0237C48.2151 35.1094 47.4241 34.7812 46.8499 34.207L42.3381 29.6953C41.5237 28.8809 40.0999 28.8809 39.2854 29.7012L34.7913 34.1895C34.1702 34.7637 33.426 35.0918 32.6174 35.0918H30.7542L27.3557 31.6934C25.5745 29.918 25.5745 27.0352 27.3557 25.2598L30.7542 21.8555H32.6174Z" fill="#32BCAD"/>
</svg>
