<svg width="54" height="54" viewBox="0 0 54 54" fill="none" xmlns="http://www.w3.org/2000/svg">
<path d="M32.0951 3.14707L40.6843 11.7275C38.5976 11.9071 36.6491 12.8081 35.1468 14.3104L27.0455 22.4117C26.7161 22.6805 26.4638 22.6024 26.3128 22.4486L26.3129 22.4486L26.3065 22.4422L18.2169 14.3526C16.8335 12.887 15.0873 12.0753 13.232 11.8173L21.9026 3.14671C24.7232 0.326104 29.2851 0.327782 32.0936 3.14554L32.0951 3.14707ZM23.2025 25.5356L23.2261 25.5591L23.2511 25.5811C24.1397 26.3585 25.3571 26.9691 26.666 26.9691C27.9656 26.9691 29.183 26.3575 30.0703 25.5811L30.0954 25.5591L30.1189 25.5356L38.2471 17.4074C38.2477 17.4068 38.2483 17.4062 38.2489 17.4056C39.0981 16.5661 40.2708 16.0809 41.4617 16.0809H45.0289L50.893 21.9449C53.7024 24.7543 53.7024 29.3171 50.893 32.1265L45.0289 37.9905H41.4617C40.2705 37.9905 39.0989 37.5052 38.2507 36.6571L30.1189 28.5252C28.2607 26.667 25.0606 26.6663 23.2017 28.5366C23.2011 28.5372 23.2006 28.5378 23.2 28.5383L15.117 36.6108C14.1573 37.4928 13.0557 37.9588 11.8915 37.9588H8.94734L3.11497 32.1265L3.1138 32.1253C0.295399 29.3162 0.295399 24.7552 3.11381 21.9461L3.11558 21.9443L8.94784 16.102H11.8915C13.0556 16.102 14.1572 16.5679 15.1168 17.4498L23.2025 25.5356ZM26.3065 31.6292C26.4862 31.4494 26.8352 31.4494 27.015 31.6292L35.1468 39.761C36.6471 41.2613 38.5925 42.1619 40.6762 42.3432L32.0996 50.9198C29.2891 53.6513 24.7186 53.6512 21.9081 50.9196L13.2263 42.2467C15.1012 41.9663 16.8387 41.097 18.2064 39.7293L26.3065 31.6292Z" stroke="white" stroke-width="2"/>
</svg>
