<svg width="54" height="54" viewBox="0 0 54 54" fill="none" xmlns="http://www.w3.org/2000/svg">
<g clip-path="url(#clip0_28_42)">
<path d="M53.7841 19.3986C53.197 18.2184 47.9688 7.81411 45.2318 5.95309C42.5988 4.16246 36.1486 1.40147 35.8752 1.28479L35.5604 1.15039L35.2241 1.21484C35.1696 1.22527 29.7437 2.2594 26.9999 2.2594C24.2582 2.2594 18.8302 1.22527 18.7758 1.21484L18.4395 1.15039L18.1246 1.28479C17.8513 1.40147 11.4011 4.16246 8.76797 5.95298C6.0312 7.81422 0.803009 18.2184 0.215884 19.3986L0 19.8325L0.168246 20.2869C0.238638 20.4772 1.98185 24.961 9.6648 25.9848L10.3307 26.0736L12.6902 22.7918C13.7516 28.8591 12.2374 43.1461 10.363 50.0233L10.0935 51.0122L11.0545 51.3688C11.2174 51.4294 15.1795 52.8494 27 52.8494C38.8206 52.8494 42.7825 51.4294 42.9454 51.3688L43.9063 51.0122L43.6369 50.0233C41.7626 43.1458 40.2485 28.859 41.3098 22.792L43.6692 26.0736L44.3351 25.9848C52.018 24.961 53.7614 20.4773 53.8318 20.2869L54 19.8325L53.7841 19.3986ZM34.3471 3.65111C34.3402 6.04377 34.0064 11.2651 31.4009 14.0602C30.2527 15.2918 28.8132 15.8905 27 15.8905C25.1868 15.8905 23.7473 15.2918 22.5991 14.0602C19.9935 11.2649 19.6598 6.04332 19.6529 3.65111C21.5012 3.97056 24.8894 4.50119 27 4.50119C29.1106 4.50119 32.4988 3.97056 34.3471 3.65111ZM50.4007 21.1948C49.4365 22.0556 47.6803 23.1533 44.697 23.6629L40.7342 18.1507L39.8981 19.7858C39.0923 21.3619 38.2765 25.1607 38.9672 34.3078C39.3787 39.7574 40.2342 45.5637 41.1951 49.5265C39.4686 49.9163 35.2435 50.6075 27 50.6075C19.4996 50.6075 14.8911 50.0025 12.8034 49.5325C13.765 45.5697 14.6212 39.7601 15.0329 34.3078C15.7236 25.1609 14.9079 21.3619 14.102 19.7858L13.2659 18.1507L9.30275 23.6631C4.75652 22.8908 3.01868 20.7822 2.47505 19.8941C4.64308 15.5992 8.39595 8.91718 10.0288 7.80694C11.7218 6.65566 15.3197 4.9834 17.41 4.0479C17.452 6.88321 17.9509 12.3571 20.9556 15.5847C22.5293 17.2752 24.5631 18.1324 27.0001 18.1324C29.4372 18.1324 31.4709 17.2752 33.0446 15.5847C36.0494 12.3572 36.5482 6.88332 36.5904 4.0479C38.6805 4.98351 42.2785 6.65578 43.9715 7.80705C45.603 8.9164 49.3548 15.5957 51.5235 19.8911C51.328 20.2047 50.9771 20.68 50.4007 21.1948Z" fill="white"/>
</g>
<defs>
<clipPath id="clip0_28_42">
<rect width="54" height="54" fill="white"/>
</clipPath>
</defs>
</svg>
