<svg width="82" height="57" viewBox="0 0 82 57" fill="none" xmlns="http://www.w3.org/2000/svg">
<rect x="0.75" y="1.25244" width="80.5" height="54.4091" fill="white" stroke="#E4E7EC" stroke-width="1.5"/>
<path fill-rule="evenodd" clip-rule="evenodd" d="M24.8936 38.3769H19.926L16.2009 24.2462C16.0241 23.5962 15.6486 23.0215 15.0964 22.7507C13.7183 22.07 12.1996 21.5284 10.543 21.2552V20.7111H18.5454C19.6498 20.7111 20.4782 21.5284 20.6162 22.4775L22.549 32.6704L27.5142 20.7111H32.3438L24.8936 38.3769ZM35.1049 38.3769H30.4134L34.2766 20.7111H38.9681L35.1049 38.3769ZM45.0377 25.6051C45.1758 24.6536 46.0041 24.1096 46.9705 24.1096C48.4891 23.973 50.1434 24.2462 51.524 24.9245L52.3523 21.1209C50.9717 20.5769 49.4531 20.3037 48.075 20.3037C43.5215 20.3037 40.2082 22.7507 40.2082 26.1468C40.2082 28.7303 42.5551 30.0869 44.2118 30.9041C46.0041 31.719 46.6944 32.263 46.5563 33.0779C46.5563 34.3002 45.1758 34.8442 43.7976 34.8442C42.141 34.8442 40.4843 34.4368 38.9681 33.7562L38.1397 37.562C39.7964 38.2403 41.5887 38.5135 43.2454 38.5135C48.3511 38.6478 51.524 36.2031 51.524 32.5339C51.524 27.9131 45.0377 27.6423 45.0377 25.6051ZM67.943 38.3769L64.2179 20.7111H60.2167C59.3883 20.7111 58.56 21.2552 58.2839 22.07L51.3859 38.3769H56.2154L57.1794 35.7957H63.1134L63.6656 38.3769H67.943ZM60.9069 25.4685L62.2851 32.1264H58.4219L60.9069 25.4685Z" fill="#172B85"/>
</svg>
