<svg width="76" height="78" viewBox="0 0 76 78" fill="none" xmlns="http://www.w3.org/2000/svg">
<rect x="4" y="5" width="68" height="68" rx="34" fill="#25D366"/>
<path d="M4 72.5L24 68.5L10.5 51L4 72.5Z" fill="#25D366"/>
<g clip-path="url(#clip0_2166_255)">
<path fill-rule="evenodd" clip-rule="evenodd" d="M64.9264 11.3263C57.783 4.02605 48.2824 0.00370382 38.1596 0C17.3008 0 0.324786 17.3246 0.317528 38.6197C0.313899 45.4272 2.05759 52.0719 5.36896 57.9277L0 77.9431L20.0605 72.5725C25.5873 75.6505 31.8109 77.2709 38.1433 77.2728H38.1596C59.0148 77.2728 75.9928 59.9462 76 38.6512C76.0036 28.3306 72.0716 18.6284 64.9264 11.3281V11.3263ZM38.1596 70.7503H38.1469C32.5039 70.7486 26.9682 69.2002 22.1382 66.2761L20.9896 65.5799L9.08496 68.7669L12.2621 56.9202L11.5145 55.7054C8.36642 50.5942 6.70257 44.6865 6.7062 38.6216C6.71346 20.9229 20.8226 6.52242 38.1725 6.52242C46.5732 6.52612 54.4698 9.86883 60.4084 15.9375C66.3472 22.0044 69.6149 30.0714 69.6114 38.6475C69.604 56.3481 55.495 70.7486 38.1596 70.7486V70.7503ZM55.4114 46.7089C54.466 46.2256 49.8176 43.892 48.9501 43.5699C48.0829 43.2476 47.4533 43.0866 46.8236 44.0532C46.1941 45.02 44.3815 47.1941 43.8298 47.8366C43.2782 48.4811 42.7266 48.5608 41.7812 48.0773C40.8361 47.594 37.7895 46.5755 34.177 43.2883C31.3665 40.7289 29.4684 37.5697 28.9169 36.6029C28.3653 35.6363 28.8589 35.114 29.3305 34.6344C29.7551 34.2011 30.2759 33.5066 30.7494 32.9436C31.2231 32.3806 31.3791 31.977 31.6947 31.3342C32.0106 30.6898 31.8527 30.127 31.6168 29.6434C31.3808 29.1602 29.4903 24.4099 28.701 22.4784C27.9334 20.5969 27.1533 20.8525 26.5745 20.821C26.0228 20.7932 25.3933 20.7877 24.7619 20.7877C24.1304 20.7877 23.107 21.0284 22.2397 21.9951C21.3725 22.9617 18.9301 25.297 18.9301 30.0453C18.9301 34.7936 22.3178 39.3846 22.7913 40.0291C23.2649 40.6736 29.4593 50.4201 38.9435 54.6017C41.199 55.5961 42.9607 56.1906 44.3342 56.6351C46.5988 57.3703 48.6598 57.2667 50.2892 57.0184C52.1056 56.7407 55.8832 54.6832 56.6707 52.4294C57.4581 50.1755 57.4581 48.2421 57.2223 47.8403C56.9865 47.4384 56.3551 47.1958 55.4097 46.7125L55.4114 46.7089Z" fill="white"/>
</g>
<defs>
<clipPath id="clip0_2166_255">
<rect width="76" height="78" fill="white"/>
</clipPath>
</defs>
</svg>
