<svg width="82" height="57" viewBox="0 0 82 57" fill="none" xmlns="http://www.w3.org/2000/svg">
<rect x="0.75" y="1.25195" width="80.5" height="54.41" fill="white"/>
<rect x="0.75" y="1.25195" width="80.5" height="54.41" stroke="#E4E7EC" stroke-width="1.5"/>
<path d="M52.9076 16.043C49.7277 12.7617 45.4929 10.957 40.9924 10.957C31.7031 10.957 24.1442 18.7383 24.1442 28.3008C24.1442 31.3555 24.9183 34.3398 26.3906 36.9727L24 45.957L32.9326 43.543C35.3915 44.9258 38.1616 45.6523 40.9848 45.6523H40.9924C50.2741 45.6523 58 37.8711 58 28.3086C58 23.6758 56.0875 19.3242 52.9076 16.043ZM40.9924 42.7305C38.4728 42.7305 36.0062 42.0352 33.8585 40.7227L33.35 40.4102L28.0527 41.8398L29.4643 36.5195L29.1304 35.9727C27.7263 33.6758 26.9902 31.0273 26.9902 28.3008C26.9902 20.3555 33.2741 13.8867 41 13.8867C44.7415 13.8867 48.2554 15.3867 50.8964 18.1133C53.5375 20.8398 55.1616 24.457 55.154 28.3086C55.154 36.2617 48.7107 42.7305 40.9924 42.7305ZM48.6728 31.9336C48.2554 31.7148 46.1835 30.668 45.7964 30.5273C45.4094 30.3789 45.1286 30.3086 44.8478 30.7461C44.567 31.1836 43.7625 32.1523 43.5121 32.4492C43.2692 32.7383 43.0188 32.7773 42.6013 32.5586C40.1272 31.2852 38.5031 30.2852 36.8714 27.4023C36.4388 26.6367 37.304 26.6914 38.1085 25.0352C38.2451 24.7461 38.1768 24.4961 38.0705 24.2773C37.9643 24.0586 37.1219 21.9258 36.7728 21.0586C36.4313 20.2148 36.0821 20.332 35.8241 20.3164C35.5813 20.3008 35.3004 20.3008 35.0196 20.3008C34.7388 20.3008 34.2835 20.4102 33.8964 20.8398C33.5094 21.2773 32.4241 22.3242 32.4241 24.457C32.4241 26.5898 33.9344 28.6523 34.1393 28.9414C34.3518 29.2305 37.1067 33.6055 41.3339 35.4883C44.0054 36.6758 45.0527 36.7773 46.3884 36.5742C47.2004 36.4492 48.8777 35.5273 49.2268 34.5117C49.5759 33.4961 49.5759 32.6289 49.4696 32.4492C49.371 32.2539 49.0902 32.1445 48.6728 31.9336Z" fill="#9F3D56"/>
</svg>
