<svg width="177" height="270" viewBox="0 0 177 270" fill="none" xmlns="http://www.w3.org/2000/svg">
<rect width="9.53391" height="55.341" transform="matrix(0.723869 0.689937 -0.723869 0.689937 36.6848 232.379)" fill="white" fill-opacity="0.5"/>
<rect width="11.0682" height="47.6696" transform="matrix(-0.723869 0.689937 -0.723869 -0.689937 9.31689 297.93)" fill="white" fill-opacity="0.5"/>
<rect width="11.0682" height="47.6696" transform="matrix(-0.723869 0.689937 -0.723869 -0.689937 73.4126 236.839)" fill="white" fill-opacity="0.5"/>
<rect width="11.0682" height="47.6696" transform="matrix(-0.723869 0.689937 -0.723869 -0.689937 128.623 289.462)" fill="white" fill-opacity="0.5"/>
<rect width="11.0682" height="47.6696" transform="matrix(-0.723869 0.689937 -0.723869 -0.689937 18.2021 184.217)" fill="white" fill-opacity="0.5"/>
<rect width="11.0682" height="47.6696" transform="matrix(-0.723869 0.689937 -0.723869 -0.689937 77.855 179.983)" fill="white" fill-opacity="0.5"/>
<rect width="11.0682" height="47.6696" transform="matrix(-0.723869 0.689937 -0.723869 -0.689937 133.065 232.606)" fill="white" fill-opacity="0.5"/>
<rect width="9.53391" height="55.341" transform="matrix(0.723869 0.689937 -0.723869 0.689937 45.5696 118.667)" fill="white" fill-opacity="0.5"/>
<rect width="9.53391" height="55.341" transform="matrix(0.723869 0.689937 -0.723869 0.689937 100.78 171.289)" fill="white" fill-opacity="0.5"/>
<rect width="11.0682" height="47.6696" transform="matrix(-0.723869 0.689937 -0.723869 -0.689937 13.7598 241.074)" fill="white" fill-opacity="0.5"/>
<rect width="11.0682" height="47.6696" transform="matrix(-0.723869 0.689937 -0.723869 -0.689937 68.9702 293.696)" fill="white" fill-opacity="0.5"/>
<rect width="9.53391" height="55.341" transform="matrix(0.723869 0.689937 -0.723869 0.689937 41.1265 175.522)" fill="white" fill-opacity="0.5"/>
<rect width="9.53391" height="55.341" transform="matrix(0.723869 0.689937 -0.723869 0.689937 96.3369 228.145)" fill="white" fill-opacity="0.5"/>
<rect width="9.53391" height="11.0682" transform="matrix(0.723869 0.689937 -0.723869 0.689937 22.8818 219.224)" fill="white" fill-opacity="0.5"/>
<rect width="9.53391" height="11.0682" transform="matrix(0.723869 0.689937 -0.723869 0.689937 50.4873 245.535)" fill="white" fill-opacity="0.5"/>
<rect width="9.53391" height="11.0682" transform="matrix(0.723869 0.689937 -0.723869 0.689937 54.9297 188.678)" fill="white" fill-opacity="0.5"/>
<rect width="9.53391" height="11.0682" transform="matrix(0.723869 0.689937 -0.723869 0.689937 82.5354 214.989)" fill="white" fill-opacity="0.5"/>
<rect width="9.53391" height="11.0682" transform="matrix(0.723869 0.689937 -0.723869 0.689937 110.14 241.3)" fill="white" fill-opacity="0.5"/>
<rect width="9.53391" height="11.0682" transform="matrix(0.723869 0.689937 -0.723869 0.689937 -0.280762 136.055)" fill="white" fill-opacity="0.5"/>
<rect width="9.53391" height="11.0682" transform="matrix(0.723869 0.689937 -0.723869 0.689937 -4.72314 192.912)" fill="white" fill-opacity="0.5"/>
<rect width="9.53391" height="11.0682" transform="matrix(0.723869 0.689937 -0.723869 0.689937 27.3247 162.367)" fill="white" fill-opacity="0.5"/>
</svg>
