<svg width="488" height="466" viewBox="0 0 488 466" fill="none" xmlns="http://www.w3.org/2000/svg">
<rect width="9.53391" height="55.341" transform="matrix(0.723869 0.689937 -0.723869 0.689937 288.032 236.613)" fill="white" fill-opacity="0.5"/>
<rect width="9.53391" height="55.341" transform="matrix(0.723869 0.689937 -0.723869 0.689937 343.242 289.236)" fill="white" fill-opacity="0.5"/>
<rect width="9.53391" height="55.341" transform="matrix(0.723869 0.689937 -0.723869 0.689937 173.168 188.225)" fill="white" fill-opacity="0.5"/>
<rect width="9.53391" height="55.341" transform="matrix(0.723869 0.689937 -0.723869 0.689937 111.592 194.292)" fill="white" fill-opacity="0.5"/>
<rect width="9.53391" height="55.341" transform="matrix(0.723869 0.689937 -0.723869 0.689937 109.073 249.316)" fill="white" fill-opacity="0.5"/>
<rect width="9.53391" height="55.341" transform="matrix(0.723869 0.689937 -0.723869 0.689937 168.726 245.082)" fill="white" fill-opacity="0.5"/>
<rect width="9.53391" height="55.341" transform="matrix(0.723869 0.689937 -0.723869 0.689937 347.685 232.379)" fill="white" fill-opacity="0.5"/>
<rect width="9.53391" height="55.341" transform="matrix(0.723869 0.689937 -0.723869 0.689937 402.895 285.002)" fill="white" fill-opacity="0.5"/>
<rect width="9.53391" height="55.341" transform="matrix(0.723869 0.689937 -0.723869 0.689937 232.822 183.991)" fill="white" fill-opacity="0.5"/>
<rect width="9.53391" height="55.341" transform="matrix(0.723869 0.689937 -0.723869 0.689937 296.917 122.9)" fill="white" fill-opacity="0.5"/>
<rect width="11.0682" height="47.6696" transform="matrix(-0.723869 0.689937 -0.723869 -0.689937 320.317 297.93)" fill="white" fill-opacity="0.5"/>
<rect width="11.0682" height="47.6696" transform="matrix(-0.723869 0.689937 -0.723869 -0.689937 375.527 350.553)" fill="white" fill-opacity="0.5"/>
<rect width="11.0682" height="47.6696" transform="matrix(-0.723869 0.689937 -0.723869 -0.689937 205.454 249.542)" fill="white" fill-opacity="0.5"/>
<rect width="11.0682" height="47.6696" transform="matrix(-0.723869 0.689937 -0.723869 -0.689937 145.801 253.775)" fill="white" fill-opacity="0.5"/>
<rect width="11.0682" height="47.6696" transform="matrix(-0.723869 0.689937 -0.723869 -0.689937 141.358 310.633)" fill="white" fill-opacity="0.5"/>
<rect width="11.0682" height="47.6696" transform="matrix(-0.723869 0.689937 -0.723869 -0.689937 384.413 236.839)" fill="white" fill-opacity="0.5"/>
<rect width="11.0682" height="47.6696" transform="matrix(-0.723869 0.689937 -0.723869 -0.689937 439.623 289.462)" fill="white" fill-opacity="0.5"/>
<rect width="11.0682" height="47.6696" transform="matrix(-0.723869 0.689937 -0.723869 -0.689937 269.549 188.453)" fill="white" fill-opacity="0.5"/>
<rect width="11.0682" height="47.6696" transform="matrix(-0.723869 0.689937 -0.723869 -0.689937 265.106 245.308)" fill="white" fill-opacity="0.5"/>
<rect width="11.0682" height="47.6696" transform="matrix(-0.723869 0.689937 -0.723869 -0.689937 150.243 196.92)" fill="white" fill-opacity="0.5"/>
<rect width="11.0682" height="47.6696" transform="matrix(-0.723869 0.689937 -0.723869 -0.689937 90.5903 201.153)" fill="white" fill-opacity="0.5"/>
<rect width="11.0682" height="47.6696" transform="matrix(-0.723869 0.689937 -0.723869 -0.689937 86.1479 258.01)" fill="white" fill-opacity="0.5"/>
<rect width="11.0682" height="47.6696" transform="matrix(-0.723869 0.689937 -0.723869 -0.689937 329.202 184.217)" fill="white" fill-opacity="0.5"/>
<rect width="11.0682" height="47.6696" transform="matrix(-0.723869 0.689937 -0.723869 -0.689937 214.339 135.829)" fill="white" fill-opacity="0.5"/>
<rect width="11.0682" height="47.6696" transform="matrix(-0.723869 0.689937 -0.723869 -0.689937 388.855 179.983)" fill="white" fill-opacity="0.5"/>
<rect width="11.0682" height="47.6696" transform="matrix(-0.723869 0.689937 -0.723869 -0.689937 444.065 232.606)" fill="white" fill-opacity="0.5"/>
<rect width="11.0682" height="47.6696" transform="matrix(-0.723869 0.689937 -0.723869 -0.689937 273.992 131.595)" fill="white" fill-opacity="0.5"/>
<rect width="11.0682" height="47.6696" transform="matrix(-0.723869 0.689937 -0.723869 -0.689937 260.664 302.165)" fill="white" fill-opacity="0.5"/>
<rect width="11.0682" height="47.6696" transform="matrix(-0.723869 0.689937 -0.723869 -0.689937 201.011 306.4)" fill="white" fill-opacity="0.5"/>
<rect width="11.0682" height="47.6696" transform="matrix(-0.723869 0.689937 -0.723869 -0.689937 196.569 363.256)" fill="white" fill-opacity="0.5"/>
<rect width="11.0682" height="47.6696" transform="matrix(-0.723869 0.689937 -0.723869 -0.689937 315.875 354.786)" fill="white" fill-opacity="0.5"/>
<rect width="11.0682" height="47.6696" transform="matrix(-0.723869 0.689937 -0.723869 -0.689937 256.221 359.02)" fill="white" fill-opacity="0.5"/>
<rect width="11.0682" height="47.6696" transform="matrix(-0.723869 0.689937 -0.723869 -0.689937 251.779 415.878)" fill="white" fill-opacity="0.5"/>
<rect width="9.53391" height="55.341" transform="matrix(0.723869 0.689937 -0.723869 0.689937 292.475 179.757)" fill="white" fill-opacity="0.5"/>
<rect width="9.53391" height="55.341" transform="matrix(0.723869 0.689937 -0.723869 0.689937 356.57 118.667)" fill="white" fill-opacity="0.5"/>
<rect width="9.53391" height="55.341" transform="matrix(0.723869 0.689937 -0.723869 0.689937 411.78 171.289)" fill="white" fill-opacity="0.5"/>
<rect width="9.53391" height="55.341" transform="matrix(0.723869 0.689937 -0.723869 0.689937 228.379 240.847)" fill="white" fill-opacity="0.5"/>
<rect width="9.53391" height="55.341" transform="matrix(0.723869 0.689937 -0.723869 0.689937 164.283 301.938)" fill="white" fill-opacity="0.5"/>
<rect width="9.53391" height="55.341" transform="matrix(0.723869 0.689937 -0.723869 0.689937 223.937 297.703)" fill="white" fill-opacity="0.5"/>
<rect width="9.53391" height="55.341" transform="matrix(0.723869 0.689937 -0.723869 0.689937 283.589 293.469)" fill="white" fill-opacity="0.5"/>
<rect width="9.53391" height="55.341" transform="matrix(0.723869 0.689937 -0.723869 0.689937 219.494 354.56)" fill="white" fill-opacity="0.5"/>
<rect width="9.53391" height="55.341" transform="matrix(0.723869 0.689937 -0.723869 0.689937 279.147 350.327)" fill="white" fill-opacity="0.5"/>
<rect width="9.53391" height="55.341" transform="matrix(0.723869 0.689937 -0.723869 0.689937 177.611 131.368)" fill="white" fill-opacity="0.5"/>
<rect width="11.0682" height="47.6696" transform="matrix(-0.723869 0.689937 -0.723869 -0.689937 324.76 241.073)" fill="white" fill-opacity="0.5"/>
<rect width="11.0682" height="47.6696" transform="matrix(-0.723869 0.689937 -0.723869 -0.689937 379.97 293.696)" fill="white" fill-opacity="0.5"/>
<rect width="11.0682" height="47.6696" transform="matrix(-0.723869 0.689937 -0.723869 -0.689937 209.896 192.686)" fill="white" fill-opacity="0.5"/>
<rect width="9.53391" height="55.341" transform="matrix(0.723869 0.689937 -0.723869 0.689937 352.126 175.522)" fill="white" fill-opacity="0.5"/>
<rect width="9.53391" height="55.341" transform="matrix(0.723869 0.689937 -0.723869 0.689937 407.337 228.145)" fill="white" fill-opacity="0.5"/>
<rect width="9.53391" height="55.341" transform="matrix(0.723869 0.689937 -0.723869 0.689937 237.264 127.134)" fill="white" fill-opacity="0.5"/>
<rect width="9.53391" height="11.0682" transform="matrix(0.723869 0.689937 -0.723869 0.689937 274.229 223.458)" fill="white" fill-opacity="0.5"/>
<rect width="9.53391" height="11.0682" transform="matrix(0.723869 0.689937 -0.723869 0.689937 246.624 197.146)" fill="white" fill-opacity="0.5"/>
<rect width="9.53391" height="11.0682" transform="matrix(0.723869 0.689937 -0.723869 0.689937 159.366 175.069)" fill="white" fill-opacity="0.5"/>
<rect width="9.53391" height="11.0682" transform="matrix(0.723869 0.689937 -0.723869 0.689937 242.181 254.002)" fill="white" fill-opacity="0.5"/>
<rect width="9.53391" height="11.0682" transform="matrix(0.723869 0.689937 -0.723869 0.689937 210.134 284.549)" fill="white" fill-opacity="0.5"/>
<rect width="9.53391" height="11.0682" transform="matrix(0.723869 0.689937 -0.723869 0.689937 178.086 315.094)" fill="white" fill-opacity="0.5"/>
<rect width="9.53391" height="11.0682" transform="matrix(0.723869 0.689937 -0.723869 0.689937 214.576 227.692)" fill="white" fill-opacity="0.5"/>
<rect width="9.53391" height="11.0682" transform="matrix(0.723869 0.689937 -0.723869 0.689937 182.528 258.237)" fill="white" fill-opacity="0.5"/>
<rect width="9.53391" height="11.0682" transform="matrix(0.723869 0.689937 -0.723869 0.689937 150.481 288.783)" fill="white" fill-opacity="0.5"/>
<rect width="9.53391" height="11.0682" transform="matrix(0.723869 0.689937 -0.723869 0.689937 127.318 205.615)" fill="white" fill-opacity="0.5"/>
<rect width="9.53391" height="11.0682" transform="matrix(0.723869 0.689937 -0.723869 0.689937 99.7129 179.304)" fill="white" fill-opacity="0.5"/>
<rect width="9.53391" height="11.0682" transform="matrix(0.723869 0.689937 -0.723869 0.689937 95.2705 236.16)" fill="white" fill-opacity="0.5"/>
<rect width="9.53391" height="11.0682" transform="matrix(0.723869 0.689937 -0.723869 0.689937 67.6655 209.85)" fill="white" fill-opacity="0.5"/>
<rect width="9.53391" height="11.0682" transform="matrix(0.723869 0.689937 -0.723869 0.689937 269.787 280.314)" fill="white" fill-opacity="0.5"/>
<rect width="9.53391" height="11.0682" transform="matrix(0.723869 0.689937 -0.723869 0.689937 297.392 306.625)" fill="white" fill-opacity="0.5"/>
<rect width="9.53391" height="11.0682" transform="matrix(0.723869 0.689937 -0.723869 0.689937 324.997 332.936)" fill="white" fill-opacity="0.5"/>
<rect width="9.53391" height="11.0682" transform="matrix(0.723869 0.689937 -0.723869 0.689937 237.739 310.86)" fill="white" fill-opacity="0.5"/>
<rect width="9.53391" height="11.0682" transform="matrix(0.723869 0.689937 -0.723869 0.689937 205.692 341.405)" fill="white" fill-opacity="0.5"/>
<rect width="9.53391" height="11.0682" transform="matrix(0.723869 0.689937 -0.723869 0.689937 265.345 337.171)" fill="white" fill-opacity="0.5"/>
<rect width="9.53391" height="11.0682" transform="matrix(0.723869 0.689937 -0.723869 0.689937 233.297 367.716)" fill="white" fill-opacity="0.5"/>
<rect width="9.53391" height="11.0682" transform="matrix(0.723869 0.689937 -0.723869 0.689937 292.949 363.481)" fill="white" fill-opacity="0.5"/>
<rect width="9.53391" height="11.0682" transform="matrix(0.723869 0.689937 -0.723869 0.689937 260.902 394.027)" fill="white" fill-opacity="0.5"/>
<rect width="9.53391" height="11.0682" transform="matrix(0.723869 0.689937 -0.723869 0.689937 154.924 231.926)" fill="white" fill-opacity="0.5"/>
<rect width="9.53391" height="11.0682" transform="matrix(0.723869 0.689937 -0.723869 0.689937 122.875 262.472)" fill="white" fill-opacity="0.5"/>
<rect width="9.53391" height="11.0682" transform="matrix(0.723869 0.689937 -0.723869 0.689937 301.834 249.769)" fill="white" fill-opacity="0.5"/>
<rect width="9.53391" height="11.0682" transform="matrix(0.723869 0.689937 -0.723869 0.689937 329.44 276.08)" fill="white" fill-opacity="0.5"/>
<rect width="9.53391" height="11.0682" transform="matrix(0.723869 0.689937 -0.723869 0.689937 357.045 302.391)" fill="white" fill-opacity="0.5"/>
<rect width="9.53391" height="11.0682" transform="matrix(0.723869 0.689937 -0.723869 0.689937 186.971 201.381)" fill="white" fill-opacity="0.5"/>
<rect width="9.53391" height="11.0682" transform="matrix(0.723869 0.689937 -0.723869 0.689937 333.882 219.224)" fill="white" fill-opacity="0.5"/>
<rect width="9.53391" height="11.0682" transform="matrix(0.723869 0.689937 -0.723869 0.689937 361.487 245.535)" fill="white" fill-opacity="0.5"/>
<rect width="9.53391" height="11.0682" transform="matrix(0.723869 0.689937 -0.723869 0.689937 389.092 271.846)" fill="white" fill-opacity="0.5"/>
<rect width="9.53391" height="11.0682" transform="matrix(0.723869 0.689937 -0.723869 0.689937 219.019 170.835)" fill="white" fill-opacity="0.5"/>
<rect width="9.53391" height="11.0682" transform="matrix(0.723869 0.689937 -0.723869 0.689937 365.93 188.678)" fill="white" fill-opacity="0.5"/>
<rect width="9.53391" height="11.0682" transform="matrix(0.723869 0.689937 -0.723869 0.689937 393.536 214.989)" fill="white" fill-opacity="0.5"/>
<rect width="9.53391" height="11.0682" transform="matrix(0.723869 0.689937 -0.723869 0.689937 421.141 241.301)" fill="white" fill-opacity="0.5"/>
<rect width="9.53391" height="11.0682" transform="matrix(0.723869 0.689937 -0.723869 0.689937 310.719 136.055)" fill="white" fill-opacity="0.5"/>
<rect width="9.53391" height="11.0682" transform="matrix(0.723869 0.689937 -0.723869 0.689937 251.066 140.289)" fill="white" fill-opacity="0.5"/>
<rect width="9.53391" height="11.0682" transform="matrix(0.723869 0.689937 -0.723869 0.689937 306.277 192.912)" fill="white" fill-opacity="0.5"/>
<rect width="9.53391" height="11.0682" transform="matrix(0.723869 0.689937 -0.723869 0.689937 278.671 166.6)" fill="white" fill-opacity="0.5"/>
<rect width="9.53391" height="11.0682" transform="matrix(0.723869 0.689937 -0.723869 0.689937 191.413 144.524)" fill="white" fill-opacity="0.5"/>
<rect width="9.53391" height="11.0682" transform="matrix(0.723869 0.689937 -0.723869 0.689937 338.325 162.367)" fill="white" fill-opacity="0.5"/>
<rect width="9.53391" height="11.0682" transform="matrix(0.723869 0.689937 -0.723869 0.689937 283.114 109.745)" fill="white" fill-opacity="0.5"/>
<rect width="9.53391" height="11.0682" transform="matrix(0.723869 0.689937 -0.723869 0.689937 223.461 113.978)" fill="white" fill-opacity="0.5"/>
</svg>
