<svg width="72" height="55" viewBox="0 0 72 55" fill="none" xmlns="http://www.w3.org/2000/svg">
<path fill-rule="evenodd" clip-rule="evenodd" d="M19.9742 31.9116L12.0774 39.533L0 27.8767L12.0774 16.2203L19.9742 23.8418L23.6903 20.2552L15.7936 12.6339L28.1033 0.753426L36 8.37494L43.8967 0.753426L56.2064 12.6339L48.3097 20.2552L52.0258 23.8418L59.9225 16.2203L72 27.8767L59.9225 39.533L52.0258 31.9116L48.3097 35.4981L56.2064 43.1195L43.8967 55L36 47.3786L28.1033 55L15.7936 43.1195L23.6903 35.4981L19.9742 31.9116ZM34.6064 46.0337L28.1031 52.3101L18.3483 42.8954L32.9806 28.7734L34.6064 30.3425L21.5999 42.8954L28.1031 49.1719L32.9806 44.4646L34.6064 46.0337ZM24.6193 42.8954L28.1031 46.2578L31.587 42.8954L28.1031 39.533L24.6193 42.8954ZM30.8903 37.0673L29.4967 38.4122L43.8967 52.3101L53.4192 43.1196L46.9161 36.8431L45.2903 38.4122L50.4 43.3437L43.8967 49.6202L30.8903 37.0673ZM40.4128 43.1196L43.8967 39.7572L47.3806 43.1196L43.8967 46.482L40.4128 43.1196ZM36 32.1358L32.5161 35.4982L36 38.8605L39.4839 35.4982L36 32.1358ZM37.3936 40.2055L39.0192 41.7746L50.4 30.7908L48.7742 29.2217L37.3936 40.2055ZM28.1031 31.015L24.6193 27.6526L28.1031 24.2901L31.587 27.6526L28.1031 31.015ZM29.4967 23.1695L30.8903 21.8245L42.2708 32.8083L40.8775 34.1532L29.4967 23.1695ZM47.3806 27.6526L43.8967 31.015L40.4128 27.6526L43.8967 24.2901L47.3806 27.6526ZM45.2903 23.1695L46.9161 21.6002L59.9225 34.1532L66.1936 28.1008L59.9225 22.0486L55.045 26.7559L53.187 24.9627L59.6903 18.6861L69.2128 27.8767L59.6903 37.0673L45.2903 23.1695ZM63.1742 27.8767L59.9225 31.015L56.4386 27.6526L59.6903 24.5144L63.1742 27.8767ZM37.3936 24.9627L39.0192 26.5318L53.4192 12.6339L43.8967 3.44334L37.3936 9.7199L39.0192 11.289L43.8967 6.58149L50.1678 12.6339L37.3936 24.9627ZM43.8967 15.9962L40.4128 12.6339L43.8967 9.27141L47.3806 12.6339L43.8967 15.9962ZM28.1031 6.58149L40.8775 18.9105L42.5031 17.3412L28.1031 3.44334L18.5806 12.6339L25.0838 18.9105L26.7097 17.3412L21.8322 12.6339L28.1031 6.58149ZM28.1031 9.27141L24.6193 12.6339L28.1031 15.9962L31.587 12.6339L28.1031 9.27141ZM32.5161 20.2555L36 23.6177L39.4839 20.2555L36 16.8929L32.5161 20.2555ZM22.9935 26.5318L21.3677 24.9627L32.9806 13.7548L34.6064 15.3239L22.9935 26.5318ZM16.9549 29.2217L18.5807 30.7908L12.0774 37.0673L2.55486 27.8767L12.0774 18.6861L26.4775 32.5841L25.0839 33.929L12.3097 21.6002L5.80647 27.8767L12.0774 33.929L16.9549 29.2217ZM12.0774 24.2901L15.7936 27.8767L12.0774 31.4633L8.3613 27.8767L12.0774 24.2901Z" fill="#E067A7"/>
</svg>
