<svg width="1920" height="304" viewBox="0 0 1920 304" fill="none" xmlns="http://www.w3.org/2000/svg">
<mask id="mask0_2045_217" style="mask-type:alpha" maskUnits="userSpaceOnUse" x="0" y="0" width="1920" height="304">
<rect width="1920" height="304" fill="#9F3D56"/>
</mask>
<g mask="url(#mask0_2045_217)">
<rect width="1920" height="303" fill="#9F3D56"/>
<rect width="9.53391" height="55.341" transform="matrix(0.723869 0.689937 -0.723869 0.689937 1774.07 -36.9338)" fill="white" fill-opacity="0.5"/>
<rect width="9.53391" height="55.341" transform="matrix(0.723869 0.689937 -0.723869 0.689937 1833.73 -41.168)" fill="white" fill-opacity="0.5"/>
<rect width="11.0682" height="47.6696" transform="matrix(-0.723869 0.689937 -0.723869 -0.689937 1806.36 24.3843)" fill="white" fill-opacity="0.5"/>
<rect width="11.0682" height="47.6696" transform="matrix(-0.723869 0.689937 -0.723869 -0.689937 1925.66 15.916)" fill="white" fill-opacity="0.5"/>
<rect width="11.0682" height="47.6696" transform="matrix(-0.723869 0.689937 -0.723869 -0.689937 1866.01 20.1494)" fill="white" fill-opacity="0.5"/>
<rect width="11.0682" height="47.6696" transform="matrix(-0.723869 0.689937 -0.723869 -0.689937 1861.57 77.0063)" fill="white" fill-opacity="0.5"/>
<rect width="11.0682" height="47.6696" transform="matrix(-0.723869 0.689937 -0.723869 -0.689937 1921.22 72.772)" fill="white" fill-opacity="0.5"/>
<rect width="11.0682" height="47.6696" transform="matrix(-0.723869 0.689937 -0.723869 -0.689937 1916.78 129.628)" fill="white" fill-opacity="0.5"/>
<rect width="9.53391" height="55.341" transform="matrix(0.723869 0.689937 -0.723869 0.689937 1829.28 15.689)" fill="white" fill-opacity="0.5"/>
<rect width="9.53391" height="55.341" transform="matrix(0.723869 0.689937 -0.723869 0.689937 1888.94 11.4541)" fill="white" fill-opacity="0.5"/>
<rect width="9.53391" height="55.341" transform="matrix(0.723869 0.689937 -0.723869 0.689937 1948.59 7.22021)" fill="white" fill-opacity="0.5"/>
<rect width="9.53391" height="55.341" transform="matrix(0.723869 0.689937 -0.723869 0.689937 1884.49 68.3115)" fill="white" fill-opacity="0.5"/>
<rect width="9.53391" height="55.341" transform="matrix(0.723869 0.689937 -0.723869 0.689937 1944.15 64.0771)" fill="white" fill-opacity="0.5"/>
<rect width="9.53391" height="11.0682" transform="matrix(0.723869 0.689937 -0.723869 0.689937 1875.13 -1.70117)" fill="white" fill-opacity="0.5"/>
<rect width="9.53391" height="11.0682" transform="matrix(0.723869 0.689937 -0.723869 0.689937 1843.09 28.8442)" fill="white" fill-opacity="0.5"/>
<rect width="9.53391" height="11.0682" transform="matrix(0.723869 0.689937 -0.723869 0.689937 1815.48 2.5332)" fill="white" fill-opacity="0.5"/>
<rect width="9.53391" height="11.0682" transform="matrix(0.723869 0.689937 -0.723869 0.689937 1902.74 24.6108)" fill="white" fill-opacity="0.5"/>
<rect width="9.53391" height="11.0682" transform="matrix(0.723869 0.689937 -0.723869 0.689937 1870.69 55.1558)" fill="white" fill-opacity="0.5"/>
<rect width="9.53391" height="11.0682" transform="matrix(0.723869 0.689937 -0.723869 0.689937 1898.3 81.4663)" fill="white" fill-opacity="0.5"/>
<rect width="9.53391" height="11.0682" transform="matrix(0.723869 0.689937 -0.723869 0.689937 1925.9 107.778)" fill="white" fill-opacity="0.5"/>
<rect width="9.53391" height="55.341" transform="matrix(0.723869 0.689937 -0.723869 0.689937 36.6848 266.379)" fill="white" fill-opacity="0.5"/>
<rect width="11.0682" height="47.6696" transform="matrix(-0.723869 0.689937 -0.723869 -0.689937 9.31689 331.93)" fill="white" fill-opacity="0.5"/>
<rect width="11.0682" height="47.6696" transform="matrix(-0.723869 0.689937 -0.723869 -0.689937 73.4126 270.839)" fill="white" fill-opacity="0.5"/>
<rect width="11.0682" height="47.6696" transform="matrix(-0.723869 0.689937 -0.723869 -0.689937 128.623 323.462)" fill="white" fill-opacity="0.5"/>
<rect width="11.0682" height="47.6696" transform="matrix(-0.723869 0.689937 -0.723869 -0.689937 18.2021 218.217)" fill="white" fill-opacity="0.5"/>
<rect width="11.0682" height="47.6696" transform="matrix(-0.723869 0.689937 -0.723869 -0.689937 77.855 213.983)" fill="white" fill-opacity="0.5"/>
<rect width="11.0682" height="47.6696" transform="matrix(-0.723869 0.689937 -0.723869 -0.689937 133.065 266.606)" fill="white" fill-opacity="0.5"/>
<rect width="9.53391" height="55.341" transform="matrix(0.723869 0.689937 -0.723869 0.689937 45.5696 152.667)" fill="white" fill-opacity="0.5"/>
<rect width="9.53391" height="55.341" transform="matrix(0.723869 0.689937 -0.723869 0.689937 100.78 205.289)" fill="white" fill-opacity="0.5"/>
<rect width="11.0682" height="47.6696" transform="matrix(-0.723869 0.689937 -0.723869 -0.689937 13.7598 275.074)" fill="white" fill-opacity="0.5"/>
<rect width="11.0682" height="47.6696" transform="matrix(-0.723869 0.689937 -0.723869 -0.689937 68.9702 327.696)" fill="white" fill-opacity="0.5"/>
<rect width="9.53391" height="55.341" transform="matrix(0.723869 0.689937 -0.723869 0.689937 41.1265 209.522)" fill="white" fill-opacity="0.5"/>
<rect width="9.53391" height="55.341" transform="matrix(0.723869 0.689937 -0.723869 0.689937 96.3369 262.145)" fill="white" fill-opacity="0.5"/>
<rect width="9.53391" height="11.0682" transform="matrix(0.723869 0.689937 -0.723869 0.689937 22.8818 253.224)" fill="white" fill-opacity="0.5"/>
<rect width="9.53391" height="11.0682" transform="matrix(0.723869 0.689937 -0.723869 0.689937 50.4873 279.535)" fill="white" fill-opacity="0.5"/>
<rect width="9.53391" height="11.0682" transform="matrix(0.723869 0.689937 -0.723869 0.689937 54.9297 222.678)" fill="white" fill-opacity="0.5"/>
<rect width="9.53391" height="11.0682" transform="matrix(0.723869 0.689937 -0.723869 0.689937 82.5354 248.989)" fill="white" fill-opacity="0.5"/>
<rect width="9.53391" height="11.0682" transform="matrix(0.723869 0.689937 -0.723869 0.689937 110.14 275.3)" fill="white" fill-opacity="0.5"/>
<rect width="9.53391" height="11.0682" transform="matrix(0.723869 0.689937 -0.723869 0.689937 -0.280762 170.055)" fill="white" fill-opacity="0.5"/>
<rect width="9.53391" height="11.0682" transform="matrix(0.723869 0.689937 -0.723869 0.689937 -4.72314 226.912)" fill="white" fill-opacity="0.5"/>
<rect width="9.53391" height="11.0682" transform="matrix(0.723869 0.689937 -0.723869 0.689937 27.3247 196.367)" fill="white" fill-opacity="0.5"/>
</g>
</svg>
