<svg width="16" height="16" viewBox="0 0 16 16" fill="none" xmlns="http://www.w3.org/2000/svg">
<g clip-path="url(#clip0_3_21)">
<g clip-path="url(#clip1_3_21)">
<path fill-rule="evenodd" clip-rule="evenodd" d="M4.46361 7.12907L2.72104 5.45446L0.0559387 8.01564L2.72104 10.5768L4.46361 8.9022L5.28364 9.69027L3.54107 11.3649L6.25745 13.9753L7.99999 12.3007L9.74254 13.9753L12.4589 11.3649L10.7164 9.69027L11.5364 8.9022L13.2789 10.5768L15.9441 8.01564L13.2789 5.45446L11.5364 7.12907L10.7164 6.34102L12.4589 4.6664L9.74254 2.05597L7.99999 3.73058L6.25745 2.05597L3.54107 4.6664L5.28364 6.34102L4.46361 7.12907ZM7.69247 4.0261L6.25739 2.64701L4.10483 4.71565L7.3337 7.8186L7.69247 7.47384L4.82236 4.71565L6.25739 3.33655L7.3337 4.37087L7.69247 4.0261ZM5.48864 4.71565L6.25739 3.97685L7.02618 4.71565L6.25739 5.45445L5.48864 4.71565ZM6.87244 5.99624L6.56492 5.70072L9.74254 2.64701L11.8439 4.66639L10.4088 6.04549L10.0501 5.70072L11.1776 4.61714L9.74254 3.23804L6.87244 5.99624ZM8.97376 4.66639L9.74254 5.4052L10.5113 4.66639L9.74254 3.9276L8.97376 4.66639ZM7.99999 7.07981L7.23121 6.34101L7.99999 5.60221L8.76878 6.34101L7.99999 7.07981ZM8.30752 5.30669L8.66623 4.96191L11.1776 7.37533L10.8188 7.72011L8.30752 5.30669ZM6.25739 7.32608L5.48864 8.06488L6.25739 8.80371L7.02618 8.06488L6.25739 7.32608ZM6.56492 9.04993L6.87244 9.34545L9.38377 6.93205L9.0763 6.63653L6.56492 9.04993ZM10.5113 8.06488L9.74254 7.32608L8.97376 8.06488L9.74254 8.80371L10.5113 8.06488ZM10.0501 9.04993L10.4088 9.39475L13.2789 6.63653L14.6628 7.96639L13.2789 9.29621L12.2026 8.26191L11.7926 8.65592L13.2277 10.035L15.329 8.01564L13.2277 5.99624L10.0501 9.04993ZM13.9965 8.01564L13.2789 7.32608L12.5101 8.06488L13.2277 8.75441L13.9965 8.01564ZM8.30752 8.65592L8.66623 8.31116L11.8439 11.3649L9.74254 13.3843L8.30752 12.0051L8.66623 11.6604L9.74254 12.6947L11.1264 11.3649L8.30752 8.65592ZM9.74254 10.6261L8.97376 11.3649L9.74254 12.1037L10.5113 11.3649L9.74254 10.6261ZM6.25739 12.6947L9.0763 9.98574L9.43502 10.3306L6.25739 13.3843L4.15608 11.3649L5.59114 9.98574L5.94992 10.3306L4.87361 11.3649L6.25739 12.6947ZM6.25739 12.1037L5.48864 11.3649L6.25739 10.6261L7.02618 11.3649L6.25739 12.1037ZM7.23121 9.69022L7.99999 8.95144L8.76878 9.69022L7.99999 10.429L7.23121 9.69022ZM5.12987 8.31116L4.77111 8.65592L7.3337 11.1186L7.69247 10.7738L5.12987 8.31116ZM3.79734 7.72011L4.1561 7.37534L2.72105 5.99624L0.619715 8.01564L2.72105 10.035L5.89868 6.98131L5.59116 6.68579L2.7723 9.39475L1.33724 8.01564L2.72105 6.68579L3.79734 7.72011ZM2.72105 8.80371L3.54107 8.01564L2.72105 7.22758L1.90101 8.01564L2.72105 8.80371Z" fill="#E067A7"/>
<path d="M2.72104 5.45444L2.74042 5.43426L2.72104 5.41564L2.70166 5.43426L2.72104 5.45444ZM4.46361 7.12905L4.44423 7.14923L4.46361 7.16786L4.48299 7.14923L4.46361 7.12905ZM0.0559387 8.01562L0.0365594 7.99542L0.015564 8.01562L0.0365594 8.03582L0.0559387 8.01562ZM2.72104 10.5768L2.70166 10.597L2.72104 10.6156L2.74042 10.597L2.72104 10.5768ZM4.46361 8.90218L4.48299 8.88198L4.46361 8.8634L4.44423 8.88198L4.46361 8.90218ZM5.28364 9.69025L5.30302 9.7104L5.32402 9.69025L5.30302 9.67005L5.28364 9.69025ZM3.54107 11.3648L3.5217 11.3447L3.5007 11.3648L3.5217 11.385L3.54107 11.3648ZM6.25745 13.9753L6.23804 13.9955L6.25745 14.0141L6.27681 13.9955L6.25745 13.9753ZM7.99999 12.3006L8.01935 12.2805L7.99999 12.2619L7.98064 12.2805L7.99999 12.3006ZM9.74254 13.9753L9.72318 13.9955L9.74254 14.0141L9.76195 13.9955L9.74254 13.9753ZM12.4589 11.3648L12.4783 11.385L12.4993 11.3648L12.4783 11.3447L12.4589 11.3648ZM10.7164 9.69025L10.6969 9.67005L10.676 9.69025L10.6969 9.7104L10.7164 9.69025ZM11.5364 8.90218L11.5557 8.88198L11.5364 8.8634L11.517 8.88198L11.5364 8.90218ZM13.2789 10.5768L13.2596 10.597L13.2789 10.6156L13.2983 10.597L13.2789 10.5768ZM15.9441 8.01562L15.9634 8.03582L15.9844 8.01562L15.9634 7.99542L15.9441 8.01562ZM13.2789 5.45444L13.2983 5.43426L13.2789 5.41564L13.2596 5.43426L13.2789 5.45444ZM11.5364 7.12905L11.517 7.14923L11.5364 7.16786L11.5557 7.14923L11.5364 7.12905ZM10.7164 6.341L10.6969 6.32082L10.676 6.341L10.6969 6.36117L10.7164 6.341ZM12.4589 4.66639L12.4783 4.68656L12.4993 4.66639L12.4783 4.64621L12.4589 4.66639ZM9.74254 2.05595L9.76195 2.03577L9.74254 2.01715L9.72318 2.03577L9.74254 2.05595ZM7.99999 3.73057L7.98064 3.75075L7.99999 3.76937L8.01935 3.75075L7.99999 3.73057ZM6.25745 2.05595L6.27681 2.03577L6.25745 2.01715L6.23804 2.03577L6.25745 2.05595ZM3.54107 4.66639L3.5217 4.64621L3.5007 4.66639L3.5217 4.68656L3.54107 4.66639ZM5.28364 6.341L5.30302 6.36117L5.32402 6.341L5.30302 6.32082L5.28364 6.341ZM6.25739 2.64699L6.27681 2.62681L6.25739 2.60819L6.23804 2.62681L6.25739 2.64699ZM7.69247 4.02608L7.71183 4.04626L7.73286 4.02608L7.71183 4.0059L7.69247 4.02608ZM4.10483 4.71563L4.08545 4.69545L4.06446 4.71563L4.08545 4.73581L4.10483 4.71563ZM7.3337 7.81858L7.31434 7.83879L7.3337 7.85742L7.35311 7.83879L7.3337 7.81858ZM7.69247 7.47382L7.71183 7.494L7.73286 7.47382L7.71183 7.45365L7.69247 7.47382ZM4.82236 4.71563L4.80298 4.69545L4.78199 4.71563L4.80298 4.73581L4.82236 4.71563ZM6.25739 3.33654L6.27681 3.31636L6.25739 3.29773L6.23804 3.31636L6.25739 3.33654ZM7.3337 4.37085L7.31434 4.39103L7.3337 4.40966L7.35311 4.39103L7.3337 4.37085ZM6.25739 3.97683L6.27681 3.95665L6.25739 3.93802L6.23804 3.95665L6.25739 3.97683ZM5.48864 4.71563L5.46926 4.69545L5.44826 4.71563L5.46926 4.73581L5.48864 4.71563ZM7.02618 4.71563L7.04559 4.73581L7.06657 4.71563L7.04559 4.69545L7.02618 4.71563ZM6.25739 5.45443L6.23804 5.47461L6.25739 5.49323L6.27681 5.47461L6.25739 5.45443ZM6.56492 5.7007L6.54556 5.68052L6.52458 5.7007L6.54556 5.72088L6.56492 5.7007ZM6.87244 5.99622L6.85309 6.0164L6.87244 6.03502L6.8918 6.0164L6.87244 5.99622ZM9.74254 2.64699L9.76195 2.62681L9.74254 2.60819L9.72318 2.62681L9.74254 2.64699ZM11.8439 4.66637L11.8633 4.68655L11.8842 4.66637L11.8633 4.6462L11.8439 4.66637ZM10.4088 6.04547L10.3894 6.06565L10.4088 6.08427L10.4282 6.06565L10.4088 6.04547ZM10.0501 5.7007L10.0307 5.68052L10.0097 5.7007L10.0307 5.72088L10.0501 5.7007ZM11.1776 4.61712L11.197 4.6373L11.218 4.61712L11.197 4.59695L11.1776 4.61712ZM9.74254 3.23802L9.76195 3.21785L9.74254 3.19923L9.72318 3.21785L9.74254 3.23802ZM9.74254 5.40518L9.72318 5.42536L9.74254 5.44398L9.76195 5.42536L9.74254 5.40518ZM8.97376 4.66637L8.9544 4.6462L8.93342 4.66637L8.9544 4.68655L8.97376 4.66637ZM10.5113 4.66637L10.5307 4.68655L10.5517 4.66637L10.5307 4.6462L10.5113 4.66637ZM9.74254 3.92758L9.76195 3.9074L9.74254 3.88878L9.72318 3.9074L9.74254 3.92758ZM7.23121 6.34099L7.2118 6.32082L7.19082 6.34099L7.2118 6.36117L7.23121 6.34099ZM7.99999 7.07979L7.98058 7.09997L7.99999 7.11859L8.01935 7.09997L7.99999 7.07979ZM7.99999 5.60219L8.01935 5.58201L7.99999 5.56339L7.98058 5.58201L7.99999 5.60219ZM8.76878 6.34099L8.78813 6.36117L8.80911 6.34099L8.78813 6.32082L8.76878 6.34099ZM8.66623 4.9619L8.68564 4.94172L8.66623 4.9231L8.64688 4.94172L8.66623 4.9619ZM8.30752 5.30667L8.28811 5.28649L8.26713 5.30667L8.28811 5.32685L8.30752 5.30667ZM11.1776 7.37531L11.197 7.39549L11.218 7.37531L11.197 7.35514L11.1776 7.37531ZM10.8188 7.7201L10.7995 7.74024L10.8188 7.75888L10.8382 7.74024L10.8188 7.7201ZM5.48864 8.06486L5.46926 8.04466L5.44826 8.06486L5.46926 8.08506L5.48864 8.06486ZM6.25739 7.32606L6.27681 7.30589L6.25739 7.28726L6.23804 7.30589L6.25739 7.32606ZM6.25739 8.80369L6.23804 8.82384L6.25739 8.84247L6.27681 8.82384L6.25739 8.80369ZM7.02618 8.06486L7.04559 8.08506L7.06657 8.06486L7.04559 8.04466L7.02618 8.06486ZM6.87244 9.34543L6.85309 9.36563L6.87244 9.38427L6.8918 9.36563L6.87244 9.34543ZM6.56492 9.04991L6.54556 9.02977L6.52458 9.04991L6.54556 9.07011L6.56492 9.04991ZM9.38377 6.93203L9.40318 6.95221L9.42416 6.93203L9.40318 6.91186L9.38377 6.93203ZM9.0763 6.63651L9.09566 6.61634L9.0763 6.59771L9.05689 6.61634L9.0763 6.63651ZM9.74254 7.32606L9.76195 7.30589L9.74254 7.28726L9.72318 7.30589L9.74254 7.32606ZM10.5113 8.06486L10.5307 8.08506L10.5517 8.06486L10.5307 8.04466L10.5113 8.06486ZM8.97376 8.06486L8.9544 8.04466L8.93342 8.06486L8.9544 8.08506L8.97376 8.06486ZM9.74254 8.80369L9.72318 8.82384L9.74254 8.84247L9.76195 8.82384L9.74254 8.80369ZM10.4088 9.39473L10.3894 9.41488L10.4088 9.43351L10.4282 9.41488L10.4088 9.39473ZM10.0501 9.04991L10.0307 9.02977L10.0097 9.04991L10.0307 9.07011L10.0501 9.04991ZM13.2789 6.63651L13.2983 6.61634L13.2789 6.59771L13.2596 6.61634L13.2789 6.63651ZM14.6628 7.96637L14.6821 7.98652L14.7031 7.96637L14.6821 7.94617L14.6628 7.96637ZM13.2789 9.29619L13.2596 9.31639L13.2789 9.33503L13.2983 9.31639L13.2789 9.29619ZM12.2026 8.26189L12.222 8.24169L12.2026 8.22306L12.1833 8.24169L12.2026 8.26189ZM11.7926 8.6559L11.7733 8.6357L11.7523 8.6559L11.7733 8.6761L11.7926 8.6559ZM13.2277 10.035L13.2083 10.0552L13.2277 10.0738L13.247 10.0552L13.2277 10.035ZM15.329 8.01562L15.3484 8.03576L15.3694 8.01562L15.3484 7.99542L15.329 8.01562ZM13.2277 5.99622L13.247 5.97604L13.2277 5.95742L13.2083 5.97604L13.2277 5.99622ZM13.2789 7.32606L13.2983 7.30589L13.2789 7.28726L13.2596 7.30589L13.2789 7.32606ZM13.9965 8.01562L14.0158 8.03576L14.0369 8.01562L14.0158 7.99542L13.9965 8.01562ZM12.5101 8.06486L12.4908 8.04466L12.4698 8.06486L12.4908 8.08506L12.5101 8.06486ZM13.2277 8.75439L13.2083 8.77459L13.2277 8.79323L13.247 8.77459L13.2277 8.75439ZM8.66623 8.31114L8.68564 8.29094L8.66623 8.27236L8.64688 8.29094L8.66623 8.31114ZM8.30752 8.6559L8.28811 8.6357L8.26713 8.6559L8.28811 8.6761L8.30752 8.6559ZM11.8439 11.3648L11.8633 11.385L11.8842 11.3648L11.8633 11.3447L11.8439 11.3648ZM9.74254 13.3842L9.72318 13.4044L9.74254 13.423L9.76195 13.4044L9.74254 13.3842ZM8.30752 12.0051L8.28811 11.985L8.26713 12.0051L8.28811 12.0253L8.30752 12.0051ZM8.66623 11.6604L8.68564 11.6402L8.66623 11.6216L8.64688 11.6402L8.66623 11.6604ZM9.74254 12.6947L9.72318 12.7149L9.74254 12.7335L9.76195 12.7149L9.74254 12.6947ZM11.1264 11.3648L11.1457 11.385L11.1667 11.3648L11.1457 11.3447L11.1264 11.3648ZM8.97376 11.3648L8.9544 11.3447L8.93342 11.3648L8.9544 11.385L8.97376 11.3648ZM9.74254 10.6261L9.76195 10.6059L9.74254 10.5872L9.72318 10.6059L9.74254 10.6261ZM9.74254 12.1037L9.72318 12.1238L9.74254 12.1424L9.76195 12.1238L9.74254 12.1037ZM10.5113 11.3648L10.5307 11.385L10.5517 11.3648L10.5307 11.3447L10.5113 11.3648ZM9.0763 9.98572L9.09566 9.96557L9.0763 9.94694L9.05689 9.96557L9.0763 9.98572ZM6.25739 12.6947L6.23804 12.7149L6.25739 12.7335L6.27681 12.7149L6.25739 12.6947ZM9.43502 10.3305L9.45443 10.3507L9.47541 10.3305L9.45443 10.3103L9.43502 10.3305ZM6.25739 13.3842L6.23804 13.4044L6.25739 13.423L6.27681 13.4044L6.25739 13.3842ZM4.15608 11.3648L4.13671 11.3447L4.11571 11.3648L4.13671 11.385L4.15608 11.3648ZM5.59114 9.98572L5.61051 9.96557L5.59114 9.94694L5.57176 9.96557L5.59114 9.98572ZM5.94992 10.3305L5.96928 10.3507L5.99026 10.3305L5.96928 10.3103L5.94992 10.3305ZM4.87361 11.3648L4.85423 11.3447L4.83324 11.3648L4.85423 11.385L4.87361 11.3648ZM5.48864 11.3648L5.46926 11.3447L5.44826 11.3648L5.46926 11.385L5.48864 11.3648ZM6.25739 12.1037L6.23804 12.1238L6.25739 12.1424L6.27681 12.1238L6.25739 12.1037ZM6.25739 10.6261L6.27681 10.6059L6.25739 10.5872L6.23804 10.6059L6.25739 10.6261ZM7.02618 11.3648L7.04559 11.385L7.06657 11.3648L7.04559 11.3447L7.02618 11.3648ZM7.99999 8.95142L8.01935 8.93122L7.99999 8.91264L7.98058 8.93122L7.99999 8.95142ZM7.23121 9.6902L7.2118 9.67005L7.19082 9.6902L7.2118 9.7104L7.23121 9.6902ZM8.76878 9.6902L8.78813 9.7104L8.80911 9.6902L8.78813 9.67005L8.76878 9.6902ZM7.99999 10.429L7.98058 10.4492L7.99999 10.4678L8.01935 10.4492L7.99999 10.429ZM4.77111 8.6559L4.75173 8.6357L4.73074 8.6559L4.75173 8.6761L4.77111 8.6559ZM5.12987 8.31114L5.14925 8.29094L5.12987 8.27236L5.11049 8.29094L5.12987 8.31114ZM7.3337 11.1186L7.31434 11.1388L7.3337 11.1574L7.35311 11.1388L7.3337 11.1186ZM7.69247 10.7738L7.71183 10.794L7.73286 10.7738L7.71183 10.7537L7.69247 10.7738ZM4.1561 7.37532L4.17548 7.3955L4.19648 7.37532L4.17548 7.35515L4.1561 7.37532ZM3.79734 7.7201L3.77796 7.7403L3.79734 7.75888L3.81672 7.7403L3.79734 7.7201ZM2.72105 5.99622L2.74043 5.97605L2.72105 5.95742L2.70167 5.97605L2.72105 5.99622ZM0.619715 8.01562L0.600336 7.99542L0.57934 8.01562L0.600336 8.03582L0.619715 8.01562ZM2.72105 10.035L2.70167 10.0552L2.72105 10.0738L2.74043 10.0552L2.72105 10.035ZM5.89868 6.98129L5.91804 7.00147L5.93902 6.98129L5.91804 6.96112L5.89868 6.98129ZM5.59116 6.68577L5.61051 6.6656L5.59116 6.64697L5.57178 6.6656L5.59116 6.68577ZM2.7723 9.39473L2.75292 9.41488L2.7723 9.43351L2.79168 9.41488L2.7723 9.39473ZM1.33724 8.01562L1.31786 7.99542L1.29687 8.01562L1.31786 8.03582L1.33724 8.01562ZM2.72105 6.68577L2.74043 6.6656L2.72105 6.64697L2.70167 6.6656L2.72105 6.68577ZM3.54107 8.01562L3.56045 8.03582L3.58145 8.01562L3.56045 7.99542L3.54107 8.01562ZM2.72105 8.80369L2.70167 8.82384L2.72105 8.84247L2.74043 8.82384L2.72105 8.80369ZM2.72105 7.22756L2.74043 7.20739L2.72105 7.18876L2.70167 7.20739L2.72105 7.22756ZM1.90101 8.01562L1.88163 7.99542L1.86064 8.01562L1.88163 8.03582L1.90101 8.01562ZM2.70166 5.47462L4.44423 7.14923L4.48299 7.10888L2.74042 5.43426L2.70166 5.47462ZM0.0753183 8.03582L2.74042 5.47462L2.70166 5.43426L0.0365594 7.99542L0.0753183 8.03582ZM2.74042 10.5566L0.0753183 7.99542L0.0365594 8.03582L2.70166 10.597L2.74042 10.5566ZM4.44423 8.88198L2.70166 10.5566L2.74042 10.597L4.48299 8.92238L4.44423 8.88198ZM5.30302 9.67005L4.48299 8.88198L4.44423 8.92238L5.26426 9.7104L5.30302 9.67005ZM3.56045 11.385L5.30302 9.7104L5.26426 9.67005L3.5217 11.3447L3.56045 11.385ZM6.27681 13.9551L3.56045 11.3447L3.5217 11.385L6.23804 13.9955L6.27681 13.9551ZM7.98064 12.2805L6.23804 13.9551L6.27681 13.9955L8.01935 12.3208L7.98064 12.2805ZM9.76195 13.9551L8.01935 12.2805L7.98064 12.3208L9.72318 13.9955L9.76195 13.9551ZM12.4395 11.3447L9.72318 13.9551L9.76195 13.9955L12.4783 11.385L12.4395 11.3447ZM10.6969 9.7104L12.4395 11.385L12.4783 11.3447L10.7357 9.67005L10.6969 9.7104ZM11.517 8.88198L10.6969 9.67005L10.7357 9.7104L11.5557 8.92238L11.517 8.88198ZM13.2983 10.5566L11.5557 8.88198L11.517 8.92238L13.2596 10.597L13.2983 10.5566ZM15.9247 7.99542L13.2596 10.5566L13.2983 10.597L15.9634 8.03582L15.9247 7.99542ZM13.2596 5.47462L15.9247 8.03582L15.9634 7.99542L13.2983 5.43426L13.2596 5.47462ZM11.5557 7.14923L13.2983 5.47462L13.2596 5.43426L11.517 7.10888L11.5557 7.14923ZM10.6969 6.36117L11.517 7.14923L11.5557 7.10888L10.7357 6.32082L10.6969 6.36117ZM12.4395 4.64621L10.6969 6.32082L10.7357 6.36117L12.4783 4.68656L12.4395 4.64621ZM9.72318 2.07613L12.4395 4.68656L12.4783 4.64621L9.76195 2.03577L9.72318 2.07613ZM8.01935 3.75075L9.76195 2.07613L9.72318 2.03577L7.98064 3.71039L8.01935 3.75075ZM6.23804 2.07613L7.98064 3.75075L8.01935 3.71039L6.27681 2.03577L6.23804 2.07613ZM3.56045 4.68656L6.27681 2.07613L6.23804 2.03577L3.5217 4.64621L3.56045 4.68656ZM5.30302 6.32082L3.56045 4.64621L3.5217 4.68656L5.26426 6.36117L5.30302 6.32082ZM4.48299 7.14923L5.30302 6.36117L5.26426 6.32082L4.44423 7.10888L4.48299 7.14923ZM6.23804 2.66716L7.67311 4.04626L7.71183 4.0059L6.27681 2.62681L6.23804 2.66716ZM4.12421 4.73581L6.27681 2.66716L6.23804 2.62681L4.08545 4.69545L4.12421 4.73581ZM7.35311 7.79844L4.12421 4.69545L4.08545 4.73581L7.31434 7.83879L7.35311 7.79844ZM7.67311 7.45365L7.31434 7.79844L7.35311 7.83879L7.71183 7.494L7.67311 7.45365ZM4.80298 4.73581L7.67311 7.494L7.71183 7.45365L4.84174 4.69545L4.80298 4.73581ZM6.23804 3.31636L4.80298 4.69545L4.84174 4.73581L6.27681 3.35671L6.23804 3.31636ZM7.35311 4.35068L6.27681 3.31636L6.23804 3.35671L7.31434 4.39103L7.35311 4.35068ZM7.67311 4.0059L7.31434 4.35068L7.35311 4.39103L7.71183 4.04626L7.67311 4.0059ZM6.23804 3.95665L5.46926 4.69545L5.50802 4.73581L6.27681 3.99701L6.23804 3.95665ZM7.04559 4.69545L6.27681 3.95665L6.23804 3.99701L7.00682 4.73581L7.04559 4.69545ZM6.27681 5.47461L7.04559 4.73581L7.00682 4.69545L6.23804 5.43425L6.27681 5.47461ZM5.46926 4.73581L6.23804 5.47461L6.27681 5.43425L5.50802 4.69545L5.46926 4.73581ZM6.54556 5.72088L6.85309 6.0164L6.8918 5.97604L6.58433 5.68052L6.54556 5.72088ZM9.72318 2.62681L6.54556 5.68052L6.58433 5.72088L9.76195 2.66716L9.72318 2.62681ZM11.8633 4.6462L9.76195 2.62681L9.72318 2.66716L11.8245 4.68655L11.8633 4.6462ZM10.4282 6.06565L11.8633 4.68655L11.8245 4.6462L10.3894 6.0253L10.4282 6.06565ZM10.0307 5.72088L10.3894 6.06565L10.4282 6.0253L10.0694 5.68052L10.0307 5.72088ZM11.1582 4.59695L10.0307 5.68052L10.0694 5.72088L11.197 4.6373L11.1582 4.59695ZM9.72318 3.2582L11.1582 4.6373L11.197 4.59695L9.76195 3.21785L9.72318 3.2582ZM6.8918 6.0164L9.76195 3.2582L9.72318 3.21785L6.85309 5.97604L6.8918 6.0164ZM9.76195 5.385L8.99317 4.6462L8.9544 4.68655L9.72318 5.42536L9.76195 5.385ZM10.492 4.6462L9.72318 5.385L9.76195 5.42536L10.5307 4.68655L10.492 4.6462ZM9.72318 3.94775L10.492 4.68655L10.5307 4.6462L9.76195 3.9074L9.72318 3.94775ZM8.99317 4.68655L9.76195 3.94775L9.72318 3.9074L8.9544 4.6462L8.99317 4.68655ZM7.2118 6.36117L7.98058 7.09997L8.01935 7.05962L7.25057 6.32082L7.2118 6.36117ZM7.98058 5.58201L7.2118 6.32082L7.25057 6.36117L8.01935 5.62237L7.98058 5.58201ZM8.78813 6.32082L8.01935 5.58201L7.98058 5.62237L8.74937 6.36117L8.78813 6.32082ZM8.01935 7.09997L8.78813 6.36117L8.74937 6.32082L7.98058 7.05962L8.01935 7.09997ZM8.64688 4.94172L8.28811 5.28649L8.32688 5.32685L8.68564 4.98207L8.64688 4.94172ZM11.197 7.35514L8.68564 4.94172L8.64688 4.98207L11.1582 7.39549L11.197 7.35514ZM10.8382 7.74024L11.197 7.39549L11.1582 7.35514L10.7995 7.69989L10.8382 7.74024ZM8.28811 5.32685L10.7995 7.74024L10.8382 7.69989L8.32688 5.28649L8.28811 5.32685ZM5.50802 8.08506L6.27681 7.34624L6.23804 7.30589L5.46926 8.04466L5.50802 8.08506ZM6.27681 8.78349L5.50802 8.04466L5.46926 8.08506L6.23804 8.82384L6.27681 8.78349ZM7.00682 8.04466L6.23804 8.78349L6.27681 8.82384L7.04559 8.08506L7.00682 8.04466ZM6.23804 7.34624L7.00682 8.08506L7.04559 8.04466L6.27681 7.30589L6.23804 7.34624ZM6.8918 9.32529L6.58433 9.02977L6.54556 9.07011L6.85309 9.36563L6.8918 9.32529ZM9.36441 6.91186L6.85309 9.32529L6.8918 9.36563L9.40318 6.95221L9.36441 6.91186ZM9.05689 6.65669L9.36441 6.95221L9.40318 6.91186L9.09566 6.61634L9.05689 6.65669ZM6.58433 9.07011L9.09566 6.65669L9.05689 6.61634L6.54556 9.02977L6.58433 9.07011ZM9.72318 7.34624L10.492 8.08506L10.5307 8.04466L9.76195 7.30589L9.72318 7.34624ZM8.99317 8.08506L9.76195 7.34624L9.72318 7.30589L8.9544 8.04466L8.99317 8.08506ZM9.76195 8.78349L8.99317 8.04466L8.9544 8.08506L9.72318 8.82384L9.76195 8.78349ZM10.492 8.04466L9.72318 8.78349L9.76195 8.82384L10.5307 8.08506L10.492 8.04466ZM10.4282 9.37453L10.0694 9.02977L10.0307 9.07011L10.3894 9.41488L10.4282 9.37453ZM13.2596 6.61634L10.3894 9.37453L10.4282 9.41488L13.2983 6.65669L13.2596 6.61634ZM14.6821 7.94617L13.2983 6.61634L13.2596 6.65669L14.6434 7.98652L14.6821 7.94617ZM13.2983 9.31639L14.6821 7.98652L14.6434 7.94617L13.2596 9.27604L13.2983 9.31639ZM12.1833 8.28204L13.2596 9.31639L13.2983 9.27604L12.222 8.24169L12.1833 8.28204ZM11.812 8.6761L12.222 8.28204L12.1833 8.24169L11.7733 8.6357L11.812 8.6761ZM13.247 10.0148L11.812 8.6357L11.7733 8.6761L13.2083 10.0552L13.247 10.0148ZM15.3096 7.99542L13.2083 10.0148L13.247 10.0552L15.3484 8.03576L15.3096 7.99542ZM13.2083 6.0164L15.3096 8.03576L15.3484 7.99542L13.247 5.97604L13.2083 6.0164ZM10.0694 9.07011L13.247 6.0164L13.2083 5.97604L10.0307 9.02977L10.0694 9.07011ZM13.2596 7.34624L13.9771 8.03576L14.0158 7.99542L13.2983 7.30589L13.2596 7.34624ZM12.5296 8.08506L13.2983 7.34624L13.2596 7.30589L12.4908 8.04466L12.5296 8.08506ZM13.247 8.73425L12.5296 8.04466L12.4908 8.08506L13.2083 8.77459L13.247 8.73425ZM13.9771 7.99542L13.2083 8.73425L13.247 8.77459L14.0158 8.03576L13.9771 7.99542ZM8.64688 8.29094L8.28811 8.6357L8.32688 8.6761L8.68564 8.33128L8.64688 8.29094ZM11.8633 11.3447L8.68564 8.29094L8.64688 8.33128L11.8245 11.385L11.8633 11.3447ZM9.76195 13.4044L11.8633 11.385L11.8245 11.3447L9.72318 13.364L9.76195 13.4044ZM8.28811 12.0253L9.72318 13.4044L9.76195 13.364L8.32688 11.985L8.28811 12.0253ZM8.64688 11.6402L8.28811 11.985L8.32688 12.0253L8.68564 11.6806L8.64688 11.6402ZM9.76195 12.6745L8.68564 11.6402L8.64688 11.6806L9.72318 12.7149L9.76195 12.6745ZM11.107 11.3447L9.72318 12.6745L9.76195 12.7149L11.1457 11.385L11.107 11.3447ZM8.28811 8.6761L11.107 11.385L11.1457 11.3447L8.32688 8.6357L8.28811 8.6761ZM8.99317 11.385L9.76195 10.6462L9.72318 10.6059L8.9544 11.3447L8.99317 11.385ZM9.76195 12.0835L8.99317 11.3447L8.9544 11.385L9.72318 12.1238L9.76195 12.0835ZM10.492 11.3447L9.72318 12.0835L9.76195 12.1238L10.5307 11.385L10.492 11.3447ZM9.72318 10.6462L10.492 11.385L10.5307 11.3447L9.76195 10.6059L9.72318 10.6462ZM9.05689 9.96557L6.23804 12.6745L6.27681 12.7149L9.09566 10.0059L9.05689 9.96557ZM9.45443 10.3103L9.09566 9.96557L9.05689 10.0059L9.41566 10.3507L9.45443 10.3103ZM6.27681 13.4044L9.45443 10.3507L9.41566 10.3103L6.23804 13.364L6.27681 13.4044ZM4.13671 11.385L6.23804 13.4044L6.27681 13.364L4.17546 11.3447L4.13671 11.385ZM5.57176 9.96557L4.13671 11.3447L4.17546 11.385L5.61051 10.0059L5.57176 9.96557ZM5.96928 10.3103L5.61051 9.96557L5.57176 10.0059L5.93051 10.3507L5.96928 10.3103ZM4.89299 11.385L5.96928 10.3507L5.93051 10.3103L4.85423 11.3447L4.89299 11.385ZM6.27681 12.6745L4.89299 11.3447L4.85423 11.385L6.23804 12.7149L6.27681 12.6745ZM5.46926 11.385L6.23804 12.1238L6.27681 12.0835L5.50802 11.3447L5.46926 11.385ZM6.23804 10.6059L5.46926 11.3447L5.50802 11.385L6.27681 10.6462L6.23804 10.6059ZM7.04559 11.3447L6.27681 10.6059L6.23804 10.6462L7.00682 11.385L7.04559 11.3447ZM6.27681 12.1238L7.04559 11.385L7.00682 11.3447L6.23804 12.0835L6.27681 12.1238ZM7.98058 8.93122L7.2118 9.67005L7.25057 9.7104L8.01935 8.97163L7.98058 8.93122ZM8.78813 9.67005L8.01935 8.93122L7.98058 8.97163L8.74937 9.7104L8.78813 9.67005ZM8.01935 10.4492L8.78813 9.7104L8.74937 9.67005L7.98058 10.4088L8.01935 10.4492ZM7.2118 9.7104L7.98058 10.4492L8.01935 10.4088L7.25057 9.67005L7.2118 9.7104ZM4.79049 8.6761L5.14925 8.33128L5.11049 8.29094L4.75173 8.6357L4.79049 8.6761ZM7.35311 11.0984L4.79049 8.6357L4.75173 8.6761L7.31434 11.1388L7.35311 11.0984ZM7.67311 10.7537L7.31434 11.0984L7.35311 11.1388L7.71183 10.794L7.67311 10.7537ZM5.11049 8.33128L7.67311 10.794L7.71183 10.7537L5.14925 8.29094L5.11049 8.33128ZM4.13672 7.35515L3.77796 7.69989L3.81672 7.7403L4.17548 7.3955L4.13672 7.35515ZM2.70167 6.0164L4.13672 7.3955L4.17548 7.35515L2.74043 5.97605L2.70167 6.0164ZM0.639094 8.03582L2.74043 6.0164L2.70167 5.97605L0.600336 7.99542L0.639094 8.03582ZM2.74043 10.0148L0.639094 7.99542L0.600336 8.03582L2.70167 10.0552L2.74043 10.0148ZM5.87927 6.96112L2.70167 10.0148L2.74043 10.0552L5.91804 7.00147L5.87927 6.96112ZM5.57178 6.70595L5.87927 7.00147L5.91804 6.96112L5.61051 6.6656L5.57178 6.70595ZM2.79168 9.41488L5.61051 6.70595L5.57178 6.6656L2.75292 9.37453L2.79168 9.41488ZM1.31786 8.03582L2.75292 9.41488L2.79168 9.37453L1.35662 7.99542L1.31786 8.03582ZM2.70167 6.6656L1.31786 7.99542L1.35662 8.03582L2.74043 6.70595L2.70167 6.6656ZM3.81672 7.69989L2.74043 6.6656L2.70167 6.70595L3.77796 7.7403L3.81672 7.69989ZM3.5217 7.99542L2.70167 8.78349L2.74043 8.82384L3.56045 8.03582L3.5217 7.99542ZM2.70167 7.24774L3.5217 8.03582L3.56045 7.99542L2.74043 7.20739L2.70167 7.24774ZM1.92039 8.03582L2.74043 7.24774L2.70167 7.20739L1.88163 7.99542L1.92039 8.03582ZM2.74043 8.78349L1.92039 7.99542L1.88163 8.03582L2.70167 8.82384L2.74043 8.78349Z" fill="#E067A7"/>
</g>
</g>
<defs>
<clipPath id="clip0_3_21">
<rect width="16" height="16" fill="white"/>
</clipPath>
<clipPath id="clip1_3_21">
<rect width="16" height="12.0312" fill="white" transform="translate(0 2)"/>
</clipPath>
</defs>
</svg>
