<svg width="128" height="128" viewBox="0 0 128 128" fill="none" xmlns="http://www.w3.org/2000/svg">
<g clip-path="url(#clip0_3_16)">
<g clip-path="url(#clip1_3_16)">
<path fill-rule="evenodd" clip-rule="evenodd" d="M35.7089 57.0325L21.7684 43.6356L0.447556 64.125L21.7684 84.6146L35.7089 71.2175L42.2692 77.5221L28.3286 90.9188L50.0596 111.802L64 98.4052L77.9404 111.802L99.6713 90.9188L85.7309 77.5221L92.2911 71.2175L106.231 84.6146L127.552 64.125L106.231 43.6356L92.2911 57.0325L85.7309 50.7281L99.6713 37.3312L77.9404 16.4477L64 29.8446L50.0596 16.4477L28.3286 37.3312L42.2692 50.7281L35.7089 57.0325ZM61.5398 32.2087L50.0592 21.176L32.8387 37.7251L58.6697 62.5488L61.5398 59.7907L38.5789 37.7251L50.0592 26.6924L58.6697 34.9669L61.5398 32.2087ZM43.9091 37.7251L50.0592 31.8147L56.2095 37.7251L50.0592 43.6355L43.9091 37.7251ZM54.9796 47.9698L52.5194 45.6057L77.9404 21.176L94.7509 37.3311L83.2707 48.3639L80.4006 45.6057L89.421 36.9371L77.9404 25.9043L54.9796 47.9698ZM71.7901 37.3311L77.9404 43.2415L84.0906 37.3311L77.9404 31.4207L71.7901 37.3311ZM64 56.6384L57.8497 50.728L64 44.8176L70.1503 50.728L64 56.6384ZM66.4602 42.4535L69.3299 39.6952L89.421 59.0026L86.5508 61.7609L66.4602 42.4535ZM50.0592 58.6086L43.9091 64.519L50.0592 70.4296L56.2095 64.519L50.0592 58.6086ZM52.5194 72.3994L54.9796 74.7636L75.0702 55.4563L72.6105 53.0922L52.5194 72.3994ZM84.0906 64.519L77.9404 58.6086L71.7901 64.519L77.9404 70.4296L84.0906 64.519ZM80.4006 72.3994L83.2707 75.158L106.231 53.0922L117.302 63.7311L106.231 74.3696L97.621 66.0952L94.3409 69.2473L105.822 80.2802L122.632 64.125L105.822 47.9698L80.4006 72.3994ZM111.972 64.125L106.231 58.6086L100.081 64.519L105.822 70.0352L111.972 64.125ZM66.4602 69.2473L69.3299 66.4892L94.7509 90.9188L77.9404 107.074L66.4602 96.0411L69.3299 93.283L77.9404 101.558L89.011 90.9188L66.4602 69.2473ZM77.9404 85.0086L71.7901 90.9188L77.9404 96.8294L84.0906 90.9188L77.9404 85.0086ZM50.0592 101.558L72.6105 79.8858L75.4802 82.6444L50.0592 107.074L33.2487 90.9188L44.7292 79.8858L47.5994 82.6444L38.9889 90.9188L50.0592 101.558ZM50.0592 96.8294L43.9091 90.9188L50.0592 85.0086L56.2095 90.9188L50.0592 96.8294ZM57.8497 77.5217L64 71.6115L70.1503 77.5217L64 83.4323L57.8497 77.5217ZM41.039 66.4892L38.1689 69.2473L58.6697 88.9486L61.5398 86.1904L41.039 66.4892ZM30.3787 61.7609L33.2489 59.0026L21.7684 47.9699L4.95777 64.125L21.7684 80.2802L47.1895 55.8504L44.7293 53.4863L22.1784 75.158L10.698 64.125L21.7684 53.4863L30.3787 61.7609ZM21.7684 70.4296L28.3286 64.125L21.7684 57.8206L15.2081 64.125L21.7684 70.4296Z" fill="#E067A7"/>
<path d="M21.7684 43.6356L21.9234 43.4741L21.7684 43.3251L21.6133 43.4741L21.7684 43.6356ZM35.7089 57.0325L35.5539 57.1939L35.7089 57.3429L35.8639 57.1939L35.7089 57.0325ZM0.447555 64.125L0.292521 63.9634L0.124557 64.125L0.292521 64.2866L0.447555 64.125ZM21.7684 84.6146L21.6133 84.7758L21.7684 84.9248L21.9234 84.7758L21.7684 84.6146ZM35.7089 71.2175L35.8639 71.0559L35.7089 70.9073L35.5539 71.0559L35.7089 71.2175ZM42.2692 77.5221L42.4242 77.6833L42.5922 77.5221L42.4242 77.3605L42.2692 77.5221ZM28.3286 90.9188L28.1736 90.7576L28.0056 90.9188L28.1736 91.0804L28.3286 90.9188ZM50.0596 111.802L49.9043 111.964L50.0596 112.113L50.2145 111.964L50.0596 111.802ZM64 98.4052L64.1549 98.2441L64 98.095L63.8452 98.2441L64 98.4052ZM77.9404 111.802L77.7855 111.964L77.9404 112.113L78.0957 111.964L77.9404 111.802ZM99.6713 90.9188L99.8266 91.0804L99.9944 90.9188L99.8266 90.7576L99.6713 90.9188ZM85.7309 77.5221L85.5756 77.3605L85.4078 77.5221L85.5756 77.6833L85.7309 77.5221ZM92.2911 71.2175L92.446 71.0559L92.2911 70.9073L92.1363 71.0559L92.2911 71.2175ZM106.231 84.6146L106.077 84.7758L106.231 84.9248L106.387 84.7758L106.231 84.6146ZM127.552 64.125L127.707 64.2866L127.876 64.125L127.707 63.9634L127.552 64.125ZM106.231 43.6356L106.387 43.4741L106.231 43.3251L106.077 43.4741L106.231 43.6356ZM92.2911 57.0325L92.1363 57.1939L92.2911 57.3429L92.446 57.1939L92.2911 57.0325ZM85.7309 50.7281L85.5756 50.5666L85.4078 50.7281L85.5756 50.8895L85.7309 50.7281ZM99.6713 37.3311L99.8266 37.4925L99.9944 37.3311L99.8266 37.1697L99.6713 37.3311ZM77.9404 16.4477L78.0957 16.2863L77.9404 16.1373L77.7855 16.2863L77.9404 16.4477ZM64 29.8446L63.8452 30.006L64 30.155L64.1549 30.006L64 29.8446ZM50.0596 16.4477L50.2145 16.2863L50.0596 16.1373L49.9043 16.2863L50.0596 16.4477ZM28.3286 37.3311L28.1736 37.1697L28.0056 37.3311L28.1736 37.4925L28.3286 37.3311ZM42.2692 50.7281L42.4242 50.8895L42.5922 50.7281L42.4242 50.5666L42.2692 50.7281ZM50.0592 21.176L50.2145 21.0145L50.0592 20.8655L49.9043 21.0145L50.0592 21.176ZM61.5398 32.2087L61.6947 32.3701L61.8629 32.2087L61.6947 32.0473L61.5398 32.2087ZM32.8387 37.7251L32.6837 37.5637L32.5157 37.7251L32.6837 37.8865L32.8387 37.7251ZM58.6696 62.5487L58.5148 62.7103L58.6696 62.8594L58.825 62.7103L58.6696 62.5487ZM61.5398 59.7907L61.6947 59.952L61.8629 59.7907L61.6947 59.6292L61.5398 59.7907ZM38.5789 37.7251L38.4239 37.5637L38.2559 37.7251L38.4239 37.8865L38.5789 37.7251ZM50.0592 26.6923L50.2145 26.5309L50.0592 26.3819L49.9043 26.5309L50.0592 26.6923ZM58.6696 34.9669L58.5148 35.1283L58.6696 35.2773L58.825 35.1283L58.6696 34.9669ZM50.0592 31.8147L50.2145 31.6533L50.0592 31.5043L49.9043 31.6533L50.0592 31.8147ZM43.9091 37.7251L43.7541 37.5637L43.5862 37.7251L43.7541 37.8865L43.9091 37.7251ZM56.2095 37.7251L56.3648 37.8865L56.5326 37.7251L56.3648 37.5637L56.2095 37.7251ZM50.0592 43.6355L49.9043 43.7969L50.0592 43.9459L50.2145 43.7969L50.0592 43.6355ZM52.5194 45.6056L52.3645 45.4442L52.1967 45.6056L52.3645 45.7671L52.5194 45.6056ZM54.9796 47.9698L54.8247 48.1312L54.9796 48.2802L55.1344 48.1312L54.9796 47.9698ZM77.9404 21.176L78.0957 21.0145L77.9404 20.8655L77.7855 21.0145L77.9404 21.176ZM94.7509 37.3311L94.9062 37.4925L95.074 37.3311L94.9062 37.1697L94.7509 37.3311ZM83.2707 48.3639L83.1154 48.5252L83.2707 48.6742L83.4256 48.5252L83.2707 48.3639ZM80.4006 45.6056L80.2457 45.4442L80.0774 45.6056L80.2457 45.7671L80.4006 45.6056ZM89.421 36.9371L89.5758 37.0984L89.7441 36.9371L89.5758 36.7756L89.421 36.9371ZM77.9404 25.9043L78.0957 25.7429L77.9404 25.5939L77.7855 25.7429L77.9404 25.9043ZM77.9404 43.2415L77.7855 43.4029L77.9404 43.5519L78.0957 43.4029L77.9404 43.2415ZM71.7901 37.3311L71.6352 37.1697L71.4674 37.3311L71.6352 37.4925L71.7901 37.3311ZM84.0906 37.3311L84.2459 37.4925L84.4138 37.3311L84.2459 37.1697L84.0906 37.3311ZM77.9404 31.4207L78.0957 31.2592L77.9404 31.1103L77.7855 31.2592L77.9404 31.4207ZM57.8497 50.728L57.6944 50.5666L57.5266 50.728L57.6944 50.8894L57.8497 50.728ZM64 56.6384L63.8447 56.7998L64 56.9488L64.1549 56.7998L64 56.6384ZM64 44.8176L64.1549 44.6562L64 44.5072L63.8447 44.6562L64 44.8176ZM70.1503 50.728L70.3051 50.8894L70.473 50.728L70.3051 50.5666L70.1503 50.728ZM69.3299 39.6952L69.4852 39.5338L69.3299 39.3849L69.1751 39.5338L69.3299 39.6952ZM66.4602 42.4534L66.3049 42.292L66.1371 42.4534L66.3049 42.6148L66.4602 42.4534ZM89.421 59.0026L89.5758 59.164L89.7441 59.0026L89.5758 58.8412L89.421 59.0026ZM86.5508 61.7608L86.396 61.922L86.5508 62.0711L86.7057 61.922L86.5508 61.7608ZM43.9091 64.5189L43.7541 64.3573L43.5862 64.5189L43.7541 64.6806L43.9091 64.5189ZM50.0592 58.6086L50.2145 58.4471L50.0592 58.2982L49.9043 58.4471L50.0592 58.6086ZM50.0592 70.4296L49.9043 70.5908L50.0592 70.7398L50.2145 70.5908L50.0592 70.4296ZM56.2095 64.5189L56.3648 64.6806L56.5326 64.5189L56.3648 64.3573L56.2095 64.5189ZM54.9796 74.7635L54.8247 74.9251L54.9796 75.0742L55.1344 74.9251L54.9796 74.7635ZM52.5194 72.3994L52.3645 72.2382L52.1967 72.3994L52.3645 72.561L52.5194 72.3994ZM75.0702 55.4563L75.2255 55.6178L75.3933 55.4563L75.2255 55.2949L75.0702 55.4563ZM72.6105 53.0922L72.7653 52.9308L72.6105 52.7818L72.4552 52.9308L72.6105 53.0922ZM77.9404 58.6086L78.0957 58.4471L77.9404 58.2982L77.7855 58.4471L77.9404 58.6086ZM84.0906 64.5189L84.2459 64.6806L84.4138 64.5189L84.2459 64.3573L84.0906 64.5189ZM71.7901 64.5189L71.6352 64.3573L71.4674 64.5189L71.6352 64.6806L71.7901 64.5189ZM77.9404 70.4296L77.7855 70.5908L77.9404 70.7398L78.0957 70.5908L77.9404 70.4296ZM83.2707 75.1579L83.1154 75.3191L83.2707 75.4682L83.4256 75.3191L83.2707 75.1579ZM80.4006 72.3994L80.2457 72.2382L80.0774 72.3994L80.2457 72.561L80.4006 72.3994ZM106.231 53.0922L106.387 52.9308L106.231 52.7818L106.077 52.9308L106.231 53.0922ZM117.302 63.731L117.457 63.8922L117.625 63.731L117.457 63.5694L117.302 63.731ZM106.231 74.3696L106.077 74.5312L106.231 74.6803L106.387 74.5312L106.231 74.3696ZM97.621 66.0952L97.7763 65.9336L97.621 65.7845L97.4662 65.9336L97.621 66.0952ZM94.3409 69.2473L94.1861 69.0857L94.0182 69.2473L94.1861 69.4089L94.3409 69.2473ZM105.822 80.2802L105.667 80.4414L105.822 80.5905L105.976 80.4414L105.822 80.2802ZM122.632 64.125L122.787 64.2862L122.955 64.125L122.787 63.9634L122.632 64.125ZM105.822 47.9698L105.976 47.8084L105.822 47.6594L105.667 47.8084L105.822 47.9698ZM106.231 58.6086L106.387 58.4471L106.231 58.2982L106.077 58.4471L106.231 58.6086ZM111.972 64.125L112.127 64.2862L112.295 64.125L112.127 63.9634L111.972 64.125ZM100.081 64.5189L99.9264 64.3573L99.7581 64.5189L99.9264 64.6806L100.081 64.5189ZM105.822 70.0352L105.667 70.1968L105.822 70.3459L105.976 70.1968L105.822 70.0352ZM69.3299 66.4892L69.4852 66.3276L69.3299 66.1789L69.1751 66.3276L69.3299 66.4892ZM66.4602 69.2473L66.3049 69.0857L66.1371 69.2473L66.3049 69.4089L66.4602 69.2473ZM94.7509 90.9188L94.9062 91.0804L95.074 90.9188L94.9062 90.7576L94.7509 90.9188ZM77.9404 107.074L77.7855 107.235L77.9404 107.384L78.0957 107.235L77.9404 107.074ZM66.4602 96.041L66.3049 95.8799L66.1371 96.041L66.3049 96.2027L66.4602 96.041ZM69.3299 93.2829L69.4852 93.1218L69.3299 92.9727L69.1751 93.1218L69.3299 93.2829ZM77.9404 101.558L77.7855 101.719L77.9404 101.868L78.0957 101.719L77.9404 101.558ZM89.011 90.9188L89.1659 91.0804L89.3337 90.9188L89.1659 90.7576L89.011 90.9188ZM71.7901 90.9188L71.6352 90.7576L71.4674 90.9188L71.6352 91.0804L71.7901 90.9188ZM77.9404 85.0086L78.0957 84.8469L77.9404 84.6979L77.7855 84.8469L77.9404 85.0086ZM77.9404 96.8294L77.7855 96.9906L77.9404 97.1396L78.0957 96.9906L77.9404 96.8294ZM84.0906 90.9188L84.2459 91.0804L84.4138 90.9188L84.2459 90.7576L84.0906 90.9188ZM72.6105 79.8858L72.7653 79.7247L72.6105 79.5756L72.4552 79.7247L72.6105 79.8858ZM50.0592 101.558L49.9043 101.719L50.0592 101.868L50.2145 101.719L50.0592 101.558ZM75.4802 82.6444L75.6355 82.8056L75.8033 82.6444L75.6355 82.4828L75.4802 82.6444ZM50.0592 107.074L49.9043 107.235L50.0592 107.384L50.2145 107.235L50.0592 107.074ZM33.2487 90.9188L33.0937 90.7576L32.9257 90.9188L33.0937 91.0804L33.2487 90.9188ZM44.7292 79.8858L44.8841 79.7247L44.7292 79.5756L44.5741 79.7247L44.7292 79.8858ZM47.5994 82.6444L47.7543 82.8056L47.9221 82.6444L47.7543 82.4828L47.5994 82.6444ZM38.9889 90.9188L38.8339 90.7576L38.6659 90.9188L38.8339 91.0804L38.9889 90.9188ZM43.9091 90.9188L43.7541 90.7576L43.5862 90.9188L43.7541 91.0804L43.9091 90.9188ZM50.0592 96.8294L49.9043 96.9906L50.0592 97.1396L50.2145 96.9906L50.0592 96.8294ZM50.0592 85.0086L50.2145 84.8469L50.0592 84.6979L49.9043 84.8469L50.0592 85.0086ZM56.2095 90.9188L56.3648 91.0804L56.5326 90.9188L56.3648 90.7576L56.2095 90.9188ZM64 71.6115L64.1549 71.4498L64 71.3012L63.8447 71.4498L64 71.6115ZM57.8497 77.5217L57.6944 77.3605L57.5266 77.5217L57.6944 77.6833L57.8497 77.5217ZM70.1503 77.5217L70.3051 77.6833L70.473 77.5217L70.3051 77.3605L70.1503 77.5217ZM64 83.4323L63.8447 83.5939L64 83.7425L64.1549 83.5939L64 83.4323ZM38.1689 69.2473L38.0139 69.0857L37.8459 69.2473L38.0139 69.4089L38.1689 69.2473ZM41.039 66.4892L41.1941 66.3276L41.039 66.1789L40.884 66.3276L41.039 66.4892ZM58.6696 88.9485L58.5148 89.1102L58.6696 89.2592L58.825 89.1102L58.6696 88.9485ZM61.5398 86.1904L61.6947 86.352L61.8629 86.1904L61.6947 86.0293L61.5398 86.1904ZM33.2489 59.0026L33.4039 59.164L33.5719 59.0026L33.4039 58.8412L33.2489 59.0026ZM30.3787 61.7608L30.2237 61.9224L30.3787 62.0711L30.5338 61.9224L30.3787 61.7608ZM21.7684 47.9699L21.9234 47.8084L21.7684 47.6594L21.6134 47.8084L21.7684 47.9699ZM4.95777 64.125L4.80273 63.9634L4.63477 64.125L4.80273 64.2866L4.95777 64.125ZM21.7684 80.2802L21.6134 80.4414L21.7684 80.5905L21.9234 80.4414L21.7684 80.2802ZM47.1895 55.8504L47.3443 56.0118L47.5122 55.8504L47.3443 55.689L47.1895 55.8504ZM44.7293 53.4862L44.8841 53.3249L44.7293 53.1758L44.5743 53.3249L44.7293 53.4862ZM22.1784 75.1579L22.0234 75.3191L22.1784 75.4682L22.3335 75.3191L22.1784 75.1579ZM10.698 64.125L10.543 63.9634L10.375 64.125L10.543 64.2866L10.698 64.125ZM21.7684 53.4862L21.9234 53.3249L21.7684 53.1758L21.6134 53.3249L21.7684 53.4862ZM28.3286 64.125L28.4837 64.2866L28.6516 64.125L28.4837 63.9634L28.3286 64.125ZM21.7684 70.4296L21.6134 70.5908L21.7684 70.7398L21.9234 70.5908L21.7684 70.4296ZM21.7684 57.8205L21.9234 57.6591L21.7684 57.5102L21.6134 57.6591L21.7684 57.8205ZM15.2081 64.125L15.0531 63.9634L14.8851 64.125L15.0531 64.2866L15.2081 64.125ZM21.6133 43.797L35.5539 57.1939L35.8639 56.8711L21.9234 43.4741L21.6133 43.797ZM0.602592 64.2866L21.9234 43.797L21.6133 43.4741L0.292521 63.9634L0.602592 64.2866ZM21.9234 84.453L0.602592 63.9634L0.292521 64.2866L21.6133 84.7758L21.9234 84.453ZM35.5539 71.0559L21.6133 84.453L21.9234 84.7758L35.8639 71.3791L35.5539 71.0559ZM42.4242 77.3605L35.8639 71.0559L35.5539 71.3791L42.1141 77.6833L42.4242 77.3605ZM28.4837 91.0804L42.4242 77.6833L42.1141 77.3605L28.1736 90.7576L28.4837 91.0804ZM50.2145 111.641L28.4837 90.7576L28.1736 91.0804L49.9043 111.964L50.2145 111.641ZM63.8452 98.2441L49.9043 111.641L50.2145 111.964L64.1549 98.5668L63.8452 98.2441ZM78.0957 111.641L64.1549 98.2441L63.8452 98.5668L77.7855 111.964L78.0957 111.641ZM99.5164 90.7576L77.7855 111.641L78.0957 111.964L99.8266 91.0804L99.5164 90.7576ZM85.5756 77.6833L99.5164 91.0804L99.8266 90.7576L85.8858 77.3605L85.5756 77.6833ZM92.1363 71.0559L85.5756 77.3605L85.8858 77.6833L92.446 71.3791L92.1363 71.0559ZM106.387 84.453L92.446 71.0559L92.1363 71.3791L106.077 84.7758L106.387 84.453ZM127.398 63.9634L106.077 84.453L106.387 84.7758L127.707 64.2866L127.398 63.9634ZM106.077 43.797L127.398 64.2866L127.707 63.9634L106.387 43.4741L106.077 43.797ZM92.446 57.1939L106.387 43.797L106.077 43.4741L92.1363 56.8711L92.446 57.1939ZM85.5756 50.8895L92.1363 57.1939L92.446 56.8711L85.8858 50.5666L85.5756 50.8895ZM99.5164 37.1697L85.5756 50.5666L85.8858 50.8895L99.8266 37.4925L99.5164 37.1697ZM77.7855 16.6091L99.5164 37.4925L99.8266 37.1697L78.0957 16.2863L77.7855 16.6091ZM64.1549 30.006L78.0957 16.6091L77.7855 16.2863L63.8452 29.6832L64.1549 30.006ZM49.9043 16.6091L63.8452 30.006L64.1549 29.6832L50.2145 16.2863L49.9043 16.6091ZM28.4837 37.4925L50.2145 16.6091L49.9043 16.2863L28.1736 37.1697L28.4837 37.4925ZM42.4242 50.5666L28.4837 37.1697L28.1736 37.4925L42.1141 50.8895L42.4242 50.5666ZM35.8639 57.1939L42.4242 50.8895L42.1141 50.5666L35.5539 56.8711L35.8639 57.1939ZM49.9043 21.3374L61.385 32.3701L61.6947 32.0473L50.2145 21.0145L49.9043 21.3374ZM32.9937 37.8865L50.2145 21.3374L49.9043 21.0145L32.6837 37.5637L32.9937 37.8865ZM58.825 62.3876L32.9937 37.5637L32.6837 37.8865L58.5148 62.7103L58.825 62.3876ZM61.385 59.6292L58.5148 62.3876L58.825 62.7103L61.6947 59.952L61.385 59.6292ZM38.4239 37.8865L61.385 59.952L61.6947 59.6292L38.734 37.5637L38.4239 37.8865ZM49.9043 26.5309L38.4239 37.5637L38.734 37.8865L50.2145 26.8537L49.9043 26.5309ZM58.825 34.8055L50.2145 26.5309L49.9043 26.8537L58.5148 35.1283L58.825 34.8055ZM61.385 32.0473L58.5148 34.8055L58.825 35.1283L61.6947 32.3701L61.385 32.0473ZM49.9043 31.6533L43.7541 37.5637L44.0642 37.8865L50.2145 31.9761L49.9043 31.6533ZM56.3648 37.5637L50.2145 31.6533L49.9043 31.9761L56.0546 37.8865L56.3648 37.5637ZM50.2145 43.7969L56.3648 37.8865L56.0546 37.5637L49.9043 43.4741L50.2145 43.7969ZM43.7541 37.8865L49.9043 43.7969L50.2145 43.4741L44.0642 37.5637L43.7541 37.8865ZM52.3645 45.7671L54.8247 48.1312L55.1344 47.8084L52.6747 45.4442L52.3645 45.7671ZM77.7855 21.0145L52.3645 45.4442L52.6747 45.7671L78.0957 21.3374L77.7855 21.0145ZM94.9062 37.1697L78.0957 21.0145L77.7855 21.3374L94.596 37.4925L94.9062 37.1697ZM83.4256 48.5252L94.9062 37.4925L94.596 37.1697L83.1154 48.2024L83.4256 48.5252ZM80.2457 45.7671L83.1154 48.5252L83.4256 48.2024L80.5554 45.4442L80.2457 45.7671ZM89.2657 36.7756L80.2457 45.4442L80.5554 45.7671L89.5758 37.0984L89.2657 36.7756ZM77.7855 26.0657L89.2657 37.0984L89.5758 36.7756L78.0957 25.7429L77.7855 26.0657ZM55.1344 48.1312L78.0957 26.0657L77.7855 25.7429L54.8247 47.8084L55.1344 48.1312ZM78.0957 43.0801L71.9454 37.1697L71.6352 37.4925L77.7855 43.4029L78.0957 43.0801ZM83.9358 37.1697L77.7855 43.0801L78.0957 43.4029L84.2459 37.4925L83.9358 37.1697ZM77.7855 31.5821L83.9358 37.4925L84.2459 37.1697L78.0957 31.2592L77.7855 31.5821ZM71.9454 37.4925L78.0957 31.5821L77.7855 31.2592L71.6352 37.1697L71.9454 37.4925ZM57.6944 50.8894L63.8447 56.7998L64.1549 56.477L58.0046 50.5666L57.6944 50.8894ZM63.8447 44.6562L57.6944 50.5666L58.0046 50.8894L64.1549 44.979L63.8447 44.6562ZM70.3051 50.5666L64.1549 44.6562L63.8447 44.979L69.995 50.8894L70.3051 50.5666ZM64.1549 56.7998L70.3051 50.8894L69.995 50.5666L63.8447 56.477L64.1549 56.7998ZM69.1751 39.5338L66.3049 42.292L66.6151 42.6148L69.4852 39.8567L69.1751 39.5338ZM89.5758 58.8412L69.4852 39.5338L69.1751 39.8567L89.2657 59.164L89.5758 58.8412ZM86.7057 61.922L89.5758 59.164L89.2657 58.8412L86.396 61.5992L86.7057 61.922ZM66.3049 42.6148L86.396 61.922L86.7057 61.5992L66.6151 42.292L66.3049 42.6148ZM44.0642 64.6806L50.2145 58.77L49.9043 58.4471L43.7541 64.3573L44.0642 64.6806ZM50.2145 70.268L44.0642 64.3573L43.7541 64.6806L49.9043 70.5908L50.2145 70.268ZM56.0546 64.3573L49.9043 70.268L50.2145 70.5908L56.3648 64.6806L56.0546 64.3573ZM49.9043 58.77L56.0546 64.6806L56.3648 64.3573L50.2145 58.4471L49.9043 58.77ZM55.1344 74.6024L52.6747 72.2382L52.3645 72.561L54.8247 74.9251L55.1344 74.6024ZM74.9154 55.2949L54.8247 74.6024L55.1344 74.9251L75.2255 55.6178L74.9154 55.2949ZM72.4552 53.2536L74.9154 55.6178L75.2255 55.2949L72.7653 52.9308L72.4552 53.2536ZM52.6747 72.561L72.7653 53.2536L72.4552 52.9308L52.3645 72.2382L52.6747 72.561ZM77.7855 58.77L83.9358 64.6806L84.2459 64.3573L78.0957 58.4471L77.7855 58.77ZM71.9454 64.6806L78.0957 58.77L77.7855 58.4471L71.6352 64.3573L71.9454 64.6806ZM78.0957 70.268L71.9454 64.3573L71.6352 64.6806L77.7855 70.5908L78.0957 70.268ZM83.9358 64.3573L77.7855 70.268L78.0957 70.5908L84.2459 64.6806L83.9358 64.3573ZM83.4256 74.9963L80.5554 72.2382L80.2457 72.561L83.1154 75.3191L83.4256 74.9963ZM106.077 52.9308L83.1154 74.9963L83.4256 75.3191L106.387 53.2536L106.077 52.9308ZM117.457 63.5694L106.387 52.9308L106.077 53.2536L117.147 63.8922L117.457 63.5694ZM106.387 74.5312L117.457 63.8922L117.147 63.5694L106.077 74.2084L106.387 74.5312ZM97.4662 66.2564L106.077 74.5312L106.387 74.2084L97.7763 65.9336L97.4662 66.2564ZM94.4962 69.4089L97.7763 66.2564L97.4662 65.9336L94.1861 69.0857L94.4962 69.4089ZM105.976 80.1186L94.4962 69.0857L94.1861 69.4089L105.667 80.4414L105.976 80.1186ZM122.477 63.9634L105.667 80.1186L105.976 80.4414L122.787 64.2862L122.477 63.9634ZM105.667 48.1312L122.477 64.2862L122.787 63.9634L105.976 47.8084L105.667 48.1312ZM80.5554 72.561L105.976 48.1312L105.667 47.8084L80.2457 72.2382L80.5554 72.561ZM106.077 58.77L111.817 64.2862L112.127 63.9634L106.387 58.4471L106.077 58.77ZM100.237 64.6806L106.387 58.77L106.077 58.4471L99.9264 64.3573L100.237 64.6806ZM105.976 69.874L100.237 64.3573L99.9264 64.6806L105.667 70.1968L105.976 69.874ZM111.817 63.9634L105.667 69.874L105.976 70.1968L112.127 64.2862L111.817 63.9634ZM69.1751 66.3276L66.3049 69.0857L66.6151 69.4089L69.4852 66.6503L69.1751 66.3276ZM94.9062 90.7576L69.4852 66.3276L69.1751 66.6503L94.596 91.0804L94.9062 90.7576ZM78.0957 107.235L94.9062 91.0804L94.596 90.7576L77.7855 106.912L78.0957 107.235ZM66.3049 96.2027L77.7855 107.235L78.0957 106.912L66.6151 95.8799L66.3049 96.2027ZM69.1751 93.1218L66.3049 95.8799L66.6151 96.2027L69.4852 93.4445L69.1751 93.1218ZM78.0957 101.396L69.4852 93.1218L69.1751 93.4445L77.7855 101.719L78.0957 101.396ZM88.8557 90.7576L77.7855 101.396L78.0957 101.719L89.1659 91.0804L88.8557 90.7576ZM66.3049 69.4089L88.8557 91.0804L89.1659 90.7576L66.6151 69.0857L66.3049 69.4089ZM71.9454 91.0804L78.0957 85.1697L77.7855 84.8469L71.6352 90.7576L71.9454 91.0804ZM78.0957 96.6678L71.9454 90.7576L71.6352 91.0804L77.7855 96.9906L78.0957 96.6678ZM83.9358 90.7576L77.7855 96.6678L78.0957 96.9906L84.2459 91.0804L83.9358 90.7576ZM77.7855 85.1697L83.9358 91.0804L84.2459 90.7576L78.0957 84.8469L77.7855 85.1697ZM72.4552 79.7247L49.9043 101.396L50.2145 101.719L72.7653 80.0474L72.4552 79.7247ZM75.6355 82.4828L72.7653 79.7247L72.4552 80.0474L75.3253 82.8056L75.6355 82.4828ZM50.2145 107.235L75.6355 82.8056L75.3253 82.4828L49.9043 106.912L50.2145 107.235ZM33.0937 91.0804L49.9043 107.235L50.2145 106.912L33.4037 90.7576L33.0937 91.0804ZM44.5741 79.7247L33.0937 90.7576L33.4037 91.0804L44.8841 80.0474L44.5741 79.7247ZM47.7543 82.4828L44.8841 79.7247L44.5741 80.0474L47.4441 82.8056L47.7543 82.4828ZM39.144 91.0804L47.7543 82.8056L47.4441 82.4828L38.8339 90.7576L39.144 91.0804ZM50.2145 101.396L39.144 90.7576L38.8339 91.0804L49.9043 101.719L50.2145 101.396ZM43.7541 91.0804L49.9043 96.9906L50.2145 96.6678L44.0642 90.7576L43.7541 91.0804ZM49.9043 84.8469L43.7541 90.7576L44.0642 91.0804L50.2145 85.1697L49.9043 84.8469ZM56.3648 90.7576L50.2145 84.8469L49.9043 85.1697L56.0546 91.0804L56.3648 90.7576ZM50.2145 96.9906L56.3648 91.0804L56.0546 90.7576L49.9043 96.6678L50.2145 96.9906ZM63.8447 71.4498L57.6944 77.3605L58.0046 77.6833L64.1549 71.7731L63.8447 71.4498ZM70.3051 77.3605L64.1549 71.4498L63.8447 71.7731L69.995 77.6833L70.3051 77.3605ZM64.1549 83.5939L70.3051 77.6833L69.995 77.3605L63.8447 83.2707L64.1549 83.5939ZM57.6944 77.6833L63.8447 83.5939L64.1549 83.2707L58.0046 77.3605L57.6944 77.6833ZM38.324 69.4089L41.1941 66.6503L40.884 66.3276L38.0139 69.0857L38.324 69.4089ZM58.825 88.7874L38.324 69.0857L38.0139 69.4089L58.5148 89.1102L58.825 88.7874ZM61.385 86.0293L58.5148 88.7874L58.825 89.1102L61.6947 86.352L61.385 86.0293ZM40.884 66.6503L61.385 86.352L61.6947 86.0293L41.1941 66.3276L40.884 66.6503ZM33.0938 58.8412L30.2237 61.5992L30.5338 61.9224L33.4039 59.164L33.0938 58.8412ZM21.6134 48.1313L33.0938 59.164L33.4039 58.8412L21.9234 47.8084L21.6134 48.1313ZM5.1128 64.2866L21.9234 48.1313L21.6134 47.8084L4.80273 63.9634L5.1128 64.2866ZM21.9234 80.1186L5.1128 63.9634L4.80273 64.2866L21.6134 80.4414L21.9234 80.1186ZM47.0342 55.689L21.6134 80.1186L21.9234 80.4414L47.3443 56.0118L47.0342 55.689ZM44.5743 53.6477L47.0342 56.0118L47.3443 55.689L44.8841 53.3249L44.5743 53.6477ZM22.3335 75.3191L44.8841 53.6477L44.5743 53.3249L22.0234 74.9963L22.3335 75.3191ZM10.543 64.2866L22.0234 75.3191L22.3335 74.9963L10.853 63.9634L10.543 64.2866ZM21.6134 53.3249L10.543 63.9634L10.853 64.2866L21.9234 53.6477L21.6134 53.3249ZM30.5338 61.5992L21.9234 53.3249L21.6134 53.6477L30.2237 61.9224L30.5338 61.5992ZM28.1736 63.9634L21.6134 70.268L21.9234 70.5908L28.4837 64.2866L28.1736 63.9634ZM21.6134 57.982L28.1736 64.2866L28.4837 63.9634L21.9234 57.6591L21.6134 57.982ZM15.3632 64.2866L21.9234 57.982L21.6134 57.6591L15.0531 63.9634L15.3632 64.2866ZM21.9234 70.268L15.3632 63.9634L15.0531 64.2866L21.6134 70.5908L21.9234 70.268Z" fill="#E067A7"/>
</g>
</g>
<defs>
<clipPath id="clip0_3_16">
<rect width="128" height="128" fill="white"/>
</clipPath>
<clipPath id="clip1_3_16">
<rect width="128" height="96.25" fill="white" transform="translate(0 16)"/>
</clipPath>
</defs>
</svg>
