<svg width="32" height="32" viewBox="0 0 32 32" fill="none" xmlns="http://www.w3.org/2000/svg">
<g clip-path="url(#clip0_3_20)">
<g clip-path="url(#clip1_3_20)">
<path fill-rule="evenodd" clip-rule="evenodd" d="M8.92723 14.2581L5.44209 10.9089L0.111885 16.0313L5.44209 21.1537L8.92723 17.8044L10.5673 19.3805L7.08216 22.7297L12.5149 27.9506L16 24.6013L19.4851 27.9506L24.9178 22.7297L21.4327 19.3805L23.0728 17.8044L26.5579 21.1537L31.8881 16.0313L26.5579 10.9089L23.0728 14.2581L21.4327 12.682L24.9178 9.33281L19.4851 4.11194L16 7.46117L12.5149 4.11194L7.08216 9.33281L10.5673 12.682L8.92723 14.2581ZM15.3849 8.0522L12.5148 5.29401L8.20968 9.4313L14.6674 15.6372L15.3849 14.9477L9.64473 9.4313L12.5148 6.67311L14.6674 8.74174L15.3849 8.0522ZM10.9773 9.4313L12.5148 7.95369L14.0524 9.4313L12.5148 10.9089L10.9773 9.4313ZM13.7449 11.9925L13.1298 11.4014L19.4851 5.29401L23.6877 9.33278L20.8177 12.091L20.1001 11.4014L22.3552 9.23429L19.4851 6.47608L13.7449 11.9925ZM17.9475 9.33278L19.4851 10.8104L21.0227 9.33278L19.4851 7.85519L17.9475 9.33278ZM16 14.1596L14.4624 12.682L16 11.2044L17.5376 12.682L16 14.1596ZM16.615 10.6134L17.3325 9.92383L22.3552 14.7507L21.6377 15.4402L16.615 10.6134ZM12.5148 14.6522L10.9773 16.1298L12.5148 17.6074L14.0524 16.1298L12.5148 14.6522ZM13.1298 18.0999L13.7449 18.6909L18.7675 13.8641L18.1526 13.2731L13.1298 18.0999ZM21.0227 16.1298L19.4851 14.6522L17.9475 16.1298L19.4851 17.6074L21.0227 16.1298ZM20.1001 18.0999L20.8177 18.7895L26.5579 13.2731L29.3255 15.9328L26.5579 18.5924L24.4053 16.5238L23.5852 17.3118L26.4554 20.0701L30.658 16.0313L26.4554 11.9925L20.1001 18.0999ZM27.9929 16.0313L26.5579 14.6522L25.0203 16.1298L26.4554 17.5088L27.9929 16.0313ZM16.615 17.3118L17.3325 16.6223L23.6877 22.7297L19.4851 26.7685L16.615 24.0103L17.3325 23.3208L19.4851 25.3895L22.2528 22.7297L16.615 17.3118ZM19.4851 21.2522L17.9475 22.7297L19.4851 24.2074L21.0227 22.7297L19.4851 21.2522ZM12.5148 25.3895L18.1526 19.9715L18.87 20.6611L12.5148 26.7685L8.31218 22.7297L11.1823 19.9715L11.8999 20.6611L9.74723 22.7297L12.5148 25.3895ZM12.5148 24.2074L10.9773 22.7297L12.5148 21.2522L14.0524 22.7297L12.5148 24.2074ZM14.4624 19.3804L16 17.9029L17.5376 19.3804L16 20.8581L14.4624 19.3804ZM10.2598 16.6223L9.54223 17.3118L14.6674 22.2372L15.3849 21.5476L10.2598 16.6223ZM7.59468 15.4402L8.31221 14.7507L5.4421 11.9925L1.23944 16.0313L5.4421 20.0701L11.7974 13.9626L11.1823 13.3716L5.5446 18.7895L2.67449 16.0313L5.4421 13.3716L7.59468 15.4402ZM5.4421 17.6074L7.08216 16.0313L5.4421 14.4552L3.80203 16.0313L5.4421 17.6074Z" fill="#E067A7"/>
<path d="M5.44209 10.9089L5.48085 10.8685L5.44209 10.8313L5.40333 10.8685L5.44209 10.9089ZM8.92722 14.2581L8.88847 14.2985L8.92722 14.3357L8.96598 14.2985L8.92722 14.2581ZM0.111885 16.0312L0.0731264 15.9908L0.0311356 16.0312L0.0731264 16.0716L0.111885 16.0312ZM5.44209 21.1536L5.40333 21.1939L5.44209 21.2312L5.48085 21.1939L5.44209 21.1536ZM8.92722 17.8044L8.96598 17.764L8.92722 17.7268L8.88847 17.764L8.92722 17.8044ZM10.5673 19.3805L10.606 19.4208L10.648 19.3805L10.606 19.3401L10.5673 19.3805ZM7.08216 22.7297L7.0434 22.6894L7.00141 22.7297L7.0434 22.7701L7.08216 22.7297ZM12.5149 27.9506L12.4761 27.991L12.5149 28.0281L12.5536 27.991L12.5149 27.9506ZM16 24.6013L16.0387 24.561L16 24.5237L15.9613 24.561L16 24.6013ZM19.4851 27.9506L19.4464 27.991L19.4851 28.0281L19.5239 27.991L19.4851 27.9506ZM24.9178 22.7297L24.9566 22.7701L24.9986 22.7297L24.9566 22.6894L24.9178 22.7297ZM21.4327 19.3805L21.3939 19.3401L21.3519 19.3805L21.3939 19.4208L21.4327 19.3805ZM23.0728 17.8044L23.1115 17.764L23.0728 17.7268L23.0341 17.764L23.0728 17.8044ZM26.5579 21.1536L26.5192 21.1939L26.5579 21.2312L26.5967 21.1939L26.5579 21.1536ZM31.8881 16.0312L31.9268 16.0716L31.9689 16.0312L31.9268 15.9908L31.8881 16.0312ZM26.5579 10.9089L26.5967 10.8685L26.5579 10.8313L26.5192 10.8685L26.5579 10.9089ZM23.0728 14.2581L23.0341 14.2985L23.0728 14.3357L23.1115 14.2985L23.0728 14.2581ZM21.4327 12.682L21.3939 12.6416L21.3519 12.682L21.3939 12.7223L21.4327 12.682ZM24.9178 9.33277L24.9566 9.37312L24.9986 9.33277L24.9566 9.29241L24.9178 9.33277ZM19.4851 4.1119L19.5239 4.07155L19.4851 4.0343L19.4464 4.07155L19.4851 4.1119ZM16 7.46113L15.9613 7.50149L16 7.53874L16.0387 7.50149L16 7.46113ZM12.5149 4.1119L12.5536 4.07155L12.5149 4.0343L12.4761 4.07155L12.5149 4.1119ZM7.08216 9.33277L7.0434 9.29241L7.00141 9.33277L7.0434 9.37312L7.08216 9.33277ZM10.5673 12.682L10.606 12.7223L10.648 12.682L10.606 12.6416L10.5673 12.682ZM12.5148 5.29398L12.5536 5.25362L12.5148 5.21637L12.4761 5.25362L12.5148 5.29398ZM15.3849 8.05216L15.4237 8.09251L15.4657 8.05216L15.4237 8.01181L15.3849 8.05216ZM8.20967 9.43126L8.17092 9.3909L8.12892 9.43126L8.17092 9.47162L8.20967 9.43126ZM14.6674 15.6372L14.6287 15.6776L14.6674 15.7148L14.7062 15.6776L14.6674 15.6372ZM15.3849 14.9476L15.4237 14.988L15.4657 14.9476L15.4237 14.9073L15.3849 14.9476ZM9.64473 9.43126L9.60597 9.3909L9.56398 9.43126L9.60597 9.47162L9.64473 9.43126ZM12.5148 6.67307L12.5536 6.63271L12.5148 6.59547L12.4761 6.63271L12.5148 6.67307ZM14.6674 8.74171L14.6287 8.78206L14.6674 8.81931L14.7062 8.78206L14.6674 8.74171ZM12.5148 7.95365L12.5536 7.91331L12.5148 7.87605L12.4761 7.91331L12.5148 7.95365ZM10.9773 9.43126L10.9385 9.3909L10.8965 9.43126L10.9385 9.47162L10.9773 9.43126ZM14.0524 9.43126L14.0912 9.47162L14.1331 9.43126L14.0912 9.3909L14.0524 9.43126ZM12.5148 10.9089L12.4761 10.9492L12.5148 10.9865L12.5536 10.9492L12.5148 10.9089ZM13.1298 11.4014L13.0911 11.361L13.0492 11.4014L13.0911 11.4418L13.1298 11.4014ZM13.7449 11.9924L13.7062 12.0328L13.7449 12.07L13.7836 12.0328L13.7449 11.9924ZM19.4851 5.29398L19.5239 5.25362L19.4851 5.21637L19.4464 5.25362L19.4851 5.29398ZM23.6877 9.33275L23.7265 9.37311L23.7685 9.33275L23.7265 9.2924L23.6877 9.33275ZM20.8177 12.0909L20.7788 12.1313L20.8177 12.1685L20.8564 12.1313L20.8177 12.0909ZM20.1001 11.4014L20.0614 11.361L20.0194 11.4014L20.0614 11.4418L20.1001 11.4014ZM22.3552 9.23425L22.394 9.2746L22.436 9.23425L22.394 9.19389L22.3552 9.23425ZM19.4851 6.47605L19.5239 6.4357L19.4851 6.39846L19.4464 6.4357L19.4851 6.47605ZM19.4851 10.8104L19.4464 10.8507L19.4851 10.888L19.5239 10.8507L19.4851 10.8104ZM17.9475 9.33275L17.9088 9.2924L17.8668 9.33275L17.9088 9.37311L17.9475 9.33275ZM21.0227 9.33275L21.0615 9.37311L21.1034 9.33275L21.0615 9.2924L21.0227 9.33275ZM19.4851 7.85515L19.5239 7.8148L19.4851 7.77755L19.4464 7.8148L19.4851 7.85515ZM14.4624 12.682L14.4236 12.6416L14.3816 12.682L14.4236 12.7223L14.4624 12.682ZM16 14.1596L15.9612 14.1999L16 14.2372L16.0387 14.1999L16 14.1596ZM16 11.2044L16.0387 11.164L16 11.1268L15.9612 11.164L16 11.2044ZM17.5376 12.682L17.5763 12.7223L17.6182 12.682L17.5763 12.6416L17.5376 12.682ZM17.3325 9.92379L17.3713 9.88344L17.3325 9.8462L17.2938 9.88344L17.3325 9.92379ZM16.615 10.6133L16.5762 10.573L16.5343 10.6133L16.5762 10.6537L16.615 10.6133ZM22.3552 14.7506L22.394 14.791L22.436 14.7506L22.394 14.7103L22.3552 14.7506ZM21.6377 15.4402L21.599 15.4805L21.6377 15.5178L21.6764 15.4805L21.6377 15.4402ZM10.9773 16.1297L10.9385 16.0893L10.8965 16.1297L10.9385 16.1701L10.9773 16.1297ZM12.5148 14.6521L12.5536 14.6118L12.5148 14.5745L12.4761 14.6118L12.5148 14.6521ZM12.5148 17.6074L12.4761 17.6477L12.5148 17.6849L12.5536 17.6477L12.5148 17.6074ZM14.0524 16.1297L14.0912 16.1701L14.1331 16.1297L14.0912 16.0893L14.0524 16.1297ZM13.7449 18.6909L13.7062 18.7313L13.7449 18.7685L13.7836 18.7313L13.7449 18.6909ZM13.1298 18.0998L13.0911 18.0595L13.0492 18.0998L13.0911 18.1402L13.1298 18.0998ZM18.7675 13.8641L18.8064 13.9044L18.8483 13.8641L18.8064 13.8237L18.7675 13.8641ZM18.1526 13.273L18.1913 13.2327L18.1526 13.1954L18.1138 13.2327L18.1526 13.273ZM19.4851 14.6521L19.5239 14.6118L19.4851 14.5745L19.4464 14.6118L19.4851 14.6521ZM21.0227 16.1297L21.0615 16.1701L21.1034 16.1297L21.0615 16.0893L21.0227 16.1297ZM17.9475 16.1297L17.9088 16.0893L17.8668 16.1297L17.9088 16.1701L17.9475 16.1297ZM19.4851 17.6074L19.4464 17.6477L19.4851 17.6849L19.5239 17.6477L19.4851 17.6074ZM20.8177 18.7895L20.7788 18.8298L20.8177 18.867L20.8564 18.8298L20.8177 18.7895ZM20.1001 18.0998L20.0614 18.0595L20.0194 18.0998L20.0614 18.1402L20.1001 18.0998ZM26.5579 13.273L26.5967 13.2327L26.5579 13.1954L26.5192 13.2327L26.5579 13.273ZM29.3255 15.9327L29.3642 15.973L29.4062 15.9327L29.3642 15.8923L29.3255 15.9327ZM26.5579 18.5924L26.5192 18.6328L26.5579 18.6701L26.5967 18.6328L26.5579 18.5924ZM24.4053 16.5238L24.4441 16.4834L24.4053 16.4461L24.3665 16.4834L24.4053 16.5238ZM23.5852 17.3118L23.5465 17.2714L23.5046 17.3118L23.5465 17.3522L23.5852 17.3118ZM26.4554 20.07L26.4167 20.1103L26.4554 20.1476L26.4941 20.1103L26.4554 20.07ZM30.658 16.0312L30.6968 16.0715L30.7388 16.0312L30.6968 15.9908L30.658 16.0312ZM26.4554 11.9924L26.4941 11.9521L26.4554 11.9148L26.4167 11.9521L26.4554 11.9924ZM26.5579 14.6521L26.5967 14.6118L26.5579 14.5745L26.5192 14.6118L26.5579 14.6521ZM27.9929 16.0312L28.0317 16.0715L28.0737 16.0312L28.0317 15.9908L27.9929 16.0312ZM25.0203 16.1297L24.9816 16.0893L24.9395 16.1297L24.9816 16.1701L25.0203 16.1297ZM26.4554 17.5088L26.4167 17.5492L26.4554 17.5865L26.4941 17.5492L26.4554 17.5088ZM17.3325 16.6223L17.3713 16.5819L17.3325 16.5447L17.2938 16.5819L17.3325 16.6223ZM16.615 17.3118L16.5762 17.2714L16.5343 17.3118L16.5762 17.3522L16.615 17.3118ZM23.6877 22.7297L23.7265 22.7701L23.7685 22.7297L23.7265 22.6894L23.6877 22.7297ZM19.4851 26.7685L19.4464 26.8088L19.4851 26.846L19.5239 26.8088L19.4851 26.7685ZM16.615 24.0102L16.5762 23.97L16.5343 24.0102L16.5762 24.0507L16.615 24.0102ZM17.3325 23.3207L17.3713 23.2804L17.3325 23.2432L17.2938 23.2804L17.3325 23.3207ZM19.4851 25.3894L19.4464 25.4297L19.4851 25.467L19.5239 25.4297L19.4851 25.3894ZM22.2528 22.7297L22.2915 22.7701L22.3334 22.7297L22.2915 22.6894L22.2528 22.7297ZM17.9475 22.7297L17.9088 22.6894L17.8668 22.7297L17.9088 22.7701L17.9475 22.7297ZM19.4851 21.2521L19.5239 21.2117L19.4851 21.1745L19.4464 21.2117L19.4851 21.2521ZM19.4851 24.2073L19.4464 24.2476L19.4851 24.2849L19.5239 24.2476L19.4851 24.2073ZM21.0227 22.7297L21.0615 22.7701L21.1034 22.7297L21.0615 22.6894L21.0227 22.7297ZM18.1526 19.9714L18.1913 19.9311L18.1526 19.8939L18.1138 19.9311L18.1526 19.9714ZM12.5148 25.3894L12.4761 25.4297L12.5148 25.467L12.5536 25.4297L12.5148 25.3894ZM18.87 20.6611L18.9089 20.7014L18.9508 20.6611L18.9089 20.6207L18.87 20.6611ZM12.5148 26.7685L12.4761 26.8088L12.5148 26.846L12.5536 26.8088L12.5148 26.7685ZM8.31218 22.7297L8.27342 22.6894L8.23143 22.7297L8.27342 22.7701L8.31218 22.7297ZM11.1823 19.9714L11.221 19.9311L11.1823 19.8939L11.1435 19.9311L11.1823 19.9714ZM11.8999 20.6611L11.9386 20.7014L11.9805 20.6611L11.9386 20.6207L11.8999 20.6611ZM9.74723 22.7297L9.70847 22.6894L9.66648 22.7297L9.70847 22.7701L9.74723 22.7297ZM10.9773 22.7297L10.9385 22.6894L10.8965 22.7297L10.9385 22.7701L10.9773 22.7297ZM12.5148 24.2073L12.4761 24.2476L12.5148 24.2849L12.5536 24.2476L12.5148 24.2073ZM12.5148 21.2521L12.5536 21.2117L12.5148 21.1745L12.4761 21.2117L12.5148 21.2521ZM14.0524 22.7297L14.0912 22.7701L14.1331 22.7297L14.0912 22.6894L14.0524 22.7297ZM16 17.9028L16.0387 17.8624L16 17.8253L15.9612 17.8624L16 17.9028ZM14.4624 19.3804L14.4236 19.3401L14.3816 19.3804L14.4236 19.4208L14.4624 19.3804ZM17.5376 19.3804L17.5763 19.4208L17.6182 19.3804L17.5763 19.3401L17.5376 19.3804ZM16 20.8581L15.9612 20.8985L16 20.9356L16.0387 20.8985L16 20.8581ZM9.54223 17.3118L9.50347 17.2714L9.46148 17.3118L9.50347 17.3522L9.54223 17.3118ZM10.2598 16.6223L10.2985 16.5819L10.2598 16.5447L10.221 16.5819L10.2598 16.6223ZM14.6674 22.2371L14.6287 22.2775L14.6674 22.3148L14.7062 22.2775L14.6674 22.2371ZM15.3849 21.5476L15.4237 21.588L15.4657 21.5476L15.4237 21.5073L15.3849 21.5476ZM8.31221 14.7506L8.35097 14.791L8.39296 14.7506L8.35097 14.7103L8.31221 14.7506ZM7.59468 15.4402L7.55592 15.4806L7.59468 15.5178L7.63344 15.4806L7.59468 15.4402ZM5.4421 11.9924L5.48086 11.9521L5.4421 11.9148L5.40334 11.9521L5.4421 11.9924ZM1.23944 16.0312L1.20068 15.9908L1.15869 16.0312L1.20068 16.0716L1.23944 16.0312ZM5.4421 20.07L5.40334 20.1103L5.4421 20.1476L5.48086 20.1103L5.4421 20.07ZM11.7974 13.9626L11.8361 14.0029L11.878 13.9626L11.8361 13.9222L11.7974 13.9626ZM11.1823 13.3715L11.221 13.3312L11.1823 13.2939L11.1436 13.3312L11.1823 13.3715ZM5.5446 18.7895L5.50584 18.8298L5.5446 18.867L5.58336 18.8298L5.5446 18.7895ZM2.67449 16.0312L2.63573 15.9908L2.59374 16.0312L2.63573 16.0716L2.67449 16.0312ZM5.4421 13.3715L5.48086 13.3312L5.4421 13.2939L5.40334 13.3312L5.4421 13.3715ZM7.08216 16.0312L7.12091 16.0716L7.16291 16.0312L7.12091 15.9908L7.08216 16.0312ZM5.4421 17.6074L5.40334 17.6477L5.4421 17.6849L5.48086 17.6477L5.4421 17.6074ZM5.4421 14.4551L5.48086 14.4148L5.4421 14.3775L5.40334 14.4148L5.4421 14.4551ZM3.80203 16.0312L3.76328 15.9908L3.72128 16.0312L3.76328 16.0716L3.80203 16.0312ZM5.40333 10.9492L8.88847 14.2985L8.96598 14.2178L5.48085 10.8685L5.40333 10.9492ZM0.150644 16.0716L5.48085 10.9492L5.40333 10.8685L0.0731264 15.9908L0.150644 16.0716ZM5.48085 21.1132L0.150644 15.9908L0.0731264 16.0716L5.40333 21.1939L5.48085 21.1132ZM8.88847 17.764L5.40333 21.1132L5.48085 21.1939L8.96598 17.8448L8.88847 17.764ZM10.606 19.3401L8.96598 17.764L8.88847 17.8448L10.5285 19.4208L10.606 19.3401ZM7.12091 22.7701L10.606 19.4208L10.5285 19.3401L7.0434 22.6894L7.12091 22.7701ZM12.5536 27.9102L7.12091 22.6894L7.0434 22.7701L12.4761 27.991L12.5536 27.9102ZM15.9613 24.561L12.4761 27.9102L12.5536 27.991L16.0387 24.6417L15.9613 24.561ZM19.5239 27.9102L16.0387 24.561L15.9613 24.6417L19.4464 27.991L19.5239 27.9102ZM24.8791 22.6894L19.4464 27.9102L19.5239 27.991L24.9566 22.7701L24.8791 22.6894ZM21.3939 19.4208L24.8791 22.7701L24.9566 22.6894L21.4714 19.3401L21.3939 19.4208ZM23.0341 17.764L21.3939 19.3401L21.4714 19.4208L23.1115 17.8448L23.0341 17.764ZM26.5967 21.1132L23.1115 17.764L23.0341 17.8448L26.5192 21.1939L26.5967 21.1132ZM31.8494 15.9908L26.5192 21.1132L26.5967 21.1939L31.9268 16.0716L31.8494 15.9908ZM26.5192 10.9492L31.8494 16.0716L31.9268 15.9908L26.5967 10.8685L26.5192 10.9492ZM23.1115 14.2985L26.5967 10.9492L26.5192 10.8685L23.0341 14.2178L23.1115 14.2985ZM21.3939 12.7223L23.0341 14.2985L23.1115 14.2178L21.4714 12.6416L21.3939 12.7223ZM24.8791 9.29241L21.3939 12.6416L21.4714 12.7223L24.9566 9.37312L24.8791 9.29241ZM19.4464 4.15226L24.8791 9.37312L24.9566 9.29241L19.5239 4.07155L19.4464 4.15226ZM16.0387 7.50149L19.5239 4.15226L19.4464 4.07155L15.9613 7.42079L16.0387 7.50149ZM12.4761 4.15226L15.9613 7.50149L16.0387 7.42079L12.5536 4.07155L12.4761 4.15226ZM7.12091 9.37312L12.5536 4.15226L12.4761 4.07155L7.0434 9.29241L7.12091 9.37312ZM10.606 12.6416L7.12091 9.29241L7.0434 9.37312L10.5285 12.7223L10.606 12.6416ZM8.96598 14.2985L10.606 12.7223L10.5285 12.6416L8.88847 14.2178L8.96598 14.2985ZM12.4761 5.33432L15.3462 8.09251L15.4237 8.01181L12.5536 5.25362L12.4761 5.33432ZM8.24843 9.47162L12.5536 5.33432L12.4761 5.25362L8.17092 9.3909L8.24843 9.47162ZM14.7062 15.5969L8.24843 9.3909L8.17092 9.47162L14.6287 15.6776L14.7062 15.5969ZM15.3462 14.9073L14.6287 15.5969L14.7062 15.6776L15.4237 14.988L15.3462 14.9073ZM9.60597 9.47162L15.3462 14.988L15.4237 14.9073L9.68349 9.3909L9.60597 9.47162ZM12.4761 6.63271L9.60597 9.3909L9.68349 9.47162L12.5536 6.71342L12.4761 6.63271ZM14.7062 8.70136L12.5536 6.63271L12.4761 6.71342L14.6287 8.78206L14.7062 8.70136ZM15.3462 8.01181L14.6287 8.70136L14.7062 8.78206L15.4237 8.09251L15.3462 8.01181ZM12.4761 7.91331L10.9385 9.3909L11.016 9.47162L12.5536 7.99401L12.4761 7.91331ZM14.0912 9.3909L12.5536 7.91331L12.4761 7.99401L14.0136 9.47162L14.0912 9.3909ZM12.5536 10.9492L14.0912 9.47162L14.0136 9.3909L12.4761 10.8685L12.5536 10.9492ZM10.9385 9.47162L12.4761 10.9492L12.5536 10.8685L11.016 9.3909L10.9385 9.47162ZM13.0911 11.4418L13.7062 12.0328L13.7836 11.9521L13.1687 11.361L13.0911 11.4418ZM19.4464 5.25362L13.0911 11.361L13.1687 11.4418L19.5239 5.33432L19.4464 5.25362ZM23.7265 9.2924L19.5239 5.25362L19.4464 5.33432L23.649 9.37311L23.7265 9.2924ZM20.8564 12.1313L23.7265 9.37311L23.649 9.2924L20.7788 12.0506L20.8564 12.1313ZM20.0614 11.4418L20.7788 12.1313L20.8564 12.0506L20.1388 11.361L20.0614 11.4418ZM22.3164 9.19389L20.0614 11.361L20.1388 11.4418L22.394 9.2746L22.3164 9.19389ZM19.4464 6.51641L22.3164 9.2746L22.394 9.19389L19.5239 6.4357L19.4464 6.51641ZM13.7836 12.0328L19.5239 6.51641L19.4464 6.4357L13.7062 11.9521L13.7836 12.0328ZM19.5239 10.77L17.9863 9.2924L17.9088 9.37311L19.4464 10.8507L19.5239 10.77ZM20.9839 9.2924L19.4464 10.77L19.5239 10.8507L21.0615 9.37311L20.9839 9.2924ZM19.4464 7.8955L20.9839 9.37311L21.0615 9.2924L19.5239 7.8148L19.4464 7.8955ZM17.9863 9.37311L19.5239 7.8955L19.4464 7.8148L17.9088 9.2924L17.9863 9.37311ZM14.4236 12.7223L15.9612 14.1999L16.0387 14.1192L14.5011 12.6416L14.4236 12.7223ZM15.9612 11.164L14.4236 12.6416L14.5011 12.7223L16.0387 11.2447L15.9612 11.164ZM17.5763 12.6416L16.0387 11.164L15.9612 11.2447L17.4987 12.7223L17.5763 12.6416ZM16.0387 14.1999L17.5763 12.7223L17.4987 12.6416L15.9612 14.1192L16.0387 14.1999ZM17.2938 9.88344L16.5762 10.573L16.6538 10.6537L17.3713 9.96415L17.2938 9.88344ZM22.394 14.7103L17.3713 9.88344L17.2938 9.96415L22.3164 14.791L22.394 14.7103ZM21.6764 15.4805L22.394 14.791L22.3164 14.7103L21.599 15.3998L21.6764 15.4805ZM16.5762 10.6537L21.599 15.4805L21.6764 15.3998L16.6538 10.573L16.5762 10.6537ZM11.016 16.1701L12.5536 14.6925L12.4761 14.6118L10.9385 16.0893L11.016 16.1701ZM12.5536 17.567L11.016 16.0893L10.9385 16.1701L12.4761 17.6477L12.5536 17.567ZM14.0136 16.0893L12.4761 17.567L12.5536 17.6477L14.0912 16.1701L14.0136 16.0893ZM12.4761 14.6925L14.0136 16.1701L14.0912 16.0893L12.5536 14.6118L12.4761 14.6925ZM13.7836 18.6506L13.1687 18.0595L13.0911 18.1402L13.7062 18.7313L13.7836 18.6506ZM18.7288 13.8237L13.7062 18.6506L13.7836 18.7313L18.8064 13.9044L18.7288 13.8237ZM18.1138 13.3134L18.7288 13.9044L18.8064 13.8237L18.1913 13.2327L18.1138 13.3134ZM13.1687 18.1402L18.1913 13.3134L18.1138 13.2327L13.0911 18.0595L13.1687 18.1402ZM19.4464 14.6925L20.9839 16.1701L21.0615 16.0893L19.5239 14.6118L19.4464 14.6925ZM17.9863 16.1701L19.5239 14.6925L19.4464 14.6118L17.9088 16.0893L17.9863 16.1701ZM19.5239 17.567L17.9863 16.0893L17.9088 16.1701L19.4464 17.6477L19.5239 17.567ZM20.9839 16.0893L19.4464 17.567L19.5239 17.6477L21.0615 16.1701L20.9839 16.0893ZM20.8564 18.7491L20.1388 18.0595L20.0614 18.1402L20.7788 18.8298L20.8564 18.7491ZM26.5192 13.2327L20.7788 18.7491L20.8564 18.8298L26.5967 13.3134L26.5192 13.2327ZM29.3642 15.8923L26.5967 13.2327L26.5192 13.3134L29.2867 15.973L29.3642 15.8923ZM26.5967 18.6328L29.3642 15.973L29.2867 15.8923L26.5192 18.5521L26.5967 18.6328ZM24.3665 16.5641L26.5192 18.6328L26.5967 18.5521L24.4441 16.4834L24.3665 16.5641ZM23.6241 17.3522L24.4441 16.5641L24.3665 16.4834L23.5465 17.2714L23.6241 17.3522ZM26.4941 20.0296L23.6241 17.2714L23.5465 17.3522L26.4167 20.1103L26.4941 20.0296ZM30.6193 15.9908L26.4167 20.0296L26.4941 20.1103L30.6968 16.0715L30.6193 15.9908ZM26.4167 12.0328L30.6193 16.0715L30.6968 15.9908L26.4941 11.9521L26.4167 12.0328ZM20.1388 18.1402L26.4941 12.0328L26.4167 11.9521L20.0614 18.0595L20.1388 18.1402ZM26.5192 14.6925L27.9542 16.0715L28.0317 15.9908L26.5967 14.6118L26.5192 14.6925ZM25.0591 16.1701L26.5967 14.6925L26.5192 14.6118L24.9816 16.0893L25.0591 16.1701ZM26.4941 17.4685L25.0591 16.0893L24.9816 16.1701L26.4167 17.5492L26.4941 17.4685ZM27.9542 15.9908L26.4167 17.4685L26.4941 17.5492L28.0317 16.0715L27.9542 15.9908ZM17.2938 16.5819L16.5762 17.2714L16.6538 17.3522L17.3713 16.6626L17.2938 16.5819ZM23.7265 22.6894L17.3713 16.5819L17.2938 16.6626L23.649 22.7701L23.7265 22.6894ZM19.5239 26.8088L23.7265 22.7701L23.649 22.6894L19.4464 26.7281L19.5239 26.8088ZM16.5762 24.0507L19.4464 26.8088L19.5239 26.7281L16.6538 23.97L16.5762 24.0507ZM17.2938 23.2804L16.5762 23.97L16.6538 24.0507L17.3713 23.3611L17.2938 23.2804ZM19.5239 25.349L17.3713 23.2804L17.2938 23.3611L19.4464 25.4297L19.5239 25.349ZM22.2139 22.6894L19.4464 25.349L19.5239 25.4297L22.2915 22.7701L22.2139 22.6894ZM16.5762 17.3522L22.2139 22.7701L22.2915 22.6894L16.6538 17.2714L16.5762 17.3522ZM17.9863 22.7701L19.5239 21.2924L19.4464 21.2117L17.9088 22.6894L17.9863 22.7701ZM19.5239 24.1669L17.9863 22.6894L17.9088 22.7701L19.4464 24.2476L19.5239 24.1669ZM20.9839 22.6894L19.4464 24.1669L19.5239 24.2476L21.0615 22.7701L20.9839 22.6894ZM19.4464 21.2924L20.9839 22.7701L21.0615 22.6894L19.5239 21.2117L19.4464 21.2924ZM18.1138 19.9311L12.4761 25.349L12.5536 25.4297L18.1913 20.0118L18.1138 19.9311ZM18.9089 20.6207L18.1913 19.9311L18.1138 20.0118L18.8313 20.7014L18.9089 20.6207ZM12.5536 26.8088L18.9089 20.7014L18.8313 20.6207L12.4761 26.7281L12.5536 26.8088ZM8.27342 22.7701L12.4761 26.8088L12.5536 26.7281L8.35093 22.6894L8.27342 22.7701ZM11.1435 19.9311L8.27342 22.6894L8.35093 22.7701L11.221 20.0118L11.1435 19.9311ZM11.9386 20.6207L11.221 19.9311L11.1435 20.0118L11.861 20.7014L11.9386 20.6207ZM9.78599 22.7701L11.9386 20.7014L11.861 20.6207L9.70847 22.6894L9.78599 22.7701ZM12.5536 25.349L9.78599 22.6894L9.70847 22.7701L12.4761 25.4297L12.5536 25.349ZM10.9385 22.7701L12.4761 24.2476L12.5536 24.1669L11.016 22.6894L10.9385 22.7701ZM12.4761 21.2117L10.9385 22.6894L11.016 22.7701L12.5536 21.2924L12.4761 21.2117ZM14.0912 22.6894L12.5536 21.2117L12.4761 21.2924L14.0136 22.7701L14.0912 22.6894ZM12.5536 24.2476L14.0912 22.7701L14.0136 22.6894L12.4761 24.1669L12.5536 24.2476ZM15.9612 17.8624L14.4236 19.3401L14.5011 19.4208L16.0387 17.9433L15.9612 17.8624ZM17.5763 19.3401L16.0387 17.8624L15.9612 17.9433L17.4987 19.4208L17.5763 19.3401ZM16.0387 20.8985L17.5763 19.4208L17.4987 19.3401L15.9612 20.8177L16.0387 20.8985ZM14.4236 19.4208L15.9612 20.8985L16.0387 20.8177L14.5011 19.3401L14.4236 19.4208ZM9.58099 17.3522L10.2985 16.6626L10.221 16.5819L9.50347 17.2714L9.58099 17.3522ZM14.7062 22.1968L9.58099 17.2714L9.50347 17.3522L14.6287 22.2775L14.7062 22.1968ZM15.3462 21.5073L14.6287 22.1968L14.7062 22.2775L15.4237 21.588L15.3462 21.5073ZM10.221 16.6626L15.3462 21.588L15.4237 21.5073L10.2985 16.5819L10.221 16.6626ZM8.27345 14.7103L7.55592 15.3998L7.63344 15.4806L8.35097 14.791L8.27345 14.7103ZM5.40334 12.0328L8.27345 14.791L8.35097 14.7103L5.48086 11.9521L5.40334 12.0328ZM1.2782 16.0716L5.48086 12.0328L5.40334 11.9521L1.20068 15.9908L1.2782 16.0716ZM5.48086 20.0296L1.2782 15.9908L1.20068 16.0716L5.40334 20.1103L5.48086 20.0296ZM11.7585 13.9222L5.40334 20.0296L5.48086 20.1103L11.8361 14.0029L11.7585 13.9222ZM11.1436 13.4119L11.7585 14.0029L11.8361 13.9222L11.221 13.3312L11.1436 13.4119ZM5.58336 18.8298L11.221 13.4119L11.1436 13.3312L5.50584 18.7491L5.58336 18.8298ZM2.63573 16.0716L5.50584 18.8298L5.58336 18.7491L2.71325 15.9908L2.63573 16.0716ZM5.40334 13.3312L2.63573 15.9908L2.71325 16.0716L5.48086 13.4119L5.40334 13.3312ZM7.63344 15.3998L5.48086 13.3312L5.40334 13.4119L7.55592 15.4806L7.63344 15.3998ZM7.0434 15.9908L5.40334 17.567L5.48086 17.6477L7.12091 16.0716L7.0434 15.9908ZM5.40334 14.4955L7.0434 16.0716L7.12091 15.9908L5.48086 14.4148L5.40334 14.4955ZM3.84079 16.0716L5.48086 14.4955L5.40334 14.4148L3.76328 15.9908L3.84079 16.0716ZM5.48086 17.567L3.84079 15.9908L3.76328 16.0716L5.40334 17.6477L5.48086 17.567Z" fill="#E067A7"/>
</g>
</g>
<defs>
<clipPath id="clip0_3_20">
<rect width="32" height="32" fill="white"/>
</clipPath>
<clipPath id="clip1_3_20">
<rect width="32" height="24.0625" fill="white" transform="translate(0 4)"/>
</clipPath>
</defs>
</svg>
