<svg width="96" height="96" viewBox="0 0 96 96" fill="none" xmlns="http://www.w3.org/2000/svg">
<g clip-path="url(#clip0_3_17)">
<g clip-path="url(#clip1_3_17)">
<path fill-rule="evenodd" clip-rule="evenodd" d="M26.7817 42.7744L16.3263 32.7267L0.335665 48.0937L16.3263 63.461L26.7817 53.4131L31.7019 58.1416L21.2465 68.1891L37.5447 83.8517L48 73.8039L58.4553 83.8517L74.7535 68.1891L64.2982 58.1416L69.2183 53.4131L79.6736 63.461L95.6643 48.0937L79.6736 32.7267L69.2183 42.7744L64.2982 38.0461L74.7535 27.9984L58.4553 12.3358L48 22.3834L37.5447 12.3358L21.2465 27.9984L31.7019 38.0461L26.7817 42.7744ZM46.1549 24.1565L37.5444 15.882L24.629 28.2938L44.0022 46.9116L46.1549 44.843L28.9342 28.2938L37.5444 20.0193L44.0022 26.2252L46.1549 24.1565ZM32.9319 28.2938L37.5444 23.861L42.1571 28.2938L37.5444 32.7266L32.9319 28.2938ZM41.2347 35.9774L39.3895 34.2042L58.4553 15.882L71.0632 27.9983L62.453 36.2729L60.3004 34.2042L67.0657 27.7028L58.4553 19.4282L41.2347 35.9774ZM53.8426 27.9983L58.4553 32.4311L63.068 27.9983L58.4553 23.5655L53.8426 27.9983ZM48 42.4788L43.3873 38.046L48 33.6132L52.6127 38.046L48 42.4788ZM49.8451 31.8401L51.9974 29.7714L67.0657 44.2519L64.9131 46.3206L49.8451 31.8401ZM37.5444 43.9564L32.9319 48.3892L37.5444 52.8222L42.1571 48.3892L37.5444 43.9564ZM39.3895 54.2995L41.2347 56.0727L56.3027 41.5922L54.4578 39.8191L39.3895 54.2995ZM63.068 48.3892L58.4553 43.9564L53.8426 48.3892L58.4553 52.8222L63.068 48.3892ZM60.3004 54.2995L62.453 56.3685L79.6736 39.8191L87.9766 47.7983L79.6736 55.7772L73.2158 49.5714L70.7557 51.9355L79.3662 60.2102L91.974 48.0937L79.3662 35.9774L60.3004 54.2995ZM83.9789 48.0937L79.6736 43.9564L75.0609 48.3892L79.3662 52.5264L83.9789 48.0937ZM49.8451 51.9355L51.9974 49.8669L71.0632 68.1891L58.4553 80.3055L49.8451 72.0308L51.9974 69.9622L58.4553 76.1683L66.7583 68.1891L49.8451 51.9355ZM58.4553 63.7564L53.8426 68.1891L58.4553 72.6221L63.068 68.1891L58.4553 63.7564ZM37.5444 76.1683L54.4578 59.9144L56.6101 61.9833L37.5444 80.3055L24.9365 68.1891L33.5469 59.9144L35.6996 61.9833L29.2417 68.1891L37.5444 76.1683ZM37.5444 72.6221L32.9319 68.1891L37.5444 63.7564L42.1571 68.1891L37.5444 72.6221ZM43.3873 58.1412L48 53.7086L52.6127 58.1412L48 62.5742L43.3873 58.1412ZM30.7793 49.8669L28.6267 51.9355L44.0022 66.7114L46.1549 64.6428L30.7793 49.8669ZM22.7841 46.3206L24.9366 44.252L16.3263 35.9774L3.71832 48.0937L16.3263 60.2102L35.3921 41.8878L33.547 40.1147L16.6338 56.3685L8.02349 48.0937L16.3263 40.1147L22.7841 46.3206ZM16.3263 52.8222L21.2465 48.0937L16.3263 43.3654L11.4061 48.0937L16.3263 52.8222Z" fill="#E067A7"/>
<path d="M16.3263 32.7267L16.4425 32.6056L16.3263 32.4939L16.21 32.6056L16.3263 32.7267ZM26.7817 42.7744L26.6654 42.8955L26.7817 43.0072L26.898 42.8955L26.7817 42.7744ZM0.335664 48.0938L0.219389 47.9726L0.0934162 48.0938L0.219389 48.215L0.335664 48.0938ZM16.3263 63.461L16.21 63.5818L16.3263 63.6937L16.4425 63.5818L16.3263 63.461ZM26.7817 53.4131L26.898 53.2919L26.7817 53.1805L26.6654 53.2919L26.7817 53.4131ZM31.7019 58.1416L31.8182 58.2625L31.9441 58.1416L31.8182 58.0204L31.7019 58.1416ZM21.2465 68.1891L21.1302 68.0682L21.0042 68.1891L21.1302 68.3103L21.2465 68.1891ZM37.5447 83.8518L37.4282 83.973L37.5447 84.0844L37.6609 83.973L37.5447 83.8518ZM48 73.8039L48.1161 73.6831L48 73.5713L47.8839 73.6831L48 73.8039ZM58.4553 83.8518L58.3391 83.973L58.4553 84.0844L58.5717 83.973L58.4553 83.8518ZM74.7534 68.1891L74.8699 68.3103L74.9958 68.1891L74.8699 68.0682L74.7534 68.1891ZM64.2982 58.1416L64.1817 58.0204L64.0558 58.1416L64.1817 58.2625L64.2982 58.1416ZM69.2183 53.4131L69.3345 53.2919L69.2183 53.1805L69.1022 53.2919L69.2183 53.4131ZM79.6736 63.461L79.5575 63.5818L79.6736 63.6937L79.7901 63.5818L79.6736 63.461ZM95.6643 48.0938L95.7805 48.215L95.9067 48.0938L95.7805 47.9726L95.6643 48.0938ZM79.6736 32.7267L79.7901 32.6056L79.6736 32.4939L79.5575 32.6056L79.6736 32.7267ZM69.2183 42.7744L69.1022 42.8955L69.2183 43.0072L69.3345 42.8955L69.2183 42.7744ZM64.2982 38.0461L64.1817 37.925L64.0558 38.0461L64.1817 38.1671L64.2982 38.0461ZM74.7534 27.9984L74.8699 28.1194L74.9958 27.9984L74.8699 27.8773L74.7534 27.9984ZM58.4553 12.3358L58.5717 12.2147L58.4553 12.103L58.3391 12.2147L58.4553 12.3358ZM48 22.3835L47.8839 22.5045L48 22.6163L48.1161 22.5045L48 22.3835ZM37.5447 12.3358L37.6609 12.2147L37.5447 12.103L37.4282 12.2147L37.5447 12.3358ZM21.2465 27.9984L21.1302 27.8773L21.0042 27.9984L21.1302 28.1194L21.2465 27.9984ZM31.7019 38.0461L31.8182 38.1671L31.9441 38.0461L31.8182 37.925L31.7019 38.0461ZM37.5444 15.882L37.6609 15.7609L37.5444 15.6492L37.4282 15.7609L37.5444 15.882ZM46.1548 24.1566L46.271 24.2776L46.3972 24.1566L46.271 24.0355L46.1548 24.1566ZM24.629 28.2938L24.5128 28.1728L24.3868 28.2938L24.5128 28.4149L24.629 28.2938ZM44.0022 46.9116L43.8861 47.0328L44.0022 47.1446L44.1187 47.0328L44.0022 46.9116ZM46.1548 44.843L46.271 44.964L46.3972 44.843L46.271 44.7219L46.1548 44.843ZM28.9342 28.2938L28.8179 28.1728L28.6919 28.2938L28.8179 28.4149L28.9342 28.2938ZM37.5444 20.0193L37.6609 19.8982L37.5444 19.7865L37.4282 19.8982L37.5444 20.0193ZM44.0022 26.2252L43.8861 26.3463L44.0022 26.458L44.1187 26.3463L44.0022 26.2252ZM37.5444 23.861L37.6609 23.74L37.5444 23.6282L37.4282 23.74L37.5444 23.861ZM32.9319 28.2938L32.8156 28.1728L32.6896 28.2938L32.8156 28.4149L32.9319 28.2938ZM42.1571 28.2938L42.2736 28.4149L42.3994 28.2938L42.2736 28.1728L42.1571 28.2938ZM37.5444 32.7267L37.4282 32.8477L37.5444 32.9594L37.6609 32.8477L37.5444 32.7267ZM39.3895 34.2043L39.2734 34.0832L39.1475 34.2043L39.2734 34.3253L39.3895 34.2043ZM41.2347 35.9774L41.1185 36.0984L41.2347 36.2102L41.3508 36.0984L41.2347 35.9774ZM58.4553 15.882L58.5717 15.7609L58.4553 15.6492L58.3391 15.7609L58.4553 15.882ZM71.0632 27.9983L71.1796 28.1194L71.3055 27.9983L71.1796 27.8773L71.0632 27.9983ZM62.453 36.2729L62.3366 36.3939L62.453 36.5057L62.5692 36.3939L62.453 36.2729ZM60.3004 34.2043L60.1843 34.0832L60.0581 34.2043L60.1843 34.3253L60.3004 34.2043ZM67.0657 27.7028L67.1819 27.8238L67.3081 27.7028L67.1819 27.5817L67.0657 27.7028ZM58.4553 19.4282L58.5717 19.3072L58.4553 19.1954L58.3391 19.3072L58.4553 19.4282ZM58.4553 32.4311L58.3391 32.5522L58.4553 32.6639L58.5717 32.5522L58.4553 32.4311ZM53.8426 27.9983L53.7264 27.8773L53.6006 27.9983L53.7264 28.1194L53.8426 27.9983ZM63.068 27.9983L63.1844 28.1194L63.3103 27.9983L63.1844 27.8773L63.068 27.9983ZM58.4553 23.5655L58.5717 23.4445L58.4553 23.3327L58.3391 23.4445L58.4553 23.5655ZM43.3873 38.046L43.2708 37.925L43.1449 38.046L43.2708 38.1671L43.3873 38.046ZM48 42.4788L47.8835 42.5999L48 42.7116L48.1161 42.5999L48 42.4788ZM48 33.6132L48.1161 33.4921L48 33.3804L47.8835 33.4921L48 33.6132ZM52.6127 38.046L52.7288 38.1671L52.8547 38.046L52.7288 37.925L52.6127 38.046ZM51.9974 29.7714L52.1139 29.6504L51.9974 29.5387L51.8813 29.6504L51.9974 29.7714ZM49.8451 31.8401L49.7287 31.719L49.6028 31.8401L49.7287 31.9611L49.8451 31.8401ZM67.0657 44.2519L67.1819 44.373L67.3081 44.2519L67.1819 44.1309L67.0657 44.2519ZM64.9131 46.3206L64.797 46.4415L64.9131 46.5533L65.0293 46.4415L64.9131 46.3206ZM32.9319 48.3892L32.8156 48.268L32.6896 48.3892L32.8156 48.5104L32.9319 48.3892ZM37.5444 43.9564L37.6609 43.8354L37.5444 43.7236L37.4282 43.8354L37.5444 43.9564ZM37.5444 52.8222L37.4282 52.9431L37.5444 53.0549L37.6609 52.9431L37.5444 52.8222ZM42.1571 48.3892L42.2736 48.5104L42.3994 48.3892L42.2736 48.268L42.1571 48.3892ZM41.2347 56.0727L41.1185 56.1939L41.2347 56.3057L41.3508 56.1939L41.2347 56.0727ZM39.3895 54.2995L39.2734 54.1787L39.1475 54.2995L39.2734 54.4207L39.3895 54.2995ZM56.3027 41.5923L56.4191 41.7133L56.545 41.5923L56.4191 41.4712L56.3027 41.5923ZM54.4578 39.8191L54.574 39.6981L54.4578 39.5864L54.3414 39.6981L54.4578 39.8191ZM58.4553 43.9564L58.5717 43.8354L58.4553 43.7236L58.3391 43.8354L58.4553 43.9564ZM63.068 48.3892L63.1844 48.5104L63.3103 48.3892L63.1844 48.268L63.068 48.3892ZM53.8426 48.3892L53.7264 48.268L53.6006 48.3892L53.7264 48.5104L53.8426 48.3892ZM58.4553 52.8222L58.3391 52.9431L58.4553 53.0549L58.5717 52.9431L58.4553 52.8222ZM62.453 56.3685L62.3366 56.4893L62.453 56.6011L62.5692 56.4893L62.453 56.3685ZM60.3004 54.2995L60.1843 54.1787L60.0581 54.2995L60.1843 54.4207L60.3004 54.2995ZM79.6736 39.8191L79.7901 39.6981L79.6736 39.5864L79.5575 39.6981L79.6736 39.8191ZM87.9766 47.7983L88.0927 47.9192L88.2186 47.7983L88.0927 47.6771L87.9766 47.7983ZM79.6736 55.7772L79.5575 55.8984L79.6736 56.0102L79.7901 55.8984L79.6736 55.7772ZM73.2158 49.5714L73.3322 49.4502L73.2158 49.3384L73.0996 49.4502L73.2158 49.5714ZM70.7557 51.9355L70.6395 51.8143L70.5137 51.9355L70.6395 52.0567L70.7557 51.9355ZM79.3661 60.2102L79.25 60.3311L79.3661 60.4429L79.4823 60.3311L79.3661 60.2102ZM91.974 48.0938L92.0905 48.2146L92.2164 48.0938L92.0905 47.9726L91.974 48.0938ZM79.3661 35.9774L79.4823 35.8563L79.3661 35.7446L79.25 35.8563L79.3661 35.9774ZM79.6736 43.9564L79.7901 43.8354L79.6736 43.7236L79.5575 43.8354L79.6736 43.9564ZM83.9788 48.0938L84.095 48.2146L84.2212 48.0938L84.095 47.9726L83.9788 48.0938ZM75.0609 48.3892L74.9448 48.268L74.8186 48.3892L74.9448 48.5104L75.0609 48.3892ZM79.3661 52.5264L79.25 52.6476L79.3661 52.7594L79.4823 52.6476L79.3661 52.5264ZM51.9974 49.8669L52.1139 49.7457L51.9974 49.6342L51.8813 49.7457L51.9974 49.8669ZM49.8451 51.9355L49.7287 51.8143L49.6028 51.9355L49.7287 52.0567L49.8451 51.9355ZM71.0632 68.1891L71.1796 68.3103L71.3055 68.1891L71.1796 68.0682L71.0632 68.1891ZM58.4553 80.3055L58.3391 80.4264L58.4553 80.5382L58.5717 80.4264L58.4553 80.3055ZM49.8451 72.0308L49.7287 71.9099L49.6028 72.0308L49.7287 72.152L49.8451 72.0308ZM51.9974 69.9622L52.1139 69.8413L51.9974 69.7295L51.8813 69.8413L51.9974 69.9622ZM58.4553 76.1683L58.3391 76.2892L58.4553 76.401L58.5717 76.2892L58.4553 76.1683ZM66.7583 68.1891L66.8744 68.3103L67.0003 68.1891L66.8744 68.0682L66.7583 68.1891ZM53.8426 68.1891L53.7264 68.0682L53.6006 68.1891L53.7264 68.3103L53.8426 68.1891ZM58.4553 63.7564L58.5717 63.6352L58.4553 63.5234L58.3391 63.6352L58.4553 63.7564ZM58.4553 72.6221L58.3391 72.7429L58.4553 72.8547L58.5717 72.7429L58.4553 72.6221ZM63.068 68.1891L63.1844 68.3103L63.3103 68.1891L63.1844 68.0682L63.068 68.1891ZM54.4578 59.9144L54.574 59.7935L54.4578 59.6817L54.3414 59.7935L54.4578 59.9144ZM37.5444 76.1683L37.4282 76.2892L37.5444 76.401L37.6609 76.2892L37.5444 76.1683ZM56.6101 61.9833L56.7266 62.1042L56.8525 61.9833L56.7266 61.8621L56.6101 61.9833ZM37.5444 80.3055L37.4282 80.4264L37.5444 80.5382L37.6609 80.4264L37.5444 80.3055ZM24.9365 68.1891L24.8203 68.0682L24.6943 68.1891L24.8203 68.3103L24.9365 68.1891ZM33.5469 59.9144L33.6631 59.7935L33.5469 59.6817L33.4306 59.7935L33.5469 59.9144ZM35.6996 61.9833L35.8157 62.1042L35.9416 61.9833L35.8157 61.8621L35.6996 61.9833ZM29.2417 68.1891L29.1254 68.0682L28.9994 68.1891L29.1254 68.3103L29.2417 68.1891ZM32.9319 68.1891L32.8156 68.0682L32.6896 68.1891L32.8156 68.3103L32.9319 68.1891ZM37.5444 72.6221L37.4282 72.7429L37.5444 72.8547L37.6609 72.7429L37.5444 72.6221ZM37.5444 63.7564L37.6609 63.6352L37.5444 63.5234L37.4282 63.6352L37.5444 63.7564ZM42.1571 68.1891L42.2736 68.3103L42.3994 68.1891L42.2736 68.0682L42.1571 68.1891ZM48 53.7086L48.1161 53.5874L48 53.4759L47.8835 53.5874L48 53.7086ZM43.3873 58.1413L43.2708 58.0204L43.1449 58.1413L43.2708 58.2625L43.3873 58.1413ZM52.6127 58.1413L52.7288 58.2625L52.8547 58.1413L52.7288 58.0204L52.6127 58.1413ZM48 62.5742L47.8835 62.6955L48 62.8069L48.1161 62.6955L48 62.5742ZM28.6267 51.9355L28.5104 51.8143L28.3844 51.9355L28.5104 52.0567L28.6267 51.9355ZM30.7793 49.8669L30.8955 49.7457L30.7793 49.6342L30.663 49.7457L30.7793 49.8669ZM44.0022 66.7114L43.8861 66.8326L44.0022 66.9444L44.1187 66.8326L44.0022 66.7114ZM46.1548 64.6428L46.271 64.764L46.3972 64.6428L46.271 64.522L46.1548 64.6428ZM24.9366 44.252L25.0529 44.3731L25.1789 44.252L25.0529 44.1309L24.9366 44.252ZM22.7841 46.3206L22.6678 46.4418L22.7841 46.5533L22.9003 46.4418L22.7841 46.3206ZM16.3263 35.9774L16.4426 35.8563L16.3263 35.7446L16.21 35.8563L16.3263 35.9774ZM3.71832 48.0938L3.60205 47.9726L3.47607 48.0938L3.60205 48.215L3.71832 48.0938ZM16.3263 60.2102L16.21 60.3311L16.3263 60.4429L16.4426 60.3311L16.3263 60.2102ZM35.3921 41.8878L35.5082 42.0089L35.6341 41.8878L35.5082 41.7668L35.3921 41.8878ZM33.547 40.1147L33.6631 39.9937L33.547 39.8819L33.4307 39.9937L33.547 40.1147ZM16.6338 56.3685L16.5175 56.4893L16.6338 56.6011L16.7501 56.4893L16.6338 56.3685ZM8.02348 48.0938L7.90721 47.9726L7.78124 48.0938L7.90721 48.215L8.02348 48.0938ZM16.3263 40.1147L16.4426 39.9937L16.3263 39.8819L16.21 39.9937L16.3263 40.1147ZM21.2465 48.0938L21.3628 48.215L21.4887 48.0938L21.3628 47.9726L21.2465 48.0938ZM16.3263 52.8222L16.21 52.9431L16.3263 53.0549L16.4426 52.9431L16.3263 52.8222ZM16.3263 43.3654L16.4426 43.2444L16.3263 43.1326L16.21 43.2444L16.3263 43.3654ZM11.4061 48.0938L11.2898 47.9726L11.1639 48.0938L11.2898 48.215L11.4061 48.0938ZM16.21 32.8478L26.6654 42.8955L26.898 42.6533L16.4425 32.6056L16.21 32.8478ZM0.451942 48.215L16.4425 32.8478L16.21 32.6056L0.219389 47.9726L0.451942 48.215ZM16.4425 63.3398L0.451942 47.9726L0.219389 48.215L16.21 63.5818L16.4425 63.3398ZM26.6654 53.2919L16.21 63.3398L16.4425 63.5818L26.898 53.5344L26.6654 53.2919ZM31.8182 58.0204L26.898 53.2919L26.6654 53.5344L31.5856 58.2625L31.8182 58.0204ZM21.3628 68.3103L31.8182 58.2625L31.5856 58.0204L21.1302 68.0682L21.3628 68.3103ZM37.6609 83.7306L21.3628 68.0682L21.1302 68.3103L37.4282 83.973L37.6609 83.7306ZM47.8839 73.6831L37.4282 83.7306L37.6609 83.973L48.1161 73.9251L47.8839 73.6831ZM58.5717 83.7306L48.1161 73.6831L47.8839 73.9251L58.3391 83.973L58.5717 83.7306ZM74.6373 68.0682L58.3391 83.7306L58.5717 83.973L74.8699 68.3103L74.6373 68.0682ZM64.1817 58.2625L74.6373 68.3103L74.8699 68.0682L64.4143 58.0204L64.1817 58.2625ZM69.1022 53.2919L64.1817 58.0204L64.4143 58.2625L69.3345 53.5344L69.1022 53.2919ZM79.7901 63.3398L69.3345 53.2919L69.1022 53.5344L79.5575 63.5818L79.7901 63.3398ZM95.5482 47.9726L79.5575 63.3398L79.7901 63.5818L95.7805 48.215L95.5482 47.9726ZM79.5575 32.8478L95.5482 48.215L95.7805 47.9726L79.7901 32.6056L79.5575 32.8478ZM69.3345 42.8955L79.7901 32.8478L79.5575 32.6056L69.1022 42.6533L69.3345 42.8955ZM64.1817 38.1671L69.1022 42.8955L69.3345 42.6533L64.4143 37.925L64.1817 38.1671ZM74.6373 27.8773L64.1817 37.925L64.4143 38.1671L74.8699 28.1194L74.6373 27.8773ZM58.3391 12.4568L74.6373 28.1194L74.8699 27.8773L58.5717 12.2147L58.3391 12.4568ZM48.1161 22.5045L58.5717 12.4568L58.3391 12.2147L47.8839 22.2624L48.1161 22.5045ZM37.4282 12.4568L47.8839 22.5045L48.1161 22.2624L37.6609 12.2147L37.4282 12.4568ZM21.3628 28.1194L37.6609 12.4568L37.4282 12.2147L21.1302 27.8773L21.3628 28.1194ZM31.8182 37.925L21.3628 27.8773L21.1302 28.1194L31.5856 38.1671L31.8182 37.925ZM26.898 42.8955L31.8182 38.1671L31.5856 37.925L26.6654 42.6533L26.898 42.8955ZM37.4282 16.003L46.0387 24.2776L46.271 24.0355L37.6609 15.7609L37.4282 16.003ZM24.7453 28.4149L37.6609 16.003L37.4282 15.7609L24.5128 28.1728L24.7453 28.4149ZM44.1187 46.7907L24.7453 28.1728L24.5128 28.4149L43.8861 47.0328L44.1187 46.7907ZM46.0387 44.7219L43.8861 46.7907L44.1187 47.0328L46.271 44.964L46.0387 44.7219ZM28.8179 28.4149L46.0387 44.964L46.271 44.7219L29.0505 28.1728L28.8179 28.4149ZM37.4282 19.8982L28.8179 28.1728L29.0505 28.4149L37.6609 20.1403L37.4282 19.8982ZM44.1187 26.1041L37.6609 19.8982L37.4282 20.1403L43.8861 26.3463L44.1187 26.1041ZM46.0387 24.0355L43.8861 26.1041L44.1187 26.3463L46.271 24.2776L46.0387 24.0355ZM37.4282 23.74L32.8156 28.1728L33.0481 28.4149L37.6609 23.9821L37.4282 23.74ZM42.2736 28.1728L37.6609 23.74L37.4282 23.9821L42.0409 28.4149L42.2736 28.1728ZM37.6609 32.8477L42.2736 28.4149L42.0409 28.1728L37.4282 32.6056L37.6609 32.8477ZM32.8156 28.4149L37.4282 32.8477L37.6609 32.6056L33.0481 28.1728L32.8156 28.4149ZM39.2734 34.3253L41.1185 36.0984L41.3508 35.8563L39.506 34.0832L39.2734 34.3253ZM58.3391 15.7609L39.2734 34.0832L39.506 34.3253L58.5717 16.003L58.3391 15.7609ZM71.1796 27.8773L58.5717 15.7609L58.3391 16.003L70.947 28.1194L71.1796 27.8773ZM62.5692 36.3939L71.1796 28.1194L70.947 27.8773L62.3366 36.1518L62.5692 36.3939ZM60.1843 34.3253L62.3366 36.3939L62.5692 36.1518L60.4166 34.0832L60.1843 34.3253ZM66.9493 27.5817L60.1843 34.0832L60.4166 34.3253L67.1819 27.8238L66.9493 27.5817ZM58.3391 19.5493L66.9493 27.8238L67.1819 27.5817L58.5717 19.3072L58.3391 19.5493ZM41.3508 36.0984L58.5717 19.5493L58.3391 19.3072L41.1185 35.8563L41.3508 36.0984ZM58.5717 32.3101L53.959 27.8773L53.7264 28.1194L58.3391 32.5522L58.5717 32.3101ZM62.9518 27.8773L58.3391 32.3101L58.5717 32.5522L63.1844 28.1194L62.9518 27.8773ZM58.3391 23.6866L62.9518 28.1194L63.1844 27.8773L58.5717 23.4445L58.3391 23.6866ZM53.959 28.1194L58.5717 23.6866L58.3391 23.4445L53.7264 27.8773L53.959 28.1194ZM43.2708 38.1671L47.8835 42.5999L48.1161 42.3578L43.5034 37.925L43.2708 38.1671ZM47.8835 33.4921L43.2708 37.925L43.5034 38.1671L48.1161 33.7343L47.8835 33.4921ZM52.7288 37.925L48.1161 33.4921L47.8835 33.7343L52.4962 38.1671L52.7288 37.925ZM48.1161 42.5999L52.7288 38.1671L52.4962 37.925L47.8835 42.3578L48.1161 42.5999ZM51.8813 29.6504L49.7287 31.719L49.9613 31.9611L52.1139 29.8925L51.8813 29.6504ZM67.1819 44.1309L52.1139 29.6504L51.8813 29.8925L66.9493 44.373L67.1819 44.1309ZM65.0293 46.4415L67.1819 44.373L66.9493 44.1309L64.797 46.1994L65.0293 46.4415ZM49.7287 31.9611L64.797 46.4415L65.0293 46.1994L49.9613 31.719L49.7287 31.9611ZM33.0481 48.5104L37.6609 44.0775L37.4282 43.8354L32.8156 48.268L33.0481 48.5104ZM37.6609 52.701L33.0481 48.268L32.8156 48.5104L37.4282 52.9431L37.6609 52.701ZM42.0409 48.268L37.4282 52.701L37.6609 52.9431L42.2736 48.5104L42.0409 48.268ZM37.4282 44.0775L42.0409 48.5104L42.2736 48.268L37.6609 43.8354L37.4282 44.0775ZM41.3508 55.9518L39.506 54.1787L39.2734 54.4207L41.1185 56.1939L41.3508 55.9518ZM56.1865 41.4712L41.1185 55.9518L41.3508 56.1939L56.4191 41.7133L56.1865 41.4712ZM54.3414 39.9402L56.1865 41.7133L56.4191 41.4712L54.574 39.6981L54.3414 39.9402ZM39.506 54.4207L54.574 39.9402L54.3414 39.6981L39.2734 54.1787L39.506 54.4207ZM58.3391 44.0775L62.9518 48.5104L63.1844 48.268L58.5717 43.8354L58.3391 44.0775ZM53.959 48.5104L58.5717 44.0775L58.3391 43.8354L53.7264 48.268L53.959 48.5104ZM58.5717 52.701L53.959 48.268L53.7264 48.5104L58.3391 52.9431L58.5717 52.701ZM62.9518 48.268L58.3391 52.701L58.5717 52.9431L63.1844 48.5104L62.9518 48.268ZM62.5692 56.2473L60.4166 54.1787L60.1843 54.4207L62.3366 56.4893L62.5692 56.2473ZM79.5575 39.6981L62.3366 56.2473L62.5692 56.4893L79.7901 39.9402L79.5575 39.6981ZM88.0927 47.6771L79.7901 39.6981L79.5575 39.9402L87.8601 47.9192L88.0927 47.6771ZM79.7901 55.8984L88.0927 47.9192L87.8601 47.6771L79.5575 55.6563L79.7901 55.8984ZM73.0996 49.6923L79.5575 55.8984L79.7901 55.6563L73.3322 49.4502L73.0996 49.6923ZM70.8722 52.0567L73.3322 49.6923L73.0996 49.4502L70.6395 51.8143L70.8722 52.0567ZM79.4823 60.089L70.8722 51.8143L70.6395 52.0567L79.25 60.3311L79.4823 60.089ZM91.8579 47.9726L79.25 60.089L79.4823 60.3311L92.0905 48.2146L91.8579 47.9726ZM79.25 36.0984L91.8579 48.2146L92.0905 47.9726L79.4823 35.8563L79.25 36.0984ZM60.4166 54.4207L79.4823 36.0984L79.25 35.8563L60.1843 54.1787L60.4166 54.4207ZM79.5575 44.0775L83.8627 48.2146L84.095 47.9726L79.7901 43.8354L79.5575 44.0775ZM75.1774 48.5104L79.7901 44.0775L79.5575 43.8354L74.9448 48.268L75.1774 48.5104ZM79.4823 52.4055L75.1774 48.268L74.9448 48.5104L79.25 52.6476L79.4823 52.4055ZM83.8627 47.9726L79.25 52.4055L79.4823 52.6476L84.095 48.2146L83.8627 47.9726ZM51.8813 49.7457L49.7287 51.8143L49.9613 52.0567L52.1139 49.9878L51.8813 49.7457ZM71.1796 68.0682L52.1139 49.7457L51.8813 49.9878L70.947 68.3103L71.1796 68.0682ZM58.5717 80.4264L71.1796 68.3103L70.947 68.0682L58.3391 80.1843L58.5717 80.4264ZM49.7287 72.152L58.3391 80.4264L58.5717 80.1843L49.9613 71.9099L49.7287 72.152ZM51.8813 69.8413L49.7287 71.9099L49.9613 72.152L52.1139 70.0834L51.8813 69.8413ZM58.5717 76.0471L52.1139 69.8413L51.8813 70.0834L58.3391 76.2892L58.5717 76.0471ZM66.6418 68.0682L58.3391 76.0471L58.5717 76.2892L66.8744 68.3103L66.6418 68.0682ZM49.7287 52.0567L66.6418 68.3103L66.8744 68.0682L49.9613 51.8143L49.7287 52.0567ZM53.959 68.3103L58.5717 63.8773L58.3391 63.6352L53.7264 68.0682L53.959 68.3103ZM58.5717 72.5009L53.959 68.0682L53.7264 68.3103L58.3391 72.7429L58.5717 72.5009ZM62.9518 68.0682L58.3391 72.5009L58.5717 72.7429L63.1844 68.3103L62.9518 68.0682ZM58.3391 63.8773L62.9518 68.3103L63.1844 68.0682L58.5717 63.6352L58.3391 63.8773ZM54.3414 59.7935L37.4282 76.0471L37.6609 76.2892L54.574 60.0356L54.3414 59.7935ZM56.7266 61.8621L54.574 59.7935L54.3414 60.0356L56.494 62.1042L56.7266 61.8621ZM37.6609 80.4264L56.7266 62.1042L56.494 61.8621L37.4282 80.1843L37.6609 80.4264ZM24.8203 68.3103L37.4282 80.4264L37.6609 80.1843L25.0528 68.0682L24.8203 68.3103ZM33.4306 59.7935L24.8203 68.0682L25.0528 68.3103L33.6631 60.0356L33.4306 59.7935ZM35.8157 61.8621L33.6631 59.7935L33.4306 60.0356L35.5831 62.1042L35.8157 61.8621ZM29.358 68.3103L35.8157 62.1042L35.5831 61.8621L29.1254 68.0682L29.358 68.3103ZM37.6609 76.0471L29.358 68.0682L29.1254 68.3103L37.4282 76.2892L37.6609 76.0471ZM32.8156 68.3103L37.4282 72.7429L37.6609 72.5009L33.0481 68.0682L32.8156 68.3103ZM37.4282 63.6352L32.8156 68.0682L33.0481 68.3103L37.6609 63.8773L37.4282 63.6352ZM42.2736 68.0682L37.6609 63.6352L37.4282 63.8773L42.0409 68.3103L42.2736 68.0682ZM37.6609 72.7429L42.2736 68.3103L42.0409 68.0682L37.4282 72.5009L37.6609 72.7429ZM47.8835 53.5874L43.2708 58.0204L43.5034 58.2625L48.1161 53.8298L47.8835 53.5874ZM52.7288 58.0204L48.1161 53.5874L47.8835 53.8298L52.4962 58.2625L52.7288 58.0204ZM48.1161 62.6955L52.7288 58.2625L52.4962 58.0204L47.8835 62.453L48.1161 62.6955ZM43.2708 58.2625L47.8835 62.6955L48.1161 62.453L43.5034 58.0204L43.2708 58.2625ZM28.743 52.0567L30.8955 49.9878L30.663 49.7457L28.5104 51.8143L28.743 52.0567ZM44.1187 66.5905L28.743 51.8143L28.5104 52.0567L43.8861 66.8326L44.1187 66.5905ZM46.0387 64.522L43.8861 66.5905L44.1187 66.8326L46.271 64.764L46.0387 64.522ZM30.663 49.9878L46.0387 64.764L46.271 64.522L30.8955 49.7457L30.663 49.9878ZM24.8204 44.1309L22.6678 46.1994L22.9003 46.4418L25.0529 44.3731L24.8204 44.1309ZM16.21 36.0985L24.8204 44.3731L25.0529 44.1309L16.4426 35.8563L16.21 36.0985ZM3.8346 48.215L16.4426 36.0985L16.21 35.8563L3.60205 47.9726L3.8346 48.215ZM16.4426 60.089L3.8346 47.9726L3.60205 48.215L16.21 60.3311L16.4426 60.089ZM35.2756 41.7668L16.21 60.089L16.4426 60.3311L35.5082 42.0089L35.2756 41.7668ZM33.4307 40.2358L35.2756 42.0089L35.5082 41.7668L33.6631 39.9937L33.4307 40.2358ZM16.7501 56.4893L33.6631 40.2358L33.4307 39.9937L16.5175 56.2473L16.7501 56.4893ZM7.90721 48.215L16.5175 56.4893L16.7501 56.2473L8.13976 47.9726L7.90721 48.215ZM16.21 39.9937L7.90721 47.9726L8.13976 48.215L16.4426 40.2358L16.21 39.9937ZM22.9003 46.1994L16.4426 39.9937L16.21 40.2358L22.6678 46.4418L22.9003 46.1994ZM21.1302 47.9726L16.21 52.701L16.4426 52.9431L21.3628 48.215L21.1302 47.9726ZM16.21 43.4865L21.1302 48.215L21.3628 47.9726L16.4426 43.2444L16.21 43.4865ZM11.5224 48.215L16.4426 43.4865L16.21 43.2444L11.2898 47.9726L11.5224 48.215ZM16.4426 52.701L11.5224 47.9726L11.2898 48.215L16.21 52.9431L16.4426 52.701Z" fill="#E067A7"/>
</g>
</g>
<defs>
<clipPath id="clip0_3_17">
<rect width="96" height="96" fill="white"/>
</clipPath>
<clipPath id="clip1_3_17">
<rect width="96" height="72.1875" fill="white" transform="translate(0 12)"/>
</clipPath>
</defs>
</svg>
