<svg width="196" height="196" viewBox="0 0 196 196" fill="none" xmlns="http://www.w3.org/2000/svg">
<g clip-path="url(#clip0_3_15)">
<g clip-path="url(#clip1_3_15)">
<path fill-rule="evenodd" clip-rule="evenodd" d="M54.6793 87.331L33.3328 66.8169L0.685333 98.1914L33.3328 129.566L54.6793 109.052L64.7247 118.706L43.3782 139.219L76.6538 171.197L98 150.683L119.346 171.197L152.622 139.219L131.275 118.706L141.321 109.052L162.667 129.566L195.315 98.1914L162.667 66.8169L141.321 87.331L131.275 77.6773L152.622 57.1633L119.346 25.1855L98 45.6995L76.6538 25.1855L43.3782 57.1633L64.7247 77.6773L54.6793 87.331ZM94.2329 49.3196L76.6532 32.4257L50.2843 57.7665L89.8379 95.7777L94.2329 91.5544L59.074 57.7665L76.6532 40.8726L89.8379 53.543L94.2329 49.3196ZM67.2359 57.7665L76.6532 48.7162L86.0708 57.7665L76.6532 66.8169L67.2359 57.7665ZM84.1875 73.4538L80.4203 69.8336L119.346 32.4257L145.087 57.1632L127.508 74.0571L123.113 69.8336L136.926 56.5599L119.346 39.6659L84.1875 73.4538ZM109.929 57.1632L119.346 66.2135L128.764 57.1632L119.346 48.1129L109.929 57.1632ZM98 86.7275L88.5824 77.6772L98 68.6269L107.418 77.6772L98 86.7275ZM101.767 65.0068L106.161 60.7833L136.926 90.3477L132.531 94.5713L101.767 65.0068ZM76.6532 89.7444L67.2359 98.7946L76.6532 107.845L86.0708 98.7946L76.6532 89.7444ZM80.4203 110.862L84.1875 114.482L114.951 84.9175L111.185 81.2973L80.4203 110.862ZM128.764 98.7946L119.346 89.7444L109.929 98.7946L119.346 107.845L128.764 98.7946ZM123.113 110.862L127.508 115.086L162.667 81.2973L179.619 97.5882L162.667 113.878L149.482 101.208L144.46 106.035L162.039 122.929L187.78 98.1914L162.039 73.4538L123.113 110.862ZM171.457 98.1914L162.667 89.7444L153.249 98.7946L162.039 107.241L171.457 98.1914ZM101.767 106.035L106.161 101.812L145.087 139.219L119.346 163.957L101.767 147.063L106.161 142.839L119.346 155.51L136.298 139.219L101.767 106.035ZM119.346 130.169L109.929 139.219L119.346 148.27L128.764 139.219L119.346 130.169ZM76.6532 155.51L111.185 122.325L115.579 126.549L76.6532 163.957L50.9121 139.219L68.4915 122.325L72.8867 126.549L59.7018 139.219L76.6532 155.51ZM76.6532 148.27L67.2359 139.219L76.6532 130.169L86.0708 139.219L76.6532 148.27ZM88.5824 118.705L98 109.655L107.418 118.705L98 127.756L88.5824 118.705ZM62.841 101.812L58.4462 106.035L89.8379 136.202L94.2329 131.979L62.841 101.812ZM46.5175 94.5713L50.9123 90.3477L33.3329 73.4538L7.59159 98.1914L33.3329 122.929L72.2589 85.5209L68.4917 81.9008L33.9607 115.086L16.3813 98.1914L33.3329 81.9008L46.5175 94.5713ZM33.3329 107.845L43.3782 98.1914L33.3329 88.5377L23.2875 98.1914L33.3329 107.845Z" fill="#E067A7"/>
<path d="M33.3328 66.817L33.5702 66.5698L33.3328 66.3416L33.0954 66.5698L33.3328 66.817ZM54.6793 87.331L54.4419 87.5782L54.6793 87.8063L54.9167 87.5782L54.6793 87.331ZM0.685325 98.1914L0.447929 97.9439L0.190735 98.1914L0.447929 98.4389L0.685325 98.1914ZM33.3328 129.566L33.0954 129.813L33.3328 130.041L33.5702 129.813L33.3328 129.566ZM54.6793 109.052L54.9167 108.804L54.6793 108.577L54.4419 108.804L54.6793 109.052ZM64.7247 118.706L64.9621 118.953L65.2193 118.706L64.9621 118.458L64.7247 118.706ZM43.3782 139.219L43.1408 138.973L42.8836 139.219L43.1408 139.467L43.3782 139.219ZM76.6538 171.197L76.416 171.445L76.6538 171.672L76.8909 171.445L76.6538 171.197ZM98 150.683L98.2371 150.436L98 150.208L97.7629 150.436L98 150.683ZM119.346 171.197L119.109 171.445L119.346 171.672L119.584 171.445L119.346 171.197ZM152.622 139.219L152.859 139.467L153.116 139.219L152.859 138.973L152.622 139.219ZM131.275 118.706L131.038 118.458L130.781 118.706L131.038 118.953L131.275 118.706ZM141.321 109.052L141.558 108.804L141.321 108.577L141.084 108.804L141.321 109.052ZM162.667 129.566L162.43 129.813L162.667 130.041L162.905 129.813L162.667 129.566ZM195.315 98.1914L195.552 98.4389L195.809 98.1914L195.552 97.9439L195.315 98.1914ZM162.667 66.817L162.905 66.5698L162.667 66.3416L162.43 66.5698L162.667 66.817ZM141.321 87.331L141.084 87.5782L141.321 87.8063L141.558 87.5782L141.321 87.331ZM131.275 77.6774L131.038 77.4302L130.781 77.6774L131.038 77.9245L131.275 77.6774ZM152.622 57.1633L152.859 57.4105L153.116 57.1633L152.859 56.9161L152.622 57.1633ZM119.346 25.1855L119.584 24.9383L119.346 24.7102L119.109 24.9383L119.346 25.1855ZM98 45.6996L97.7629 45.9467L98 46.1749L98.2371 45.9467L98 45.6996ZM76.6538 25.1855L76.8909 24.9383L76.6538 24.7102L76.416 24.9383L76.6538 25.1855ZM43.3782 57.1633L43.1408 56.9161L42.8836 57.1633L43.1408 57.4105L43.3782 57.1633ZM64.7247 77.6774L64.9621 77.9245L65.2193 77.6774L64.9621 77.4302L64.7247 77.6774ZM76.6531 32.4257L76.8909 32.1785L76.6531 31.9504L76.416 32.1785L76.6531 32.4257ZM94.2328 49.3196L94.47 49.5667L94.7276 49.3196L94.47 49.0724L94.2328 49.3196ZM50.2843 57.7666L50.0469 57.5194L49.7897 57.7666L50.0469 58.0138L50.2843 57.7666ZM89.8379 95.7778L89.6008 96.0252L89.8379 96.2535L90.0757 96.0252L89.8379 95.7778ZM94.2328 91.5545L94.47 91.8016L94.7276 91.5545L94.47 91.3073L94.2328 91.5545ZM59.074 57.7666L58.8366 57.5194L58.5794 57.7666L58.8366 58.0138L59.074 57.7666ZM76.6531 40.8727L76.8909 40.6255L76.6531 40.3973L76.416 40.6255L76.6531 40.8727ZM89.8379 53.5431L89.6008 53.7903L89.8379 54.0184L90.0757 53.7903L89.8379 53.5431ZM76.6531 48.7162L76.8909 48.4691L76.6531 48.2409L76.416 48.4691L76.6531 48.7162ZM67.2359 57.7666L66.9985 57.5194L66.7413 57.7666L66.9985 58.0138L67.2359 57.7666ZM86.0707 57.7666L86.3085 58.0138L86.5655 57.7666L86.3085 57.5194L86.0707 57.7666ZM76.6531 66.8169L76.416 67.064L76.6531 67.2922L76.8909 67.064L76.6531 66.8169ZM80.4203 69.8337L80.1832 69.5865L79.9262 69.8337L80.1832 70.0808L80.4203 69.8337ZM84.1875 73.4538L83.9504 73.701L84.1875 73.9291L84.4246 73.701L84.1875 73.4538ZM119.346 32.4257L119.584 32.1785L119.346 31.9504L119.109 32.1785L119.346 32.4257ZM145.087 57.1632L145.325 57.4104L145.582 57.1632L145.325 56.9161L145.087 57.1632ZM127.508 74.0572L127.27 74.3043L127.508 74.5324L127.745 74.3043L127.508 74.0572ZM123.113 69.8337L122.876 69.5865L122.619 69.8337L122.876 70.0808L123.113 69.8337ZM136.926 56.5599L137.163 56.807L137.421 56.5599L137.163 56.3127L136.926 56.5599ZM119.346 39.6659L119.584 39.4188L119.346 39.1906L119.109 39.4188L119.346 39.6659ZM119.346 66.2135L119.109 66.4607L119.346 66.6889L119.584 66.4607L119.346 66.2135ZM109.929 57.1632L109.691 56.9161L109.434 57.1632L109.691 57.4104L109.929 57.1632ZM128.764 57.1632L129.002 57.4104L129.259 57.1632L129.002 56.9161L128.764 57.1632ZM119.346 48.1129L119.584 47.8657L119.346 47.6376L119.109 47.8657L119.346 48.1129ZM88.5824 77.6772L88.3446 77.4301L88.0876 77.6772L88.3446 77.9244L88.5824 77.6772ZM98 86.7276L97.7622 86.9748L98 87.2029L98.2371 86.9748L98 86.7276ZM98 68.627L98.2371 68.3798L98 68.1516L97.7622 68.3798L98 68.627ZM107.418 77.6772L107.655 77.9244L107.912 77.6772L107.655 77.4301L107.418 77.6772ZM106.161 60.7833L106.399 60.5362L106.161 60.3081L105.924 60.5362L106.161 60.7833ZM101.767 65.0068L101.529 64.7596L101.272 65.0068L101.529 65.254L101.767 65.0068ZM136.926 90.3477L137.163 90.5949L137.421 90.3477L137.163 90.1006L136.926 90.3477ZM132.531 94.5713L132.294 94.8181L132.531 95.0463L132.768 94.8181L132.531 94.5713ZM67.2359 98.7947L66.9985 98.5472L66.7413 98.7947L66.9985 99.0421L67.2359 98.7947ZM76.6531 89.7444L76.8909 89.4972L76.6531 89.2691L76.416 89.4972L76.6531 89.7444ZM76.6531 107.845L76.416 108.092L76.6531 108.32L76.8909 108.092L76.6531 107.845ZM86.0707 98.7947L86.3085 99.0421L86.5655 98.7947L86.3085 98.5472L86.0707 98.7947ZM84.1875 114.482L83.9504 114.729L84.1875 114.957L84.4246 114.729L84.1875 114.482ZM80.4203 110.862L80.1832 110.615L79.9262 110.862L80.1832 111.109L80.4203 110.862ZM114.951 84.9175L115.189 85.1647L115.446 84.9175L115.189 84.6704L114.951 84.9175ZM111.185 81.2974L111.422 81.0502L111.185 80.8221L110.947 81.0502L111.185 81.2974ZM119.346 89.7444L119.584 89.4972L119.346 89.2691L119.109 89.4972L119.346 89.7444ZM128.764 98.7947L129.002 99.0421L129.259 98.7947L129.002 98.5472L128.764 98.7947ZM109.929 98.7947L109.691 98.5472L109.434 98.7947L109.691 99.0421L109.929 98.7947ZM119.346 107.845L119.109 108.092L119.346 108.32L119.584 108.092L119.346 107.845ZM127.508 115.086L127.27 115.332L127.508 115.561L127.745 115.332L127.508 115.086ZM123.113 110.862L122.876 110.615L122.619 110.862L122.876 111.109L123.113 110.862ZM162.667 81.2974L162.905 81.0502L162.667 80.8221L162.43 81.0502L162.667 81.2974ZM179.619 97.5882L179.856 97.835L180.113 97.5882L179.856 97.3407L179.619 97.5882ZM162.667 113.878L162.43 114.126L162.667 114.354L162.905 114.126L162.667 113.878ZM149.482 101.208L149.72 100.961L149.482 100.733L149.245 100.961L149.482 101.208ZM144.46 106.035L144.222 105.787L143.965 106.035L144.222 106.282L144.46 106.035ZM162.039 122.929L161.802 123.176L162.039 123.404L162.276 123.176L162.039 122.929ZM187.78 98.1914L188.018 98.4382L188.275 98.1914L188.018 97.9439L187.78 98.1914ZM162.039 73.4538L162.276 73.2066L162.039 72.9785L161.802 73.2066L162.039 73.4538ZM162.667 89.7444L162.905 89.4972L162.667 89.2691L162.43 89.4972L162.667 89.7444ZM171.457 98.1914L171.694 98.4382L171.952 98.1914L171.694 97.9439L171.457 98.1914ZM153.249 98.7947L153.012 98.5472L152.755 98.7947L153.012 99.0421L153.249 98.7947ZM162.039 107.241L161.802 107.489L162.039 107.717L162.276 107.489L162.039 107.241ZM106.161 101.812L106.399 101.564L106.161 101.336L105.924 101.564L106.161 101.812ZM101.767 106.035L101.529 105.787L101.272 106.035L101.529 106.282L101.767 106.035ZM145.087 139.219L145.325 139.467L145.582 139.219L145.325 138.973L145.087 139.219ZM119.346 163.957L119.109 164.204L119.346 164.432L119.584 164.204L119.346 163.957ZM101.767 147.063L101.529 146.816L101.272 147.063L101.529 147.31L101.767 147.063ZM106.161 142.84L106.399 142.593L106.161 142.364L105.924 142.593L106.161 142.84ZM119.346 155.51L119.109 155.757L119.346 155.985L119.584 155.757L119.346 155.51ZM136.298 139.219L136.535 139.467L136.792 139.219L136.535 138.973L136.298 139.219ZM109.929 139.219L109.691 138.973L109.434 139.219L109.691 139.467L109.929 139.219ZM119.346 130.169L119.584 129.922L119.346 129.694L119.109 129.922L119.346 130.169ZM119.346 148.27L119.109 148.517L119.346 148.745L119.584 148.517L119.346 148.27ZM128.764 139.219L129.002 139.467L129.259 139.219L129.002 138.973L128.764 139.219ZM111.185 122.325L111.422 122.078L111.185 121.85L110.947 122.078L111.185 122.325ZM76.6531 155.51L76.416 155.757L76.6531 155.985L76.8909 155.757L76.6531 155.51ZM115.579 126.549L115.817 126.796L116.074 126.549L115.817 126.302L115.579 126.549ZM76.6531 163.957L76.416 164.204L76.6531 164.432L76.8909 164.204L76.6531 163.957ZM50.9121 139.219L50.6747 138.973L50.4175 139.219L50.6747 139.467L50.9121 139.219ZM68.4915 122.325L68.7289 122.078L68.4915 121.85L68.2541 122.078L68.4915 122.325ZM72.8867 126.549L73.1238 126.796L73.3808 126.549L73.1238 126.302L72.8867 126.549ZM59.7018 139.219L59.4644 138.973L59.2072 139.219L59.4644 139.467L59.7018 139.219ZM67.2359 139.219L66.9985 138.973L66.7413 139.219L66.9985 139.467L67.2359 139.219ZM76.6531 148.27L76.416 148.517L76.6531 148.745L76.8909 148.517L76.6531 148.27ZM76.6531 130.169L76.8909 129.922L76.6531 129.694L76.416 129.922L76.6531 130.169ZM86.0707 139.219L86.3085 139.467L86.5655 139.219L86.3085 138.973L86.0707 139.219ZM98 109.655L98.2371 109.408L98 109.18L97.7622 109.408L98 109.655ZM88.5824 118.705L88.3446 118.458L88.0876 118.705L88.3446 118.953L88.5824 118.705ZM107.418 118.705L107.655 118.953L107.912 118.705L107.655 118.458L107.418 118.705ZM98 127.756L97.7622 128.003L98 128.231L98.2371 128.003L98 127.756ZM58.4462 106.035L58.2088 105.787L57.9516 106.035L58.2088 106.282L58.4462 106.035ZM62.841 101.812L63.0784 101.564L62.841 101.336L62.6036 101.564L62.841 101.812ZM89.8379 136.202L89.6008 136.45L89.8379 136.678L90.0757 136.45L89.8379 136.202ZM94.2328 131.979L94.47 132.227L94.7276 131.979L94.47 131.732L94.2328 131.979ZM50.9123 90.3478L51.1497 90.595L51.4069 90.3478L51.1497 90.1006L50.9123 90.3478ZM46.5175 94.5713L46.2801 94.8187L46.5175 95.0463L46.7549 94.8187L46.5175 94.5713ZM33.3329 73.4539L33.5703 73.2067L33.3329 72.9785L33.0955 73.2067L33.3329 73.4539ZM7.59158 98.1914L7.35419 97.9439L7.09699 98.1914L7.35419 98.4389L7.59158 98.1914ZM33.3329 122.929L33.0955 123.176L33.3329 123.404L33.5703 123.176L33.3329 122.929ZM72.2589 85.5209L72.496 85.7681L72.753 85.5209L72.496 85.2738L72.2589 85.5209ZM68.4917 81.9008L68.7289 81.6537L68.4917 81.4255L68.2543 81.6537L68.4917 81.9008ZM33.9607 115.086L33.7233 115.332L33.9607 115.561L34.1981 115.332L33.9607 115.086ZM16.3813 98.1914L16.1439 97.9439L15.8867 98.1914L16.1439 98.4389L16.3813 98.1914ZM33.3329 81.9008L33.5703 81.6537L33.3329 81.4255L33.0955 81.6537L33.3329 81.9008ZM43.3782 98.1914L43.6156 98.4389L43.8728 98.1914L43.6156 97.9439L43.3782 98.1914ZM33.3329 107.845L33.0955 108.092L33.3329 108.32L33.5703 108.092L33.3329 107.845ZM33.3329 88.5377L33.5703 88.2906L33.3329 88.0624L33.0955 88.2906L33.3329 88.5377ZM23.2875 98.1914L23.0501 97.9439L22.7929 98.1914L23.0501 98.4389L23.2875 98.1914ZM33.0954 67.0642L54.4419 87.5782L54.9167 87.0839L33.5702 66.5698L33.0954 67.0642ZM0.922725 98.4389L33.5702 67.0642L33.0954 66.5698L0.447929 97.9439L0.922725 98.4389ZM33.5702 129.319L0.922725 97.9439L0.447929 98.4389L33.0954 129.813L33.5702 129.319ZM54.4419 108.804L33.0954 129.319L33.5702 129.813L54.9167 109.299L54.4419 108.804ZM64.9621 118.458L54.9167 108.804L54.4419 109.299L64.4873 118.953L64.9621 118.458ZM43.6156 139.467L64.9621 118.953L64.4873 118.458L43.1408 138.973L43.6156 139.467ZM76.8909 170.95L43.6156 138.973L43.1408 139.467L76.416 171.445L76.8909 170.95ZM97.7629 150.436L76.416 170.95L76.8909 171.445L98.2371 150.93L97.7629 150.436ZM119.584 170.95L98.2371 150.436L97.7629 150.93L119.109 171.445L119.584 170.95ZM152.385 138.973L119.109 170.95L119.584 171.445L152.859 139.467L152.385 138.973ZM131.038 118.953L152.385 139.467L152.859 138.973L131.513 118.458L131.038 118.953ZM141.084 108.804L131.038 118.458L131.513 118.953L141.558 109.299L141.084 108.804ZM162.905 129.319L141.558 108.804L141.084 109.299L162.43 129.813L162.905 129.319ZM195.078 97.9439L162.43 129.319L162.905 129.813L195.552 98.4389L195.078 97.9439ZM162.43 67.0642L195.078 98.4389L195.552 97.9439L162.905 66.5698L162.43 67.0642ZM141.558 87.5782L162.905 67.0642L162.43 66.5698L141.084 87.0839L141.558 87.5782ZM131.038 77.9245L141.084 87.5782L141.558 87.0839L131.513 77.4302L131.038 77.9245ZM152.385 56.9161L131.038 77.4302L131.513 77.9245L152.859 57.4105L152.385 56.9161ZM119.109 25.4327L152.385 57.4105L152.859 56.9161L119.584 24.9383L119.109 25.4327ZM98.2371 45.9467L119.584 25.4327L119.109 24.9383L97.7629 45.4524L98.2371 45.9467ZM76.416 25.4327L97.7629 45.9467L98.2371 45.4524L76.8909 24.9383L76.416 25.4327ZM43.6156 57.4105L76.8909 25.4327L76.416 24.9383L43.1408 56.9161L43.6156 57.4105ZM64.9621 77.4302L43.6156 56.9161L43.1408 57.4105L64.4873 77.9245L64.9621 77.4302ZM54.9167 87.5782L64.9621 77.9245L64.4873 77.4302L54.4419 87.0839L54.9167 87.5782ZM76.416 32.6728L93.9957 49.5667L94.47 49.0724L76.8909 32.1785L76.416 32.6728ZM50.5217 58.0138L76.8909 32.6728L76.416 32.1785L50.0469 57.5194L50.5217 58.0138ZM90.0757 95.531L50.5217 57.5194L50.0469 58.0138L89.6008 96.0252L90.0757 95.531ZM93.9957 91.3073L89.6008 95.531L90.0757 96.0252L94.47 91.8016L93.9957 91.3073ZM58.8366 58.0138L93.9957 91.8016L94.47 91.3073L59.3114 57.5194L58.8366 58.0138ZM76.416 40.6255L58.8366 57.5194L59.3114 58.0138L76.8909 41.1198L76.416 40.6255ZM90.0757 53.2959L76.8909 40.6255L76.416 41.1198L89.6008 53.7903L90.0757 53.2959ZM93.9957 49.0724L89.6008 53.2959L90.0757 53.7903L94.47 49.5667L93.9957 49.0724ZM76.416 48.4691L66.9985 57.5194L67.4733 58.0138L76.8909 48.9634L76.416 48.4691ZM86.3085 57.5194L76.8909 48.4691L76.416 48.9634L85.8336 58.0138L86.3085 57.5194ZM76.8909 67.064L86.3085 58.0138L85.8336 57.5194L76.416 66.5697L76.8909 67.064ZM66.9985 58.0138L76.416 67.064L76.8909 66.5697L67.4733 57.5194L66.9985 58.0138ZM80.1832 70.0808L83.9504 73.701L84.4246 73.2066L80.6581 69.5865L80.1832 70.0808ZM119.109 32.1785L80.1832 69.5865L80.6581 70.0808L119.584 32.6728L119.109 32.1785ZM145.325 56.9161L119.584 32.1785L119.109 32.6728L144.85 57.4104L145.325 56.9161ZM127.745 74.3043L145.325 57.4104L144.85 56.9161L127.27 73.81L127.745 74.3043ZM122.876 70.0808L127.27 74.3043L127.745 73.81L123.35 69.5865L122.876 70.0808ZM136.688 56.3127L122.876 69.5865L123.35 70.0808L137.163 56.807L136.688 56.3127ZM119.109 39.9131L136.688 56.807L137.163 56.3127L119.584 39.4188L119.109 39.9131ZM84.4246 73.701L119.584 39.9131L119.109 39.4188L83.9504 73.2066L84.4246 73.701ZM119.584 65.9664L110.166 56.9161L109.691 57.4104L119.109 66.4607L119.584 65.9664ZM128.527 56.9161L119.109 65.9664L119.584 66.4607L129.002 57.4104L128.527 56.9161ZM119.109 48.3601L128.527 57.4104L129.002 56.9161L119.584 47.8657L119.109 48.3601ZM110.166 57.4104L119.584 48.3601L119.109 47.8657L109.691 56.9161L110.166 57.4104ZM88.3446 77.9244L97.7622 86.9748L98.2371 86.4804L88.8195 77.4301L88.3446 77.9244ZM97.7622 68.3798L88.3446 77.4301L88.8195 77.9244L98.2371 68.8741L97.7622 68.3798ZM107.655 77.4301L98.2371 68.3798L97.7622 68.8741L107.18 77.9244L107.655 77.4301ZM98.2371 86.9748L107.655 77.9244L107.18 77.4301L97.7622 86.4804L98.2371 86.9748ZM105.924 60.5362L101.529 64.7596L102.004 65.254L106.399 61.0305L105.924 60.5362ZM137.163 90.1006L106.399 60.5362L105.924 61.0305L136.688 90.5949L137.163 90.1006ZM132.768 94.8181L137.163 90.5949L136.688 90.1006L132.294 94.3238L132.768 94.8181ZM101.529 65.254L132.294 94.8181L132.768 94.3238L102.004 64.7596L101.529 65.254ZM67.4733 99.0421L76.8909 89.9915L76.416 89.4972L66.9985 98.5472L67.4733 99.0421ZM76.8909 107.598L67.4733 98.5472L66.9985 99.0421L76.416 108.092L76.8909 107.598ZM85.8336 98.5472L76.416 107.598L76.8909 108.092L86.3085 99.0421L85.8336 98.5472ZM76.416 89.9915L85.8336 99.0421L86.3085 98.5472L76.8909 89.4972L76.416 89.9915ZM84.4246 114.235L80.6581 110.615L80.1832 111.109L83.9504 114.729L84.4246 114.235ZM114.714 84.6704L83.9504 114.235L84.4246 114.729L115.189 85.1647L114.714 84.6704ZM110.947 81.5446L114.714 85.1647L115.189 84.6704L111.422 81.0502L110.947 81.5446ZM80.6581 111.109L111.422 81.5446L110.947 81.0502L80.1832 110.615L80.6581 111.109ZM119.109 89.9915L128.527 99.0421L129.002 98.5472L119.584 89.4972L119.109 89.9915ZM110.166 99.0421L119.584 89.9915L119.109 89.4972L109.691 98.5472L110.166 99.0421ZM119.584 107.598L110.166 98.5472L109.691 99.0421L119.109 108.092L119.584 107.598ZM128.527 98.5472L119.109 107.598L119.584 108.092L129.002 99.0421L128.527 98.5472ZM127.745 114.838L123.35 110.615L122.876 111.109L127.27 115.332L127.745 114.838ZM162.43 81.0502L127.27 114.838L127.745 115.332L162.905 81.5446L162.43 81.0502ZM179.856 97.3407L162.905 81.0502L162.43 81.5446L179.381 97.835L179.856 97.3407ZM162.905 114.126L179.856 97.835L179.381 97.3407L162.43 113.632L162.905 114.126ZM149.245 101.455L162.43 114.126L162.905 113.632L149.72 100.961L149.245 101.455ZM144.697 106.282L149.72 101.455L149.245 100.961L144.222 105.787L144.697 106.282ZM162.276 122.682L144.697 105.787L144.222 106.282L161.802 123.176L162.276 122.682ZM187.543 97.9439L161.802 122.682L162.276 123.176L188.018 98.4382L187.543 97.9439ZM161.802 73.701L187.543 98.4382L188.018 97.9439L162.276 73.2066L161.802 73.701ZM123.35 111.109L162.276 73.701L161.802 73.2066L122.876 110.615L123.35 111.109ZM162.43 89.9915L171.22 98.4382L171.694 97.9439L162.905 89.4972L162.43 89.9915ZM153.487 99.0421L162.905 89.9915L162.43 89.4972L153.012 98.5472L153.487 99.0421ZM162.276 106.995L153.487 98.5472L153.012 99.0421L161.802 107.489L162.276 106.995ZM171.22 97.9439L161.802 106.995L162.276 107.489L171.694 98.4382L171.22 97.9439ZM105.924 101.564L101.529 105.787L102.004 106.282L106.399 102.058L105.924 101.564ZM145.325 138.973L106.399 101.564L105.924 102.058L144.85 139.467L145.325 138.973ZM119.584 164.204L145.325 139.467L144.85 138.973L119.109 163.71L119.584 164.204ZM101.529 147.31L119.109 164.204L119.584 163.71L102.004 146.816L101.529 147.31ZM105.924 142.593L101.529 146.816L102.004 147.31L106.399 143.087L105.924 142.593ZM119.584 155.263L106.399 142.593L105.924 143.087L119.109 155.757L119.584 155.263ZM136.06 138.973L119.109 155.263L119.584 155.757L136.535 139.467L136.06 138.973ZM101.529 106.282L136.06 139.467L136.535 138.973L102.004 105.787L101.529 106.282ZM110.166 139.467L119.584 130.416L119.109 129.922L109.691 138.973L110.166 139.467ZM119.584 148.023L110.166 138.973L109.691 139.467L119.109 148.517L119.584 148.023ZM128.527 138.973L119.109 148.023L119.584 148.517L129.002 139.467L128.527 138.973ZM119.109 130.416L128.527 139.467L129.002 138.973L119.584 129.922L119.109 130.416ZM110.947 122.078L76.416 155.263L76.8909 155.757L111.422 122.573L110.947 122.078ZM115.817 126.302L111.422 122.078L110.947 122.573L115.342 126.796L115.817 126.302ZM76.8909 164.204L115.817 126.796L115.342 126.302L76.416 163.71L76.8909 164.204ZM50.6747 139.467L76.416 164.204L76.8909 163.71L51.1495 138.973L50.6747 139.467ZM68.2541 122.078L50.6747 138.973L51.1495 139.467L68.7289 122.573L68.2541 122.078ZM73.1238 126.302L68.7289 122.078L68.2541 122.573L72.6489 126.796L73.1238 126.302ZM59.9392 139.467L73.1238 126.796L72.6489 126.302L59.4644 138.973L59.9392 139.467ZM76.8909 155.263L59.9392 138.973L59.4644 139.467L76.416 155.757L76.8909 155.263ZM66.9985 139.467L76.416 148.517L76.8909 148.023L67.4733 138.973L66.9985 139.467ZM76.416 129.922L66.9985 138.973L67.4733 139.467L76.8909 130.416L76.416 129.922ZM86.3085 138.973L76.8909 129.922L76.416 130.416L85.8336 139.467L86.3085 138.973ZM76.8909 148.517L86.3085 139.467L85.8336 138.973L76.416 148.023L76.8909 148.517ZM97.7622 109.408L88.3446 118.458L88.8195 118.953L98.2371 109.903L97.7622 109.408ZM107.655 118.458L98.2371 109.408L97.7622 109.903L107.18 118.953L107.655 118.458ZM98.2371 128.003L107.655 118.953L107.18 118.458L97.7622 127.508L98.2371 128.003ZM88.3446 118.953L97.7622 128.003L98.2371 127.508L88.8195 118.458L88.3446 118.953ZM58.6836 106.282L63.0784 102.058L62.6036 101.564L58.2088 105.787L58.6836 106.282ZM90.0757 135.956L58.6836 105.787L58.2088 106.282L89.6008 136.45L90.0757 135.956ZM93.9957 131.732L89.6008 135.956L90.0757 136.45L94.47 132.227L93.9957 131.732ZM62.6036 102.058L93.9957 132.227L94.47 131.732L63.0784 101.564L62.6036 102.058ZM50.6749 90.1006L46.2801 94.3238L46.7549 94.8187L51.1497 90.595L50.6749 90.1006ZM33.0955 73.7011L50.6749 90.595L51.1497 90.1006L33.5703 73.2067L33.0955 73.7011ZM7.82898 98.4389L33.5703 73.7011L33.0955 73.2067L7.35419 97.9439L7.82898 98.4389ZM33.5703 122.682L7.82898 97.9439L7.35419 98.4389L33.0955 123.176L33.5703 122.682ZM72.0211 85.2738L33.0955 122.682L33.5703 123.176L72.496 85.7681L72.0211 85.2738ZM68.2543 82.148L72.0211 85.7681L72.496 85.2738L68.7289 81.6537L68.2543 82.148ZM34.1981 115.332L68.7289 82.148L68.2543 81.6537L33.7233 114.838L34.1981 115.332ZM16.1439 98.4389L33.7233 115.332L34.1981 114.838L16.6187 97.9439L16.1439 98.4389ZM33.0955 81.6537L16.1439 97.9439L16.6187 98.4389L33.5703 82.148L33.0955 81.6537ZM46.7549 94.3238L33.5703 81.6537L33.0955 82.148L46.2801 94.8187L46.7549 94.3238ZM43.1408 97.9439L33.0955 107.598L33.5703 108.092L43.6156 98.4389L43.1408 97.9439ZM33.0955 88.7849L43.1408 98.4389L43.6156 97.9439L33.5703 88.2906L33.0955 88.7849ZM23.5249 98.4389L33.5703 88.7849L33.0955 88.2906L23.0501 97.9439L23.5249 98.4389ZM33.5703 107.598L23.5249 97.9439L23.0501 98.4389L33.0955 108.092L33.5703 107.598Z" fill="#E067A7"/>
</g>
</g>
<defs>
<clipPath id="clip0_3_15">
<rect width="196" height="196" fill="white"/>
</clipPath>
<clipPath id="clip1_3_15">
<rect width="196" height="147.383" fill="white" transform="translate(0 24.5)"/>
</clipPath>
</defs>
</svg>
